<?xml version="1.0" encoding="utf-8"?>
<!-- Generator: Adobe Illustrator 25.4.1, SVG Export Plug-In . SVG Version: 6.00 Build 0)  -->
<svg version="1.1" id="Слой_1" xmlns="http://www.w3.org/2000/svg" xmlns:xlink="http://www.w3.org/1999/xlink" x="0px" y="0px"
	 viewBox="0 0 56.69 56.69" style="enable-background:new 0 0 56.69 56.69;" xml:space="preserve">
<style type="text/css">
	.st0{fill:#FCDF6B;}
	.st1{fill:#1C75BC;}
	.st2{display:none;fill:#ED1C24;}
	.st3{fill:#F3F3F3;}
	.st4{fill:#D9D8D7;}
	.st5{fill:#E7D6E9;}
	.st6{fill:#A5BAE0;}
	.st7{fill:#5688C7;}
	.st8{fill:#CFD8EE;}
	.st9{fill:#FFFFFF;}
	.st10{fill:#E6E5E5;}
</style>
<circle id="XMLID_8_" class="st0" cx="28.35" cy="28.35" r="28.33"/>
<g>
	<path class="st1" d="M21.64,50.78c-3.23,0-8.02-1.23-10.73-2.17c-0.26-0.09-1.11-0.45-1.11-0.45s3.72-1.82,3.65-1.85
		c2.51,0.75,5.84,1.47,8.18,1.47c0.03,0,0.06,0,0.1,0c3.66-0.04,6.21-1.36,8.91-2.76c2.95-1.53,5.99-3.11,10.5-3.11
		c6.02,0,11.88,3.27,12.12,3.41c0.72,0.41,0.98,1.32,0.57,2.04c-0.41,0.72-1.32,0.98-2.04,0.57c-0.05-0.03-5.43-3.02-10.65-3.02
		c-3.78,0-6.37,1.35-9.12,2.77c-2.89,1.5-5.89,3.05-10.26,3.09C21.72,50.78,21.68,50.78,21.64,50.78z"/>
</g>
<path class="st2" d="M31.12,50.76c-11.08,0-20.09-9.01-20.09-20.08c0-11.08,9.01-20.09,20.09-20.09S51.2,19.6,51.2,30.68
	C51.2,41.75,42.19,50.76,31.12,50.76z M31.12,12.57c-9.99,0-18.11,8.12-18.11,18.11c0,9.98,8.12,18.11,18.11,18.11
	s18.11-8.12,18.11-18.11C49.23,20.69,41.1,12.57,31.12,12.57z"/>
<g>
	<path class="st3" d="M24.83,39.62l-6.05-6.46l-8.39-2.82c-0.07,0.2-0.1,0.41-0.12,0.62c0,0.07-0.01,0.13-0.01,0.2L9.49,47.64
		l14.66-7.56c0.06-0.03,0.12-0.06,0.18-0.09C24.5,39.89,24.68,39.77,24.83,39.62"/>
	<polyline class="st4" points="9.49,47.64 20.18,36.28 20.47,35.9 24.14,40.08 9.49,47.64 	"/>
	<polyline class="st1" points="9.49,47.64 9.76,41.72 14.75,44.93 9.49,47.64 	"/>
	
		<rect x="8.65" y="20.05" transform="matrix(0.5402 -0.8415 0.8415 0.5402 -10.8223 26.0855)" class="st5" width="19.63" height="5.79"/>
	
		<rect x="13.52" y="23.18" transform="matrix(0.5403 -0.8415 0.8415 0.5403 -11.2148 31.6209)" class="st6" width="19.63" height="5.79"/>
	
		<rect x="18.39" y="26.31" transform="matrix(0.5403 -0.8415 0.8415 0.5403 -11.6073 37.16)" class="st7" width="19.63" height="5.79"/>
	<path class="st8" d="M15.6,32.77c0.86-1.35,0.47-3.14-0.87-4c-1.35-0.86-3.14-0.47-4,0.87c-0.86,1.35-0.47,3.14,0.87,4
		C12.94,34.51,14.73,34.12,15.6,32.77"/>
	<path class="st6" d="M20.47,35.9c0.86-1.35,0.47-3.14-0.87-4c-1.34-0.86-3.14-0.47-4,0.87c-0.86,1.35-0.47,3.14,0.87,4
		C17.81,37.63,19.6,37.25,20.47,35.9"/>
	<path class="st7" d="M25.34,39.03c0.86-1.35,0.47-3.14-0.87-4c-1.35-0.86-3.14-0.47-4,0.87c-0.86,1.35-0.47,3.14,0.87,4
		C22.69,40.76,24.48,40.37,25.34,39.03"/>
	
		<rect x="27.26" y="6.03" transform="matrix(0.5403 -0.8415 0.8415 0.5403 1.1408 32.5543)" class="st9" width="6.21" height="18.41"/>
	
		<rect x="32.32" y="15.3" transform="matrix(0.5402 -0.8415 0.8415 0.5402 0.733 38.3132)" class="st10" width="6.21" height="6.37"/>
	<path class="st6" d="M40.78,14.98c0.48-0.75,0.67-1.68,0.47-2.62c-0.2-0.94-0.77-1.7-1.52-2.18l-8.77-5.63
		c-0.75-0.48-1.68-0.67-2.62-0.47c-0.94,0.2-1.7,0.77-2.18,1.52l-1.48,2.3l14.62,9.39L40.78,14.98"/>
	<path class="st1" d="M34.43,14.15l1.48-2.3c0.48-0.75,0.68-1.68,0.47-2.62c-0.2-0.94-0.77-1.7-1.52-2.18l4.87,3.13
		c0.75,0.48,1.31,1.25,1.52,2.18c0.2,0.94,0.01,1.87-0.47,2.62l-1.48,2.3L34.43,14.15"/>
</g>
</svg>
