<?xml version="1.0" encoding="utf-8"?>
<!-- Generator: Adobe Illustrator 25.4.1, SVG Export Plug-In . SVG Version: 6.00 Build 0)  -->
<svg version="1.1" id="Слой_1" xmlns="http://www.w3.org/2000/svg" xmlns:xlink="http://www.w3.org/1999/xlink" x="0px" y="0px"
	 viewBox="0 0 841.89 595.28" style="enable-background:new 0 0 841.89 595.28;" xml:space="preserve">
<style type="text/css">
	.st0{fill:#FCDF6B;}
	.st1{fill-rule:evenodd;clip-rule:evenodd;fill:#1C75BC;}
	.st2{fill-rule:evenodd;clip-rule:evenodd;fill:#FFFFFF;}
	.st3{fill-rule:evenodd;clip-rule:evenodd;}
</style>
<g>
	<path class="st0" d="M448.66,297.61c0,15.65-12.68,28.33-28.33,28.33c-15.65,0-28.33-12.68-28.33-28.33
		c0-15.65,12.68-28.33,28.33-28.33C435.98,269.28,448.66,281.96,448.66,297.61L448.66,297.61z"/>
	<path class="st1" d="M409.11,317.01l0.26-0.38l0.45-0.22l0.14,0.35l0.13,0.47l0.01,0.01l-0.13,0.26c-0.07,0.14,0.05,0.16,0.07,0.36
		c0.02,0.33-0.08,0.41-0.34,0.53c-0.65,0.01-1.2,0-1.85-0.06c-1.04-0.1-2.23-0.23-3.25-0.43c-0.53-0.09-1.31-0.39-1.69-0.77
		c-0.43-0.43-0.52-1.01-0.16-1.52c0.24-0.34,0.59-0.59,0.96-0.76c1.1-0.35,1.09-0.44,3.54-0.06c-1.03,0.12-5.77,1.11-2.08,1.94
		c0.39,0.09,0.8,0.19,1.18,0.24l0.02,0c0.63,0.07,1.35,0.14,1.97,0.06l0.02,0L409.11,317.01L409.11,317.01z"/>
	<path class="st1" d="M435.22,312.97c0.69-0.13,5.43-1.12,4.66-2.3c-0.37-0.56-1.8-1.12-2.43-1.33c-3.43-1.16-7.59-1.1-11.15-0.66
		c-0.9,0.11-2.56,0.3-3.36,0.67c-0.3,0.14-1.78,0.82-1.22,1.29c0.16,0.07,0.3,0.16,0.47,0.21c0.54,0.17,1.21,0.31,1.77,0.36
		c0.07,0.01,0.14,0.01,0.2,0.03c0.2,0,0.39,0.03,0.58,0.04c0.64,0.04,1.29,0.04,1.94,0c0.59-0.03,1.18-0.1,1.76-0.2
		c0.19-0.03,0.38-0.1,0.58-0.11l0.37-0.12c0.28-0.1,0.69-0.2,0.95-0.34c0.07-0.04,0.13-0.07,0.2-0.11c0.07-0.05,0.15-0.1,0.21-0.16
		c-0.29-0.18-0.57-0.17-0.9-0.32l-2.25-0.98l2.46,0.06c0.82,0.02,2.49,0.43,2.35,1.53c-0.05,0.42-0.37,0.71-0.72,0.94l-0.25,0.15
		c-0.35,0.18-0.81,0.34-1.19,0.41c-0.58,0.23-2.17,0.38-2.81,0.44c-1.02,0.11-2.06,0.16-3.09,0.13c-1.41-0.04-4.06-0.21-4.49-1.9
		c-0.44-1.73,1.96-2.47,3.2-2.77c1.52-0.37,3.08-0.53,4.63-0.66c1.02-0.08,2.12-0.18,3.13-0.11c2.61,0.08,5.23,0.33,7.71,1.19
		c0.16,0.06,0.32,0.11,0.47,0.18c0.12,0.05,0.27,0.13,0.39,0.16l0.14,0.03l0.06,0.07c0.08,0.05,0.25,0.1,0.37,0.16
		c0.53,0.27,1.02,0.61,1.38,1.09c0.33,0.45,0.44,1.06,0.24,1.58c-0.53,1.37-2.71,2.04-4.01,2.37c-0.2,0.05-0.41,0.1-0.61,0.14
		c-0.18,0.04-0.38,0.06-0.56,0.11l-0.03,0.01l-0.03,0c-0.44,0.06-0.88,0.15-1.32,0.21c-1.39,0.19-2.79,0.27-4.19,0.37
		c-1.93,0.13-3.87,0.19-5.8,0.24c-2.1,0.06-5.1-0.01-6.54-0.02c-0.77,0-2.37,0.1-3.04-0.08l-3.02-0.8l3.12-0.14
		c1.06-0.05,2.12-0.08,3.18-0.12c2.63-0.08,2.82-0.11,5.45-0.21c0.27-0.01,0.53-0.02,0.8-0.03c0.17-0.01,0.49,0.01,0.6-0.01
		l0.01-0.01l0.13-0.07l0.16,0.05c0.25,0.03,0.64-0.02,0.89-0.03c0.66-0.03,1.32-0.06,1.98-0.1c1.12-0.06,2.23-0.13,3.35-0.18
		c0.28-0.01,0.59-0.08,0.87-0.07c0.35-0.08,0.77-0.1,1.12-0.14C434.46,313.09,434.83,313.01,435.22,312.97L435.22,312.97z"/>
	<path class="st2" d="M438.14,293.91L438.1,295c1.12,0.62,3.56-0.59,4.2,1.48c0.43,1.38,0.49,3.6,0.66,5.09
		c0.33,2.94-1.79,2.45-3.83,2.45h-11.2c-1.87,0-4.48,0.59-4.18-2.27c0.18-1.65,0.29-3.44,0.65-5.06c0.48-2.15,2.7-1.23,4.22-1.58
		c0.08-0.35,0.13-0.84,0.04-1.12c-0.06-0.19-0.53-0.23-0.71-0.29l-0.16-0.05l-0.06-0.15c-0.35-0.84-0.58-2.3,0.46-2.75l0.07-0.03
		h10.51l0.1,0.16c0.36,0.53,0.38,1.24,0.33,1.86C439.12,293.69,438.76,293.7,438.14,293.91L438.14,293.91z M438.37,296.71
		c-0.06,0.01-0.29,0.07-0.34,0.11c-0.03,0.07,0.03,0.58,0.04,0.68c0.06,1.12,0.22,2.42,0.46,3.51c0.2,0.9,1.22,1.2,1.17,0.09
		c-0.04-0.91-0.24-1.81-0.36-2.7c-0.06-0.41-0.1-1.08-0.26-1.45C438.94,296.63,438.69,296.64,438.37,296.71L438.37,296.71z"/>
	<path class="st1" d="M438.29,296.37c1.25-0.29,1.23,0.8,1.4,1.98c0.08,0.59,0.32,1.82,0.37,2.74c0.07,1.51-1.57,1.38-1.87,0
		c-0.21-0.97-0.41-2.53-0.47-3.56C437.67,296.73,437.52,296.55,438.29,296.37L438.29,296.37z M436.38,294.1
		c0.04,0.39,0.01,0.86-0.18,0.95c-0.51,0.26-0.49-0.75-0.5-0.99C435.68,293.48,436.31,293.34,436.38,294.1L436.38,294.1z
		 M436.51,291.32l0.59,0l0.01,1.74l-0.63,0.02L436.51,291.32L436.51,291.32z M428.33,291.07c-0.81,0.36-0.55,1.65-0.28,2.29
		c0.48,0.15,0.81,0.12,0.94,0.52c0.14,0.42,0.04,1.11-0.09,1.52c-1.64,0.52-3.74-0.55-4.17,1.37c-0.31,1.39-0.49,3.53-0.65,5.02
		c-0.26,2.44,1.84,1.88,3.83,1.88h11.2c2.1,0,3.76,0.48,3.48-2.05c-0.13-1.21-0.33-4.02-0.64-5.03c-0.58-1.86-3.04-0.47-4.23-1.41
		l0.06-1.52c0.61-0.25,0.98-0.1,1.05-0.95c0.05-0.64,0.01-1.22-0.27-1.64H428.33L428.33,291.07z"/>
	<path class="st3" d="M422.57,275.13c-0.03,0.2,0,0.08-0.11,0.18c-0.19,0.44-0.35,0.75-0.61,1.25c-0.14,0.28-0.23,0.43-0.33,0.66
		c-0.1,0.23-0.2,0.37-0.32,0.65c-0.04,0.2,0,0.08-0.1,0.18l-1.1,2.1l-0.11,0.19l-2.94,4.96c0,0.13,0.01,0.08-0.08,0.18
		c-0.13,0.23-0.21,0.42-0.36,0.67c-0.13,0.21-0.29,0.48-0.39,0.72l-1.03,2.17c-0.24,0.72-0.9,2.03-1.19,2.96l-0.52,1.52
		c-0.25,0.77-0.77,2.33-0.92,3.08c-0.04,0.18-0.03,0.16-0.1,0.36l-1.04,5.05c-0.22,1.27-0.46,3.7-0.55,4.79
		c-0.04,0.58-0.23,2.89-0.14,3.32c1.66-0.82,0.49-0.19,2.15-1.83c1.88-1.86,2.37-1.92,3.93-4.32c0.2-0.32,0.75-1.34,0.82-1.6
		c-0.23,0.15-0.75,0.9-1.11,1.3c-0.45,0.5-0.77,0.81-1.33,1.27c-0.47,0.39-1.62,0.77-2.73,1.58c-0.26,0.19-0.55,0.46-0.85,0.63
		c-0.02-0.12-0.16-0.09,0.24-0.48c0.14-0.14,0.31-0.29,0.46-0.41c0.71-0.56,1.52-1.07,2.12-1.58c0.33-0.28,0.56-0.52,0.88-0.82
		c0.07-0.2-0.05-0.05,0.17-0.18c0.12-0.13,0.18-0.19,0.3-0.33c1.65-1.87,2.67-3.37,3.96-5.42l0.23-0.43c-0.34,0.24-0.63,0.62-1,0.93
		c-0.42,0.35-0.66,0.62-1.2,0.9c-0.93,0.48-2.26,1.18-3.2,1.57c0.63-0.59,2.09-1.36,2.86-1.95c1.22-0.92,2.32-2.13,3.37-3.22
		c0.18-0.18,0.36-0.34,0.53-0.55c0.77-0.96,1.09-1.99,1.32-3.08c-0.02-0.13-0.09-0.01,0.04-0.19c-0.03-0.27,0.09-0.78,0.01-1.35
		c-0.32,0.21-0.61,0.46-0.94,0.67c-0.34,0.21-0.71,0.42-1.02,0.64c-0.54,0.37-1.75,0.95-2.39,1.21c-0.64,0.26-1.51,0.42-2.23,0.73
		c-0.66,0.29-1.76,0.9-2.28,1.32c0.03-0.12-0.05-0.02,0.08-0.18c0.18-0.23,1.24-0.99,1.47-1.13c0.62-0.37,1.54-0.71,2.24-1.09
		c2.28-1.23,5.86-4.44,7.11-6.82c0.19-0.37,0.61-1.22,0.59-1.56l-1.75,1.14l1.14-1.21c0.34-0.39,0.73-0.85,0.97-1.25l-1.13,0.81
		c-0.33,0.23-0.82,0.6-1.23,0.78c0.48-0.29,1.88-1.71,2.31-2.23c0.32-0.39,0.73-1.72,0.76-2.2c0.04-0.67,0.13-1.8-0.17-2.42
		c-1.62,1.6-2.38,1.75-4.12,2.71c-0.32,0.09-0.1,0.08-0.3,0l0.24-0.11c1.55-0.77,3.14-2.21,4.05-3.54c0.33-0.48,0.36-0.89,0.21-1.49
		c-0.14,0.08-1.92,1.77-3.33,2.49c0.27-0.24,0.63-0.5,0.94-0.79c0.81-0.73,1.68-1.67,2.27-2.54l-0.59-1.03
		c-0.33,0.25-1.18,1.44-1.9,1.88c0.13-0.37,1.33-2.09,1.5-2.54c-0.24-0.44-0.6-0.8-1.14-0.86L422.57,275.13L422.57,275.13z"/>
	<path class="st3" d="M414.35,279.04c0.1,0.27,0.04,0.11,0,0.22c-0.01,0.46-0.07,1.03-0.05,1.5l-0.01,1.62
		c-0.3-0.52-0.46-1.07-0.57-1.6c-0.08-0.38-0.15-1.22-0.27-1.51l-0.01-0.01c-0.29,0.21-2.16,2.92-2.24,3.11
		c-0.24,0.63-0.23,1.07-0.18,1.83c0.06,0.87,0.48,1.69,0.37,2.01c-0.81-1.41-0.59-1.88-0.89-2.82c-0.12,0.14-0.15,0.2-0.24,0.34
		c-0.34,0.49-1.02,1.74-1.24,2.28c-0.06,0.16-0.08,0.23-0.17,0.39l-0.99,2.75c-0.04,0.15-0.05,0.27-0.09,0.41
		c-0.17,0.54-0.27,0.96-0.4,1.6c-0.08,0.38,0.1,1.36,0.19,1.8c0.13,0.63,0.37,1.28,0.7,1.87c0.39,0.7,1.19,1.7,1.24,1.83
		c-0.2,0-0.4-0.14-0.58-0.3c-0.2-0.18-0.38-0.36-0.54-0.59c-0.35-0.49-0.67-1.12-1.02-1.56l-0.67,2c-0.05,0.31-0.29,0.94-0.36,1.39
		l-0.26,1.42c-0.23,1.23-0.01,2.53,0.42,3.79c0.33,0.98,0.64,2.28,1.14,3.26l0.15,0.37c-0.19,0.02-0.03,0.09-0.24-0.06
		c-0.13-0.24-0.29-0.47-0.44-0.73c-0.15-0.26-0.24-0.52-0.38-0.76c-0.01-0.02-0.07-0.12-0.08-0.13c-0.15-0.13,0.06-0.07-0.16-0.09
		c0.05,0.11,0.23,0.97,0.43,1.5c0.1,0.26,0.28,0.59,0.43,0.83l0.4,0.57c0.19,0.29,0.08,0.09,0.05,0.23
		c-0.55-0.5-1.25-1.19-1.59-1.87l-0.19-0.14l0.06,0.42c0.31,0.79,0.48,1.63,0.86,2.47c0.4,0.89,0.86,1.48,1.54,2.05l0.52-0.25
		c-0.01-1.26,0.1-2.42,0.2-3.68c0.17-2.2,0.44-4.42,0.76-6.61c0.03-0.21,0.06-0.39,0.1-0.63l0.31-1.97
		c0.07-0.41,0.16-0.81,0.24-1.29l0.43-1.9c0.03-0.13,0.02-0.2,0.07-0.33c0.06-0.19,0.06-0.14,0.09-0.33l0.95-3.15
		c0.48-0.99,0.87-1.96,1.46-3.01l0.63-1.19c0.21-0.4,0.4-0.74,0.65-1.18l1.02-1.74c0.76-1.21,1.84-2.98,2.71-4.08
		c0.25-0.32,0.6-0.77,0.83-1.13c0.52-0.81,0.92-1.2,1.5-2.31c0.2-0.38,0.5-0.85,0.65-1.18l0.26-0.59c0.3-0.66,1.17-2.52,1.31-3.09
		l-1.25,2.05c-0.13,0.22-0.28,0.52-0.46,0.72c-0.02-0.61,0.2-1.55,0.17-2.03c-0.2,0.34-0.73,2-0.88,2.53l-0.17,0.41
		c-0.03-0.17-0.03-0.18,0-0.34c-0.1-0.26-0.04-0.11,0-0.21c0.01-0.41,0.05-0.82,0.06-1.2c0.01-0.38,0.1-0.95,0.05-1.21
		c-0.65,0.3-1.68,1.15-2.25,1.6c-1.11,0.89-2.57,2.43-3.45,3.52c-0.47,0.59-0.34,0.31-0.47,1.01c-0.04,0.22-0.05,0.32-0.08,0.55
		C414.41,278.74,414.42,278.89,414.35,279.04L414.35,279.04z"/>
	<path class="st3" d="M420.21,277.65c-0.03,0.11,0.12,0.01-0.13,0.18l-2.72,4.18c-0.82,1.25-1.8,2.98-2.49,4.31
		c-0.3,0.57-1.42,2.77-1.61,3.28l-0.46,1.14c-0.33,0.7-0.51,1.55-0.75,2.29l-0.64,2.31l-0.04,0.2l-0.33,1.46
		c-0.03,0.13-0.06,0.33-0.1,0.49c-0.5,2.31-0.8,4.78-1.08,7.14l-0.3,4.15c0,0.33-0.07,0.44-0.08,0.83
		c-0.02,0.46-0.23,0.86-0.17,1.15l0.87-0.08c0.03-0.37-0.03-0.01-0.02-0.36l0.04-1.01l0.04-0.19c-0.01-0.46,0.05-0.81,0.07-1.27
		c0.02-0.39,0.12-0.87,0.06-1.29l0.04-0.19c0.02-0.36,0.07-0.79,0.11-1.17c0.04-0.36,0.12-0.85,0.12-1.23l0.04-0.19
		c0.08-0.62,0.18-1.18,0.26-1.78c0.1-0.72,0.19-1.22,0.31-1.84c0.03-0.18,0.06-0.24,0.09-0.41c0.2-1.06,0.61-3.04,0.93-4.03
		c0.05-0.17,0.06-0.27,0.11-0.45l1.79-5.29c0.07-0.17,0.14-0.26,0.2-0.43c0.61-1.76,1.56-3.35,2.38-5.04l2.97-4.92
		c0.11-0.18,0.14-0.26,0.22-0.42c0.27-0.55,1.42-2.41,1.59-2.91l0.09-0.18c0.13-0.19,0.14-0.26,0.24-0.46
		c0.12-0.23,0.17-0.29,0.26-0.5c0.16-0.34,0.34-0.65,0.45-0.99l-0.04,0.04l-1.74,2.6C420.62,277.06,420.42,277.35,420.21,277.65
		L420.21,277.65z"/>
	<path class="st3" d="M409.24,314.22c0.42-0.6,1.19-0.63,1.2,0.09C410.44,314.8,409.57,315.18,409.24,314.22L409.24,314.22z
		 M407.95,314.3c0.88,1.43,0.99,1.02,1.45,2.4c0.19,0.57,0.27,0.76,0.55,0.06c0.5-1,0.62-1.29,1.62-2l-0.49-2.18
		c-0.86,0.1-1.83-0.05-2.58,0.07L407.95,314.3L407.95,314.3z"/>
	<path class="st3" d="M408.85,311.97c0.6-0.05,1.27,0.07,1.87-0.06l-0.02-0.72c-0.64,0.01-1.27,0-1.86,0.03L408.85,311.97
		L408.85,311.97z"/>
</g>
</svg>
