<?xml version="1.0" encoding="utf-8"?>
<!-- Generator: Adobe Illustrator 25.4.1, SVG Export Plug-In . SVG Version: 6.00 Build 0)  -->
<svg version="1.1" id="Слой_1" xmlns="http://www.w3.org/2000/svg" xmlns:xlink="http://www.w3.org/1999/xlink" x="0px" y="0px"
	 viewBox="0 0 56.69 56.69" style="enable-background:new 0 0 56.69 56.69;" xml:space="preserve">
<style type="text/css">
	.st0{fill:#FCDF6B;}
	.st1{fill:#F47920;}
	.st2{fill:#1C75BC;}
	.st3{fill:#FFFFFF;}
</style>
<circle id="XMLID_8_" class="st0" cx="28.35" cy="28.35" r="28.33"/>
<g>
	<path class="st1" d="M27.57,43.93h11.45c1.52,0,2.75-1.24,2.75-2.78c0-1.52-1.24-2.74-2.75-2.74h-4.69c0,0-1.27,0.07-1.27-0.7
		s1.26-0.67,1.26-0.67h4.7c1.52,0,2.75-1.24,2.75-2.77c0-1.51-1.24-2.77-2.75-2.77h-4.66c0,0-1.3,0.05-1.3-0.71s1.34-0.64,1.34-0.64
		h4.63c1.52,0,2.75-1.23,2.75-2.75c0-1.55-1.24-2.79-2.75-2.79h-4.65c0,0-1.31,0.17-1.31-0.66s1.31-0.68,1.31-0.68h17.27
		c1.52,0,2.77-1.25,2.77-2.77c0-1.54-1.25-2.77-2.77-2.77H27.19l-0.31,0.03h-6.39c-3.25,0-5.89,1.92-5.89,4.35v17.5
		c0,2.38,2.64,4.32,5.89,4.32h6.68L27.57,43.93"/>
	<rect x="2.96" y="20.19" class="st2" width="5.82" height="20.65"/>
	<rect x="8.78" y="20.19" class="st3" width="5.82" height="20.65"/>
</g>
</svg>
