<?xml version="1.0" encoding="utf-8"?>
<!-- Generator: Adobe Illustrator 25.4.1, SVG Export Plug-In . SVG Version: 6.00 Build 0)  -->
<svg version="1.1" id="Слой_1" xmlns="http://www.w3.org/2000/svg" xmlns:xlink="http://www.w3.org/1999/xlink" x="0px" y="0px"
	 viewBox="0 0 56.69 56.69" style="enable-background:new 0 0 56.69 56.69;" xml:space="preserve">
<style type="text/css">
	.st0{fill:#FCDF6B;}
	.st1{fill:#FFFFFF;}
	.st2{fill:#939598;}
	.st3{fill:#6D6E71;}
	.st4{fill:#F47920;}
</style>
<circle id="XMLID_5_" class="st0" cx="28.35" cy="28.35" r="28.33"/>
<circle id="XMLID_8_" class="st1" cx="28.35" cy="28.35" r="22.68"/>
<g>
	<circle class="st2" cx="28.36" cy="28.36" r="7.33"/>
	<g>
		<circle class="st1" cx="28.35" cy="28.35" r="19.83"/>
		<path class="st3" d="M25.91,25.91c-1.35,1.35-1.35,3.53,0,4.88c1.35,1.35,3.53,1.35,4.88,0c1.35-1.35,1.35-3.53,0-4.88
			C29.44,24.56,27.26,24.56,25.91,25.91z"/>
		<path class="st4" d="M49.09,28.54c0.05-5.23-1.97-10.47-5.52-14.3c-5.45-5.88-14.31-8.1-21.9-5.54c-3,1.01-5.75,2.74-7.99,4.98
			c-8.11,8.11-8.11,21.25,0,29.35c5.85,5.85,15.02,7.69,22.64,4.41c7.34-3.17,12.62-10.67,12.78-18.7
			C49.09,28.67,49.09,28.6,49.09,28.54z M37.97,11.28c1.54,0.87,2.95,1.94,4.23,3.22c1.28,1.28,2.36,2.7,3.23,4.25l-9.63,6.08
			c-0.39-0.83-0.93-1.61-1.62-2.29c-0.69-0.69-1.46-1.23-2.29-1.62L37.97,11.28z M23.45,23.44c2.71-2.71,7.09-2.71,9.8,0
			c2.71,2.71,2.71,7.1,0,9.8c-2.71,2.71-7.1,2.71-9.8,0C20.74,30.54,20.74,26.15,23.45,23.44z M14.5,42.19
			c-1.27-1.27-2.34-2.68-3.21-4.22l9.64-6.08c0.39,0.82,0.93,1.6,1.61,2.28c0.68,0.68,1.46,1.22,2.28,1.61l-6.07,9.63
			C17.2,44.55,15.78,43.47,14.5,42.19z"/>
	</g>
</g>
</svg>
