<?xml version="1.0" encoding="utf-8"?>
<!-- Generator: Adobe Illustrator 25.4.1, SVG Export Plug-In . SVG Version: 6.00 Build 0)  -->
<svg version="1.1" id="Слой_1" xmlns="http://www.w3.org/2000/svg" xmlns:xlink="http://www.w3.org/1999/xlink" x="0px" y="0px"
	 viewBox="0 0 841.89 595.28" style="enable-background:new 0 0 841.89 595.28;" xml:space="preserve">
<style type="text/css">
	.st0{fill:#FCDF6B;}
	.st1{fill-rule:evenodd;clip-rule:evenodd;fill:#276780;}
	.st2{fill-rule:evenodd;clip-rule:evenodd;fill:#FEFEFD;}
	.st3{fill-rule:evenodd;clip-rule:evenodd;fill:#EAE9E9;}
	.st4{fill-rule:evenodd;clip-rule:evenodd;fill:#022A3A;}
	.st5{fill-rule:evenodd;clip-rule:evenodd;fill:#27ADE5;}
	.st6{fill-rule:evenodd;clip-rule:evenodd;fill:#06465E;}
	.st7{fill-rule:evenodd;clip-rule:evenodd;fill:#2284EC;}
</style>
<g>
	<path class="st0" d="M448.66,298.61c0,15.65-12.68,28.33-28.33,28.33S392,314.26,392,298.61c0-15.65,12.68-28.33,28.33-28.33
		S448.66,282.96,448.66,298.61L448.66,298.61z"/>
	<polygon class="st1" points="440.17,293.88 440.17,301.07 437.22,301.07 437.22,293.88 440.17,293.88 	"/>
	<polygon class="st1" points="432.98,298.12 440.17,298.12 440.17,301.07 432.98,301.07 432.98,298.12 	"/>
	<path class="st2" d="M414.84,313.84h-2.19h-1.26c-1.32,0-2.4,1.08-2.4,2.4v0.55c0,1.32,1.08,2.4,2.4,2.4h1.26h2.19h5.59v-2.4v-0.55
		v-2.4H414.84L414.84,313.84z"/>
	<path class="st3" d="M426.02,313.84h2.19h1.26c1.32,0,2.4,1.08,2.4,2.4v0.55c0,1.32-1.08,2.4-2.4,2.4h-1.26h-2.19h-5.59v-2.4v-0.55
		v-2.4H426.02L426.02,313.84z"/>
	<polygon class="st1" points="403.53,300.31 403.53,305.34 400.59,305.34 400.59,300.31 403.53,300.31 	"/>
	<path class="st2" d="M401.97,304.59c2.35,0,4.25,1.9,4.25,4.25c0,1.5-0.77,2.81-1.94,3.57l-1.21-2.25
		c0.38-0.32,0.62-0.79,0.62-1.32c0-0.95-0.77-1.72-1.72-1.72s-1.72,0.77-1.72,1.72c0,0.56,0.26,1.05,0.67,1.36l-1.2,2.24
		c-1.2-0.75-2-2.09-2-3.61C397.72,306.49,399.62,304.59,401.97,304.59L401.97,304.59z"/>
	<path class="st3" d="M438.7,294.49c-2.35,0-4.25-1.9-4.25-4.25c0-1.5,0.77-2.81,1.94-3.57l1.21,2.25
		c-0.38,0.32-0.62,0.79-0.62,1.32c0,0.95,0.77,1.72,1.72,1.72c0.95,0,1.72-0.77,1.72-1.72c0-0.56-0.26-1.05-0.67-1.36l1.2-2.24
		c1.2,0.75,2,2.09,2,3.61C442.95,292.59,441.04,294.49,438.7,294.49L438.7,294.49z"/>
	<polygon class="st1" points="416.94,291.91 420.42,291.91 420.42,313.83 416.94,313.83 416.94,291.91 	"/>
	<polygon class="st4" points="423.9,291.91 420.42,291.91 420.42,313.83 423.9,313.83 423.9,291.91 	"/>
	<polygon class="st1" points="403.66,298.72 408.69,298.72 408.69,301.67 403.66,301.67 403.66,298.72 	"/>
	<path class="st2" d="M416.74,278.04h-3.36h-1.94c-2.03,0-3.69,1.66-3.69,3.69v6.5c0,2.03,1.66,3.69,3.69,3.69h1.94h3.36h3.69v-3.69
		v-6.5v-3.69H416.74L416.74,278.04z"/>
	<path class="st5" d="M414.08,280.25c2.61,0,4.72,2.11,4.72,4.72s-2.11,4.72-4.72,4.72c-2.61,0-4.72-2.11-4.72-4.72
		S411.48,280.25,414.08,280.25L414.08,280.25z"/>
	<path class="st6" d="M414.08,283.26c0.94,0,1.71,0.76,1.71,1.71s-0.76,1.71-1.71,1.71c-0.94,0-1.71-0.76-1.71-1.71
		S413.14,283.26,414.08,283.26L414.08,283.26z"/>
	<path class="st3" d="M424.11,278.04h3.36h1.94c2.03,0,3.69,1.66,3.69,3.69v6.5c0,2.03-1.66,3.69-3.69,3.69h-1.94h-3.36h-3.69v-3.69
		v-6.5v-3.69H424.11L424.11,278.04z"/>
	<path class="st7" d="M426.76,280.25c2.61,0,4.72,2.11,4.72,4.72s-2.11,4.72-4.72,4.72c-2.61,0-4.72-2.11-4.72-4.72
		S424.15,280.25,426.76,280.25L426.76,280.25z"/>
	<path class="st6" d="M426.76,283.26c0.94,0,1.71,0.76,1.71,1.71s-0.76,1.71-1.71,1.71c-0.94,0-1.71-0.76-1.71-1.71
		S425.82,283.26,426.76,283.26L426.76,283.26z"/>
	<path class="st3" d="M424.11,295.36h3.36h1.94c2.03,0,3.69,1.66,3.69,3.69v7.55c0,2.03-1.66,3.69-3.69,3.69h-1.94h-3.36h-3.69
		v-3.69v-7.55v-3.69H424.11L424.11,295.36z"/>
	<path class="st2" d="M416.74,295.36h-3.36h-1.94c-2.03,0-3.69,1.66-3.69,3.69v7.55c0,2.03,1.66,3.69,3.69,3.69h1.94h3.36h3.69
		v-3.69v-7.55v-3.69H416.74L416.74,295.36z"/>
	<path class="st2" d="M402.06,297.99c1.22,0,2.21,0.99,2.21,2.21c0,1.22-0.99,2.21-2.21,2.21s-2.21-0.99-2.21-2.21
		C399.85,298.98,400.84,297.99,402.06,297.99L402.06,297.99z"/>
</g>
</svg>
