<?xml version="1.0" encoding="utf-8"?>
<!-- Generator: Adobe Illustrator 25.4.1, SVG Export Plug-In . SVG Version: 6.00 Build 0)  -->
<svg version="1.1" id="Слой_1" xmlns="http://www.w3.org/2000/svg" xmlns:xlink="http://www.w3.org/1999/xlink" x="0px" y="0px"
	 viewBox="0 0 56.69 56.69" style="enable-background:new 0 0 56.69 56.69;" xml:space="preserve">
<style type="text/css">
	.st0{fill:#FCDF6B;}
	.st1{fill:#FFFFFF;}
	.st2{fill:#1C75BC;}
	.st3{fill:#F47920;}
</style>
<circle id="XMLID_15_" class="st0" cx="28.35" cy="28.35" r="28.33"/>
<circle id="XMLID_1_" class="st1" cx="37.42" cy="19.72" r="16.25"/>
<path id="XMLID_7_" class="st2" d="M38.99,45.5c-0.07-0.76-0.13-1.51-0.49-2.2c-1.97-3.8-8.12-2.69-11.16-5.23l-0.86-0.93
	c0-1.14-0.45-2.88,0.58-3.58c1.11-0.74,1.52-2.19,2.34-3.19c0.57-0.69,1.49-1.09,1.79-1.98c0.46-1.33,0.33-2.83-0.79-3.81
	c-0.07-0.06-0.14-0.12-0.17-0.2c-0.03-0.08-0.01-0.16,0.01-0.24c0.16-0.79,0.36-1.55,0.36-2.36c0-4.47-3.62-8.1-8.1-8.1
	c-4.47,0-8.1,3.63-8.1,8.1c0,0.81,0.2,1.57,0.36,2.36c0.02,0.08,0.03,0.16,0.01,0.24c-0.03,0.08-0.1,0.14-0.17,0.2
	c-1.12,0.97-1.25,2.48-0.79,3.81c0.31,0.89,1.22,1.28,1.79,1.98c0.82,1.01,1.23,2.45,2.34,3.19c1.04,0.69,0.58,2.44,0.58,3.58
	l-0.86,0.93c-3.04,2.54-9.19,1.43-11.16,5.23c-0.36,0.69-0.42,1.45-0.49,2.2c-0.09,0.94-0.4,1.91-0.31,2.86
	c0.35,3.58,6.5,4.76,9.23,5.28c2.49,0.47,5.02,0.61,7.55,0.58c2.53,0.04,5.06-0.11,7.55-0.58c2.73-0.52,8.88-1.69,9.23-5.28
	C39.39,47.41,39.08,46.44,38.99,45.5z"/>
<g id="XMLID_2_">
	<path id="XMLID_3_" class="st3" d="M35.35,25.61c-0.25-2.15,0.42-4.26,1.97-6.34L38.35,18c1.13-1.44,1.73-2.64,1.76-3.63
		c0.04-1.55-1.02-2.47-2.57-2.47c-1.8,0-2.92,1.48-3.27,3.17l-4.86-1.09c0.32-1.8,1.16-3.35,2.54-4.68
		c1.37-1.37,3.42-2.01,6.16-1.94C40.21,7.4,42.01,8,43.52,9.1s2.32,2.61,2.5,4.47c0.39,3.13-1.3,5.28-3.8,7.5
		c-0.99,0.95-1.62,1.66-1.94,2.15c-0.39,0.74-0.6,1.51-0.6,2.39H35.35z M37.68,27.55c1.83,0,3.1,1.41,3.1,3.1
		c0,1.69-1.27,3.06-3.1,3.06c-1.69,0-3.06-1.27-3.06-3.06C34.61,28.96,35.88,27.55,37.68,27.55z"/>
</g>
</svg>
