<?xml version="1.0" encoding="utf-8"?>
<!-- Generator: Adobe Illustrator 25.4.1, SVG Export Plug-In . SVG Version: 6.00 Build 0)  -->
<svg version="1.1" xmlns="http://www.w3.org/2000/svg" xmlns:xlink="http://www.w3.org/1999/xlink" x="0px" y="0px"
	 viewBox="0 0 56.69 56.69" style="enable-background:new 0 0 56.69 56.69;" xml:space="preserve">
<style type="text/css">
	.st0{fill:#FCDF6B;}
	.st1{fill:#FFFFFF;}
	.st2{fill:#ED1C24;}
</style>
<g id="Слой_2">
</g>
<g id="Слой_1">
	<circle id="XMLID_5_" class="st0" cx="28.35" cy="28.35" r="28.33"/>
	<g>
		<path class="st1" d="M28.32,9.81c-1.09,0-1.97-0.88-1.97-1.97V4.1c0-1.09,0.88-1.97,1.97-1.97c1.09,0,1.97,0.88,1.97,1.97v3.73
			C30.3,8.92,29.41,9.81,28.32,9.81z"/>
		<path class="st1" d="M16.49,14.3c-0.84,0.7-2.08,0.59-2.78-0.24l-2.4-2.86c-0.7-0.84-0.59-2.08,0.24-2.78
			c0.83-0.7,2.08-0.59,2.78,0.24l2.4,2.86C17.43,12.35,17.33,13.6,16.49,14.3z"/>
		<path class="st1" d="M9.97,25.03c-0.19,1.07-1.21,1.79-2.29,1.6l-3.67-0.65c-1.07-0.19-1.79-1.21-1.6-2.29
			c0.19-1.07,1.21-1.79,2.29-1.6l3.67,0.65C9.44,22.93,10.16,23.95,9.97,25.03z"/>
		<path class="st1" d="M12.17,37.53c0.55,0.94,0.22,2.15-0.72,2.7l-3.23,1.87c-0.94,0.55-2.15,0.22-2.7-0.72
			c-0.54-0.94-0.22-2.15,0.72-2.7l3.23-1.87C10.42,36.26,11.63,36.59,12.17,37.53z"/>
		<path class="st1" d="M39.94,14.44c-0.84-0.7-0.94-1.95-0.24-2.78l2.4-2.86c0.7-0.84,1.95-0.94,2.78-0.24
			c0.83,0.7,0.94,1.95,0.24,2.78l-2.4,2.86C42.02,15.03,40.77,15.14,39.94,14.44z"/>
		<path class="st1" d="M46.31,25.03c-0.19-1.07,0.53-2.1,1.6-2.29l3.67-0.65c1.07-0.19,2.1,0.53,2.29,1.6
			c0.19,1.07-0.53,2.1-1.6,2.29l-3.67,0.65C47.53,26.82,46.5,26.1,46.31,25.03z"/>
		<path class="st1" d="M44.64,37.7c0.55-0.94,1.75-1.27,2.7-0.72l3.23,1.87c0.94,0.55,1.27,1.75,0.72,2.7
			c-0.54,0.94-1.75,1.27-2.7,0.72l-3.23-1.87C44.41,39.85,44.09,38.64,44.64,37.7z"/>
	</g>
	<path class="st2" d="M24.69,39.15h6.39l1.24-21.02h-0.07c0-0.04,0.01-0.08,0.01-0.12c0-2.43-1.97-4.39-4.39-4.39
		c-2.43,0-4.39,1.97-4.39,4.39c0,0.04,0.01,0.08,0.01,0.12h-0.02L24.69,39.15z M27.84,40.91c-2.86,0-4.86,2-4.86,4.96
		c0,2.81,2,4.91,4.86,4.91h0.05c2.9,0,4.86-2.1,4.86-4.91C32.7,42.92,30.74,40.91,27.84,40.91z"/>
</g>
</svg>
