<?xml version="1.0" encoding="utf-8"?>
<!-- Generator: Adobe Illustrator 25.4.1, SVG Export Plug-In . SVG Version: 6.00 Build 0)  -->
<svg version="1.1" id="Слой_1" xmlns="http://www.w3.org/2000/svg" xmlns:xlink="http://www.w3.org/1999/xlink" x="0px" y="0px"
	 viewBox="0 0 841.89 595.28" style="enable-background:new 0 0 841.89 595.28;" xml:space="preserve">
<style type="text/css">
	.st0{fill:#FCDF6B;}
	.st1{fill-rule:evenodd;clip-rule:evenodd;}
	.st2{fill-rule:evenodd;clip-rule:evenodd;fill:#FAA21B;}
	.st3{fill-rule:evenodd;clip-rule:evenodd;fill:#00A651;}
	.st4{fill-rule:evenodd;clip-rule:evenodd;fill:#FCDF6B;}
	.st5{fill-rule:evenodd;clip-rule:evenodd;fill:#00AEEF;}
	.st6{fill-rule:evenodd;clip-rule:evenodd;fill:#F16154;}
</style>
<g>
	<path class="st0" d="M448.66,298.61c0,15.65-12.68,28.33-28.33,28.33c-15.65,0-28.33-12.68-28.33-28.33
		c0-15.65,12.68-28.33,28.33-28.33C435.98,270.28,448.66,282.96,448.66,298.61L448.66,298.61z"/>
	<path class="st1" d="M435.95,281.01l0.36,0.02c0.64,0.04,1.83,0.09,2.1,0.69c0.05,0.12,0.08,0.24,0.08,0.36l-0.05,12.21
		c0,0.45,0.06,0.4-0.26,0.74c-0.47,0.5-1.54,1.46-2.75,2.51l3.64,2.22c0.35,0.21,0.67,0.57,0.67,1.01l0.06,12.61
		c0,0.44-0.38,0.84-0.82,0.9c-4.2,0.53-8.39,1.06-12.59,1.58c-0.2,0.03-0.47-0.21-0.65-0.32c-0.14,0.19-0.22,0.43-0.42,0.45
		l-12.5,1.57c-0.63,0.08-0.78,0.07-1.34-0.32l-0.22-0.18c-3.05-2.5-6.09-4.99-9.14-7.49c-0.26-0.21-0.21-0.49-0.21-0.83l-0.11-8.45
		c-0.37-0.1-0.67-0.45-0.67-0.84l-0.28-12.6c0-0.08,0.01-0.15,0.03-0.23l0,0l0.02-0.37l0.15-0.31l0.15-0.15
		c0.01-0.04,0.05-0.09,0.14-0.13l0.41-0.23l0.01-0.01l1.85-1.08c2.5-1.47,6.26-3.71,7.64-4.48l0,0l0,0c0.3-0.17,0.49-0.26,0.52-0.26
		l0.1,0.01l0.78,0.05L435.95,281.01L435.95,281.01z"/>
	<path class="st2" d="M413.18,304.32l10.9-1.25c0.25-0.03,0.46,0.16,0.46,0.41l0.09,11.16c0,0.25-0.2,0.48-0.45,0.51l-10.9,1.25
		c-0.25,0.03-0.46-0.15-0.46-0.41l-0.09-11.16C412.72,304.58,412.93,304.35,413.18,304.32L413.18,304.32z"/>
	<path class="st3" d="M427.56,302.6l10.66-1.25c0.25-0.03,0.45,0.15,0.45,0.4l0.08,11.18c0,0.25-0.2,0.47-0.44,0.5l-10.66,1.25
		c-0.25,0.03-0.45-0.15-0.45-0.4l-0.08-11.18C427.11,302.86,427.31,302.63,427.56,302.6L427.56,302.6z"/>
	<path class="st4" d="M416.91,287.91l11.19,0.87c0.25,0.02,0.46,0.26,0.47,0.51l0.09,11.63c0,0.26-0.2,0.45-0.46,0.42l-11.19-1.1
		c-0.25-0.02-0.46-0.26-0.47-0.51l-0.09-11.4C416.45,288.08,416.65,287.89,416.91,287.91L416.91,287.91z"/>
	<path class="st5" d="M402.35,287.12l11.08,0.87c0.25,0.02,0.46,0.26,0.47,0.51l0.09,11.28c0,0.26-0.2,0.44-0.46,0.42l-11.08-0.75
		c-0.25-0.02-0.46-0.26-0.47-0.51l-0.09-11.4C401.89,287.29,402.09,287.1,402.35,287.12L402.35,287.12z"/>
	<path class="st4" d="M407.02,301.39l3.8,2.88c0.09,0.07,0.16,0.32,0.16,0.56l0.03,10.84c0,0.24-0.07,0.38-0.16,0.31l-3.8-3.1
		c-0.09-0.07-0.16-0.32-0.16-0.56l-0.03-10.63C406.87,301.46,406.94,301.33,407.02,301.39L407.02,301.39z"/>
	<path class="st3" d="M405.71,300.54c0.02,0.09,0.04,0.2,0.04,0.3l0.26,10.91c0.01,0.22-0.07,0.35-0.15,0.29l-3.32-2.7
		c-0.16-0.13-0.26-0.17-0.32-0.38c-0.03-0.09-0.04-0.21-0.04-0.32l-0.1-8.35L405.71,300.54L405.71,300.54z"/>
	<path class="st6" d="M434.04,285.76l-3.45,2.56c-0.14,0.1-0.38,0.16-0.38,0.77l-0.03,11.53c0,0.26,0.07,0.41,0.15,0.34l3.68-3.08
		c0.08-0.07,0.15-0.34,0.15-0.6l0.03-11.18C434.19,285.83,434.13,285.69,434.04,285.76L434.04,285.76z"/>
	<path class="st6" d="M438.12,282.63l-2.86,2.13c-0.08,0.06-0.25,0.14-0.31,0.3c-0.04,0.11-0.07,0.28-0.07,0.44l-0.03,11.47
		c0,0.24,0.06,0.38,0.14,0.31l2.87-2.45c0.13-0.11,0.36-0.19,0.36-0.75l0.03-11.14C438.26,282.71,438.19,282.58,438.12,282.63
		L438.12,282.63z"/>
	<path class="st4" d="M407.12,282.77l11.02,0.81c0.1,0.01,0.05,0.08-0.1,0.18l-3.74,2.49c-0.15,0.1-0.36,0.19-0.46,0.18l-11.3-0.88
		c-0.1-0.01-0.06-0.09,0.1-0.18l4.01-2.43C406.82,282.86,407.02,282.77,407.12,282.77L407.12,282.77z"/>
	<path class="st5" d="M421.01,283.79l11.82,0.68c0.1,0.01,0.05,0.07-0.1,0.18l-3.2,2.47c-0.14,0.11-0.36,0.19-0.46,0.18l-11.99-0.9
		c-0.1-0.01-0.15-0.14,0.01-0.24l3.46-2.19C420.7,283.87,420.91,283.78,421.01,283.79L421.01,283.79z"/>
	<path class="st5" d="M412.08,279.86l11.1,0.64c0.1,0.01,0.06,0.08-0.1,0.18l-3.43,2.16c-0.15,0.1-0.36,0.19-0.46,0.18l-11.07-0.88
		c-0.1-0.01-0.06-0.09,0.1-0.18l3.4-1.92C411.78,279.96,411.98,279.86,412.08,279.86L412.08,279.86z"/>
	<path class="st3" d="M425.93,280.69l10.96,0.66c0.1,0.01,0.05,0.07-0.1,0.18l-3.1,2.29c-0.3,0.22-0.47,0.18-0.81,0.16L422,283.3
		c-0.1-0.01-0.15-0.14,0.01-0.24l3.46-2.19C425.62,280.77,425.83,280.68,425.93,280.69L425.93,280.69z"/>
</g>
</svg>
