<?xml version="1.0" encoding="utf-8"?>
<!-- Generator: Adobe Illustrator 25.4.1, SVG Export Plug-In . SVG Version: 6.00 Build 0)  -->
<svg version="1.1" id="Слой_1" xmlns="http://www.w3.org/2000/svg" xmlns:xlink="http://www.w3.org/1999/xlink" x="0px" y="0px"
	 viewBox="0 0 841.89 595.28" style="enable-background:new 0 0 841.89 595.28;" xml:space="preserve">
<style type="text/css">
	.st0{fill:#FCDF6B;}
	.st1{fill-rule:evenodd;clip-rule:evenodd;fill:#F16154;}
	.st2{fill-rule:evenodd;clip-rule:evenodd;fill:#FAA21B;}
	.st3{fill-rule:evenodd;clip-rule:evenodd;fill:#00AEEF;}
	.st4{fill-rule:evenodd;clip-rule:evenodd;fill:#CE82B7;}
</style>
<g>
	<path class="st0" d="M448.66,298.61c0,15.65-12.68,28.33-28.33,28.33S392,314.26,392,298.61c0-15.65,12.68-28.33,28.33-28.33
		S448.66,282.96,448.66,298.61L448.66,298.61z"/>
	<path class="st1" d="M403.92,281.18h14.45c0.57,0,1.04,0.47,1.04,1.04v4.4c0.35,0.9,1.23,1.54,2.26,1.54l0.03,0h1.15h0.03v0
		c0.66,0,1.19,0.53,1.19,1.19c0,0.66-0.53,1.19-1.19,1.19v0h-0.03h-1.15l-0.03,0c-1.03,0-1.9,0.64-2.26,1.54v4.34
		c0,0.57-0.47,1.04-1.04,1.04h-14.45c-0.57,0-1.04-0.47-1.04-1.04v-14.2C402.88,281.65,403.35,281.18,403.92,281.18L403.92,281.18z"
		/>
	<path class="st2" d="M437.78,282.22v14.45c0,0.57-0.47,1.04-1.04,1.04h-4.4c-0.9,0.35-1.54,1.23-1.54,2.26l0,0.03v1.15v0.03h0
		c0,0.66-0.53,1.19-1.19,1.19c-0.66,0-1.19-0.53-1.19-1.19h0v-0.03V300l0-0.03c0-1.03-0.64-1.9-1.54-2.26h-4.34
		c-0.57,0-1.04-0.47-1.04-1.04v-3.81h1.39c1.95,0,3.54-1.58,3.54-3.54c0-1.95-1.58-3.54-3.54-3.54l-0.03,0h-1.36v-3.56
		c0-0.57,0.47-1.04,1.04-1.04h14.2C437.31,281.18,437.78,281.65,437.78,282.22L437.78,282.22z"/>
	<path class="st3" d="M436.74,316.04h-14.45c-0.57,0-1.04-0.47-1.04-1.04v-4.4c-0.35-0.9-1.23-1.54-2.26-1.54l-0.03,0h-1.15h-0.03v0
		c-0.66,0-1.19-0.53-1.19-1.19c0-0.66,0.53-1.19,1.19-1.19v0h0.03h1.15l0.03,0c1.03,0,1.9-0.64,2.26-1.54v-4.34
		c0-0.57,0.47-1.04,1.04-1.04h3.81v1.39c0,1.95,1.58,3.54,3.54,3.54c1.95,0,3.54-1.58,3.54-3.54l0-0.03v-1.36h3.56
		c0.57,0,1.04,0.47,1.04,1.04V315C437.78,315.57,437.31,316.04,436.74,316.04L436.74,316.04z"/>
	<path class="st4" d="M403.92,299.76h14.45c0.57,0,1.04,0.47,1.04,1.04v3.56h-1.53c-1.95,0-3.54,1.58-3.54,3.54
		c0,1.95,1.58,3.54,3.54,3.54l0.03,0h1.5V315c0,0.57-0.47,1.04-1.04,1.04h-14.45c-0.57,0-1.04-0.47-1.04-1.04v-14.2
		C402.88,300.22,403.35,299.76,403.92,299.76L403.92,299.76z"/>
</g>
</svg>
