<?xml version="1.0" encoding="utf-8"?>
<!-- Generator: Adobe Illustrator 25.4.1, SVG Export Plug-In . SVG Version: 6.00 Build 0)  -->
<svg version="1.1" id="Слой_1" xmlns="http://www.w3.org/2000/svg" xmlns:xlink="http://www.w3.org/1999/xlink" x="0px" y="0px"
	 viewBox="0 0 56.69 56.69" style="enable-background:new 0 0 56.69 56.69;" xml:space="preserve">
<style type="text/css">
	.st0{fill:#FCDF6B;}
	.st1{fill:#FFFFFF;}
	.st2{fill:#F47920;}
	.st3{fill:#1C75BC;}
</style>
<circle id="XMLID_5_" class="st0" cx="28.33" cy="28.33" r="28.33"/>
<g id="XMLID_1_">
	<path id="XMLID_4_" class="st1" d="M44.07,4.61H23.55c-2.76,0-5.02,2.26-5.02,5.02v5.75c0,2.76,2.26,5.02,5.02,5.02h13.02
		l-2.76,10.33c0,0,6.63-7.52,9.38-10.33h0.88c2.76,0,5.02-2.26,5.02-5.02V9.62C49.09,6.87,46.83,4.61,44.07,4.61z"/>
	<path id="XMLID_2_" class="st2" d="M31.68,34.42l3.51-13.15H23.46c-3.31,0-6-2.69-6-6V9.52c0-3.31,2.69-6,6-6h20.53
		c3.31,0,6,2.69,6,6v5.75c0,3.31-2.69,6-6,6h-0.47c-2.85,2.96-8.99,9.92-9.06,9.99L31.68,34.42z M23.46,5.49
		c-2.22,0-4.03,1.81-4.03,4.03v5.75c0,2.22,1.81,4.03,4.03,4.03h14.31l-2.02,7.54c2.15-2.41,5.03-5.6,6.64-7.24l0.29-0.3h1.3
		c2.22,0,4.03-1.81,4.03-4.03V9.52c0-2.22-1.81-4.03-4.03-4.03H23.46z"/>
	<path id="XMLID_7_" class="st3" d="M38.99,45.5c-0.07-0.76-0.13-1.51-0.49-2.2c-1.97-3.8-8.12-2.69-11.16-5.23l-0.86-0.93
		c0-1.14-0.45-2.88,0.58-3.58c1.11-0.74,1.52-2.19,2.34-3.19c0.57-0.69,1.49-1.09,1.79-1.98c0.46-1.33,0.33-2.83-0.79-3.81
		c-0.07-0.06-0.14-0.12-0.17-0.2c-0.03-0.08-0.01-0.16,0.01-0.24c0.16-0.79,0.36-1.55,0.36-2.36c0-4.47-3.62-8.1-8.1-8.1
		c-4.47,0-8.1,3.63-8.1,8.1c0,0.81,0.2,1.57,0.36,2.36c0.02,0.08,0.03,0.16,0.01,0.24c-0.03,0.08-0.1,0.14-0.17,0.2
		c-1.12,0.97-1.25,2.48-0.79,3.81c0.31,0.89,1.22,1.28,1.79,1.98c0.82,1.01,1.23,2.45,2.34,3.19c1.04,0.69,0.58,2.44,0.58,3.58
		l-0.86,0.93c-3.04,2.54-9.19,1.43-11.16,5.23c-0.36,0.69-0.42,1.45-0.49,2.2c-0.09,0.94-0.4,1.91-0.31,2.86
		c0.35,3.58,6.5,4.76,9.23,5.28c2.49,0.47,5.02,0.61,7.55,0.58c2.53,0.04,5.06-0.11,7.55-0.58c2.73-0.52,8.88-1.69,9.23-5.28
		C39.39,47.41,39.08,46.44,38.99,45.5z"/>
</g>
</svg>
