<?xml version="1.0" encoding="utf-8"?>
<!-- Generator: Adobe Illustrator 25.4.1, SVG Export Plug-In . SVG Version: 6.00 Build 0)  -->
<svg version="1.1" id="Слой_1" xmlns="http://www.w3.org/2000/svg" xmlns:xlink="http://www.w3.org/1999/xlink" x="0px" y="0px"
	 viewBox="0 0 841.89 595.28" style="enable-background:new 0 0 841.89 595.28;" xml:space="preserve">
<style type="text/css">
	.st0{fill:#FCDF6B;}
	.st1{fill-rule:evenodd;clip-rule:evenodd;fill:#BCBEC0;}
	.st2{fill-rule:evenodd;clip-rule:evenodd;fill:#1C75BC;}
	.st3{fill-rule:evenodd;clip-rule:evenodd;fill:#EB5B51;}
	.st4{fill-rule:evenodd;clip-rule:evenodd;fill:#F6A30A;}
</style>
<g>
	<path class="st0" d="M449.66,297.61c0,15.65-12.68,28.33-28.33,28.33S393,313.26,393,297.61c0-15.65,12.68-28.33,28.33-28.33
		S449.66,281.96,449.66,297.61L449.66,297.61z"/>
	<path class="st1" d="M434.34,292.07h1.16c0.23,0,0.43,0.19,0.43,0.43v9.36c0,0.23-0.19,0.43-0.43,0.43h-1.16
		c-0.23,0-0.43-0.19-0.43-0.43v-9.36C433.92,292.26,434.11,292.07,434.34,292.07L434.34,292.07z"/>
	<path class="st1" d="M443.31,287.54L443.31,287.54c0.55,0,1.01,0.45,1.01,1.01v18.07c0,0.55-0.45,1.01-1.01,1.01h0
		c-0.55,0-1.01-0.45-1.01-1.01v-18.07C442.31,287.99,442.76,287.54,443.31,287.54L443.31,287.54z"/>
	<polygon class="st2" points="435.74,292.14 442.74,287.72 442.77,307.46 435.74,302.28 435.74,292.14 	"/>
	<path class="st2" d="M403.47,283.66h26.39c0.11,0,0.2,0.09,0.2,0.2v0.75c0,0.11-0.09,0.2-0.2,0.2h-26.39c-0.11,0-0.2-0.09-0.2-0.2
		v-0.75C403.27,283.75,403.36,283.66,403.47,283.66L403.47,283.66z"/>
	<path class="st1" d="M405.51,284.81h22.54c0.16,0,0.28,0.13,0.28,0.28v1.07c0,0.16-0.13,0.28-0.28,0.28h-22.54
		c-0.16,0-0.28-0.13-0.28-0.28v-1.07C405.23,284.93,405.36,284.81,405.51,284.81L405.51,284.81z"/>
	<path class="st3" d="M410.5,307.15h12.38c0.47,0,0.85,0.38,0.85,0.85v3.23c0,0.47-0.38,0.85-0.85,0.85H410.5
		c-0.47,0-0.85-0.38-0.85-0.85V308C409.65,307.53,410.03,307.15,410.5,307.15L410.5,307.15z"/>
	<polygon class="st4" points="416.73,312.09 417,312.09 421.21,312.09 427.13,318.01 422.93,318.01 418.13,313.21 418.13,318.01 
		415.16,318.01 415.16,313.66 410.8,318.01 406.6,318.01 412.53,312.09 416.73,312.09 	"/>
	<path class="st2" d="M401.42,286.01h30.49c1.17,0,2.14,0.96,2.14,2.14v18.07c0,1.17-0.96,2.14-2.14,2.14h-30.49
		c-1.17,0-2.14-0.96-2.14-2.14v-18.07C399.29,286.97,400.25,286.01,401.42,286.01L401.42,286.01z"/>
	<path class="st1" d="M423.07,301.44h8.06c0.47,0,0.85,0.38,0.85,0.85v3.23c0,0.47-0.38,0.85-0.85,0.85h-8.06
		c-0.47,0-0.85-0.38-0.85-0.85v-3.23C422.21,301.83,422.6,301.44,423.07,301.44L423.07,301.44z"/>
	<path class="st3" d="M402.5,288.31c0.66,0,1.2,0.54,1.2,1.2s-0.54,1.2-1.2,1.2s-1.2-0.54-1.2-1.2S401.84,288.31,402.5,288.31
		L402.5,288.31z"/>
	<path class="st4" d="M406.48,288.37c0.62,0,1.13,0.51,1.13,1.13c0,0.63-0.51,1.13-1.13,1.13c-0.62,0-1.13-0.51-1.13-1.13
		C405.35,288.88,405.85,288.37,406.48,288.37L406.48,288.37z"/>
</g>
</svg>
