<?xml version="1.0" encoding="utf-8"?>
<!-- Generator: Adobe Illustrator 25.4.1, SVG Export Plug-In . SVG Version: 6.00 Build 0)  -->
<svg version="1.1" id="Слой_1" xmlns="http://www.w3.org/2000/svg" xmlns:xlink="http://www.w3.org/1999/xlink" x="0px" y="0px"
	 viewBox="0 0 841.89 595.28" style="enable-background:new 0 0 841.89 595.28;" xml:space="preserve">
<style type="text/css">
	.st0{fill:#FCDF6B;}
	.st1{fill:#1B75BC;}
	.st2{fill:#F47920;}
</style>
<g>
	<path class="st0" d="M448.66,298.61c0,15.65-12.68,28.33-28.33,28.33S392,314.26,392,298.61c0-15.65,12.68-28.33,28.33-28.33
		S448.66,282.96,448.66,298.61L448.66,298.61z"/>
	<path class="st1" d="M401.31,313.52h34.59l-17.09-33.06L401.31,313.52L401.31,313.52z M441.01,314.52h-41.36l20.68-39.06
		L441.01,314.52L441.01,314.52z"/>
	<polygon class="st2" points="401.31,313.52 435.91,313.52 418.82,280.45 401.31,313.52 	"/>
	<path class="st1" d="M402.94,312.59l32.55,0.11l-16.2-31.34L402.94,312.59L402.94,312.59z M441.01,314.52h-41.36l20.68-39.06
		L441.01,314.52L441.01,314.52z"/>
</g>
</svg>
