<?xml version="1.0" encoding="utf-8"?>
<!-- Generator: Adobe Illustrator 25.4.1, SVG Export Plug-In . SVG Version: 6.00 Build 0)  -->
<svg version="1.1" id="Слой_1" xmlns="http://www.w3.org/2000/svg" xmlns:xlink="http://www.w3.org/1999/xlink" x="0px" y="0px"
	 viewBox="0 0 841.89 595.28" style="enable-background:new 0 0 841.89 595.28;" xml:space="preserve">
<style type="text/css">
	.st0{fill:#FCDF6B;}
	.st1{fill:#F58220;}
	.st2{fill-rule:evenodd;clip-rule:evenodd;fill:#1C75BC;}
	.st3{fill-rule:evenodd;clip-rule:evenodd;fill:#FCDF6B;}
	.st4{fill-rule:evenodd;clip-rule:evenodd;fill:#FFCA44;}
	.st5{fill-rule:evenodd;clip-rule:evenodd;fill:#FFC746;}
	.st6{fill-rule:evenodd;clip-rule:evenodd;fill:#FFCD44;}
	.st7{fill-rule:evenodd;clip-rule:evenodd;fill:#FFCB45;}
</style>
<g>
	<path class="st0" d="M448.66,298.61c0,15.65-12.68,28.33-28.33,28.33S392,314.26,392,298.61c0-15.65,12.68-28.33,28.33-28.33
		S448.66,282.96,448.66,298.61L448.66,298.61z"/>
	<path class="st1" d="M445.61,311.41c-0.93,1.82-2.04,3.54-3.33,5.11c-0.56,0.36-0.95,0.79-1.24,1.41
		c-0.26,0.28-0.52,0.55-0.79,0.82l-0.24-0.07c-0.04-0.15-0.04-0.03-0.05-0.2c-0.06,0.11,0.13-0.05-0.07,0.05c0,0-0.01,0-0.01,0
		c0,0-0.01,0.04-0.02,0.11c-0.27-0.1-0.49-0.08-0.74-0.25c0-0.33,0.29-0.99,0.44-1.32c0.16-0.33,0.25-0.55,0.54-0.83l0.32-0.33
		l2.35-1.49c0.56-0.38,0.87-0.74,1.09-1.35c0.03-0.08,0.05-0.16,0.07-0.26c0.04-0.26,0.08-0.69,0.02-0.91
		c-0.17-0.63-0.41-1.07-1.07-1.34c-0.11-0.05-0.15-0.07-0.25-0.11c-0.81-0.33-1.76-0.3-2.44,0.3l-0.46,0.58
		c-0.03,0.05-0.08,0.16-0.11,0.21c-0.54,1.2-0.1,1.05-1.52,0.69c-0.36-0.09-0.52-0.09-0.46-0.36c0.01-0.04,0.04-0.1,0.05-0.17
		l0.53-1.16c0.15-0.23,0.07-0.15,0.26-0.38c0.63-0.76,1.52-1.38,2.56-1.43c0.54-0.02,0.09-0.04,0.72,0
		c0.67,0.05,1.68,0.27,2.26,0.69c0.6,0.44,0.63,0.38,1.09,0.99C445.32,310.7,445.49,311.05,445.61,311.41L445.61,311.41z"/>
	<path class="st1" d="M397.54,281.77c0.6-0.81,1.24-1.59,1.93-2.33l0.04,0.43c0.03,0.31,0.27,1.19,0.27,1.31l-0.99,0.27
		c-0.12,0.04-0.19,0.05-0.32,0.07L397.54,281.77L397.54,281.77z"/>
	<path class="st1" d="M398.1,302.55c0.16-0.01,0.41-0.11,0.6-0.15l0.43-0.11c0.15-0.05,0.07,0.02,0.12-0.1l-0.01-0.2
		c-0.01-0.07-0.03-0.18-0.04-0.25c-0.08-0.51-0.04-0.99,0.22-1.4c0.3-0.48,1.79-1.21,2.62-0.32c1.12,1.2,0.05,2.32-0.48,3.39
		c-0.17,0.35-0.35,0.77-0.36,1.18c-0.01,0.63,0.07,0.95,0.18,1.44c0.28,0,0.41-0.08,0.62-0.14c0.1-0.03,0.2-0.05,0.29-0.07
		c0.4-0.09,0.29-0.04,0.2-0.54c-0.1-0.61-0.13-0.91,0.21-1.56l0.46-0.8c0.53-0.97,1-1.64,0.46-2.85c-0.19-0.42-0.5-0.85-0.88-1.1
		c-1.03-0.68-2.02-0.57-3.12-0.13c-0.16,0.07-0.47,0.24-0.59,0.34c-0.35,0.3-0.65,0.62-0.83,1.07c-0.1,0.26-0.18,0.43-0.22,0.75
		C397.91,301.41,397.91,302.16,398.1,302.55L398.1,302.55z"/>
	<path class="st1" d="M394.36,291.78v0.4l0.31-0.01c0.79,0.03,0.61,0.15,0.73-0.64c0.03-0.21,0.12-0.42,0.24-0.59
		c0.13-0.18,0.27-0.29,0.48-0.38c0.81-0.36,1.98-0.01,1.98,1.05c0,0.8-0.34,1.04-0.84,1.54c-0.36,0.37-0.32,0.27-0.69,0.78
		c-0.12,0.16-0.18,0.31-0.25,0.5c-0.08,0.21-0.17,0.93-0.15,1.04c0.02,0.07-0.02,0.09,0.1,0.09h0.9c0-0.72,0.07-1.07,0.53-1.56
		c0-0.01,0.01-0.01,0.02-0.02c0.31-0.33,0.75-0.74,1.02-1.06c0.54-0.64,0.52-1.46,0.2-2.18c-0.22-0.49-0.77-0.91-1.28-1.06
		c-0.56-0.16-1.3-0.14-1.82,0.05c-0.55,0.2-0.96,0.6-1.22,1.12C394.53,291.01,394.36,291.55,394.36,291.78L394.36,291.78z"/>
	<path class="st1" d="M403.02,276.18c0.4-0.31,0.81-0.61,1.22-0.9c-0.06,0.07-0.11,0.16-0.15,0.25c-0.27,0.65-0.07,0.87-0.03,1.34
		c-0.11,0.05-0.79,0.24-0.93,0.25C403.01,276.62,403.02,276.59,403.02,276.18L403.02,276.18z M404.8,274.91
		c0.39-0.25,0.78-0.5,1.17-0.73h0.67c0.18,0,0.62,0.49,0.75,0.72c1.04,1.8-0.82,2.64-0.82,3.99c0,0.22,0.08,0.69,0.14,0.83
		c-0.33,0.03-0.63,0.22-0.97,0.22c0-0.18-0.08-0.37-0.1-0.54c-0.03-0.21-0.06-0.36-0.04-0.59c0.1-1.06,1.07-1.91,1.07-2.63
		c0-0.99-0.69-1.61-1.7-1.31C404.92,274.87,404.86,274.89,404.8,274.91L404.8,274.91z"/>
	<path class="st1" d="M397.78,284.2l0.79,3.02c0.22,0,0.55-0.12,0.72-0.18l1.82-0.48c0.05-0.01,0.1-0.03,0.17-0.05
		c0.07-0.02,0.18,0,0.17-0.15c0,0-0.01-0.07-0.01-0.08c-0.07-0.29-0.7-2.69-0.79-2.85c-0.13,0.01-0.23,0.05-0.35,0.08
		c-0.13,0.04-0.25,0.06-0.37,0.1L397.78,284.2L397.78,284.2z"/>
	<path class="st1" d="M444.1,290.93c-0.36,0.13-0.7,0.23-1.01,0.45c-0.31,0.22-0.21,0.14-0.46,0.4c-0.09,0.1-0.68,0.78-0.65,0.93
		c0.01,0.06,0.63,0.44,0.77,0.52c0.5,0.3,0.26,0.08,0.84-0.52c0.53-0.55,0.81-0.56,1.52-0.77c0.2-0.06,0.38-0.07,0.57-0.12
		c0.72-0.22,1.34-0.26,1.85-0.81l-0.6-1.69c-0.05,0.08-0.08,0.21-0.14,0.33c-0.05,0.09-0.13,0.21-0.2,0.3
		C445.98,290.7,444.91,290.64,444.1,290.93L444.1,290.93z"/>
	<path class="st1" d="M435.63,302.23c0,0.12,0.11,0.12,0.31,0.2c0.33,0.13,0.41,0.21,0.51,0.02c0.09-0.17,0.15-0.33,0.32-0.51
		c0.44-0.46,1.01-0.42,1.52-0.07c0.6,0.41,0.48,1.25-0.09,1.68c-0.4,0.3-1.1,0.36-1.74,0.99c-0.14,0.14-0.46,0.65-0.48,0.89
		c0.15,0.08,0.58,0.28,0.79,0.29c0.13-0.57,0.56-0.9,1.04-1.11c0.18-0.08,0.34-0.13,0.53-0.23c0.37-0.19,0.6-0.26,0.86-0.57
		c0.42-0.49,0.46-1.29,0.17-1.87c-0.13-0.25-0.26-0.37-0.45-0.55c-0.27-0.25-0.94-0.55-1.46-0.55
		C436.4,300.83,435.63,301.84,435.63,302.23L435.63,302.23z"/>
	<path class="st1" d="M427.66,315.74c0.17,0.08,0.53,0.11,0.79,0.11c0.08,0,0.07-0.12,0.09-0.2c0.15-0.69,0.39-1.06,1.17-1.06
		c0.32,0,0.61,0.1,0.78,0.26c0.39,0.35,0.43,1.06-0.11,1.6c-0.11,0.11-0.2,0.18-0.33,0.28c-0.37,0.29-0.73,0.56-0.94,0.96
		c-0.12,0.22-0.26,0.68-0.26,0.99c0.18,0.09,0.55,0.11,0.83,0.11c0.09-0.41,0.09-0.67,0.33-0.96c0.66-0.77,1.68-1.01,1.68-2.2
		c0-0.47-0.23-1.02-0.57-1.3C429.9,313.36,427.82,313.76,427.66,315.74L427.66,315.74z"/>
	<path class="st1" d="M436.84,275.58c0.29,0.21,0.57,0.42,0.85,0.64c-0.09,0.2-0.22,0.4-0.37,0.59c-0.27,0.33-0.72,0.58-1.19,0.61
		c-0.31,0.01-0.52,0.04-0.86,0.04c-0.28,0-0.65-0.01-0.87,0.02c-0.66,0.11-0.78,0.42-1.14,0.66c-0.13-0.07-0.43-0.37-0.56-0.52
		c-0.12-0.14-0.08,0.02-0.08-0.13c0-0.15,0.29-0.35,0.41-0.45c1.27-0.95,2.34-0.19,3.26-0.73
		C436.58,276.15,436.76,275.89,436.84,275.58L436.84,275.58z"/>
	<path class="st1" d="M402.45,320.58c-0.21-0.17-0.41-0.34-0.62-0.52c0.09-0.14,0.21-0.27,0.34-0.4c0.18-0.18,0.4-0.37,0.56-0.56
		c0.16-0.19,0.33-0.44,0.33-0.78c0-1.15-1.14-1.16-1.62-0.94c-0.09,0.04-0.12,0.06-0.19,0.13l-0.15,0.17
		c-0.25,0.34-0.17,0.56-0.27,0.99c-0.08,0-0.29,0.01-0.48,0.01c-0.1-0.1-0.2-0.2-0.3-0.31c0.2-2.55,3.87-2.27,3.87-0.13
		c0,0.77-0.33,1.03-0.87,1.57C402.75,320.12,402.56,320.33,402.45,320.58L402.45,320.58z"/>
	<path class="st1" d="M445.35,286.01c0.22,0.23,0.43,0.46,0.65,0.7l0.33,0.92c-0.1-0.03-0.25-0.15-0.35-0.21
		c-1.51-0.89-2.41,0.88-2.59,0.94c-0.12,0.04-1.03-0.53-1.07-0.65c-0.04-0.11,0.23-0.41,0.3-0.5c0.35-0.47,0.95-0.89,1.57-1.11
		C444.59,285.95,444.97,285.96,445.35,286.01L445.35,286.01z"/>
	<path class="st1" d="M395.23,310.95c-0.24-0.3-0.47-0.61-0.69-0.92c0.03-0.19,0.03-0.38-0.02-0.62c-0.1-0.48-0.43-0.68-0.5-0.77
		c-0.02-0.02-0.03-0.05-0.05-0.09l-0.22-1.04c0.2-0.02,0.49,0.1,0.65,0.17c0.58,0.26,1.03,0.84,1.18,1.54
		C395.67,309.64,395.39,310.48,395.23,310.95L395.23,310.95z"/>
	<path class="st1" d="M439.07,319.86c-0.18,0.16-0.36,0.32-0.55,0.47c0.06-0.26,0.14-0.53,0.27-0.53
		C438.82,319.8,438.92,319.82,439.07,319.86L439.07,319.86z"/>
	<path class="st1" d="M418.27,272.97c0.25,0.17,0.91,0.33,1.23,0.39l0.13,0.01c0.2-0.01,0.23-0.35,0.32-0.7
		c0.06-0.25,0.17-0.53,0.19-0.78c-0.17-0.11-1.24-0.39-1.4-0.39c-0.14,0-0.12,0.17-0.16,0.31
		C418.5,272.07,418.28,272.76,418.27,272.97L418.27,272.97z"/>
	<path class="st1" d="M441.77,295.64c0.1-0.06,0.82-1.13,0.77-1.26c-0.05-0.13-0.44-0.32-0.57-0.4c-0.78-0.49-0.5-0.53-1.19,0.55
		c-0.23,0.37-0.37,0.34,0.35,0.74C441.34,295.39,441.55,295.56,441.77,295.64L441.77,295.64z"/>
	<path class="st1" d="M401.65,307.08c0,0.2,0.28,1.23,0.36,1.4c0.22-0.05,0.44-0.1,0.66-0.17c0.76-0.22,0.72-0.03,0.47-0.89
		c-0.07-0.24-0.11-0.47-0.2-0.66c-0.17,0-0.46,0.1-0.64,0.15C402.16,306.95,401.81,307.07,401.65,307.08L401.65,307.08z"/>
	<path class="st1" d="M431.22,278.81c0.08,0.15,0.19,0.24,0.34,0.38c0.43,0.41,0.29,0.52,0.82-0.01c0.16-0.16,0.23-0.22,0.35-0.4
		l-0.32-0.37c-0.1-0.1-0.3-0.24-0.33-0.35c-0.22,0-0.16,0-0.27,0.12c-0.07,0.07-0.13,0.12-0.2,0.19L431.22,278.81L431.22,278.81z"/>
	<path class="st1" d="M396.16,297.56h1.08c0.01-0.14,0.01-0.09,0.01-0.19l-0.01-0.96h-1.08V297.56L396.16,297.56z"/>
	<path class="st1" d="M405.97,280.79c0.04,0.09,0.28,0.96,0.29,1.08c0.19,0,0.82-0.19,1.08-0.25c-0.07-0.15-0.1-0.35-0.15-0.53
		c-0.04-0.14-0.12-0.38-0.14-0.55C406.7,280.54,406.31,280.76,405.97,280.79L405.97,280.79z"/>
	<path class="st1" d="M435.38,306.9c0,0.11,0.06,0.1,0.15,0.14c0.08,0.03,0.14,0.05,0.21,0.08c0.63,0.25,0.47,0.17,0.66-0.24
		c0.05-0.11,0.16-0.36,0.17-0.48c-0.08-0.04-0.73-0.32-0.79-0.32c-0.13,0-0.17,0.2-0.23,0.38
		C435.52,306.54,435.38,306.86,435.38,306.9L435.38,306.9z"/>
	<path class="st1" d="M428.7,319.92c0.08,0.05,0.07-0.06,0.06,0.05c-0.06,0.08,0.08,0.04-0.1,0.07c0,0.35-0.06,0.3,0.27,0.34
		c0.22,0.03,0.4,0.05,0.63,0.05c0.04-0.18,0.05-0.37,0.08-0.57c0.03-0.29,0.15-0.38-0.2-0.42c-0.81-0.11-0.69-0.04-0.72,0.15
		C428.71,319.67,428.7,319.8,428.7,319.92L428.7,319.92z"/>
	<path class="st1" d="M420.24,270.7c0.13,0,0.15-0.18,0.18-0.29h-1.29C419.18,270.45,420.02,270.7,420.24,270.7L420.24,270.7z"/>
	<path class="st1" d="M434.69,274.18l0.08,0.05c-0.11,0.11-0.36,0.29-0.46,0.35c-0.07-0.06-0.13-0.12-0.21-0.19
		c-0.08-0.08-0.12-0.09-0.15-0.21H434.69L434.69,274.18z"/>
	<path class="st1" d="M439.85,318.65c0.08,0.02,0.06,0.03,0.16,0.04c-0.04-0.15-0.04-0.03-0.05-0.2c-0.06,0.11,0.13-0.05-0.07,0.05
		c0,0-0.01,0-0.01,0C439.87,318.54,439.87,318.58,439.85,318.65L439.85,318.65z"/>
	<path class="st1" d="M428.67,320.05c0.18-0.03,0.03,0.01,0.1-0.07c0.01-0.11,0.01,0-0.06-0.05L428.67,320.05L428.67,320.05z"/>
	<path class="st2" d="M424.56,276.33l-3.85-0.59c-0.15-0.01-0.13-0.04-0.31-0.04c-0.12,0-0.24,0.01-0.36,0
		c-0.17-0.01-0.14-0.03-0.31-0.04c-0.44-0.02-0.93,0-1.38,0l-3.2,0.26c-0.34,0.06-0.35-0.06-0.49,0.21l0.07,0.08
		c0.09,0.06,0.64,0.1,0.93,0.17l0.96,0.3c-1.86,0-3.59,0.07-5.09,0.45c-1.13,0.28-1.98,0.54-2.98,1.15
		c-0.29,0.18-0.61,0.34-0.77,0.64c0.16,0.18,0.31,0.16,0.55,0.16c-0.06,0.05,0.04-0.01-0.07,0.05l-0.23,0.12
		c-0.13,0.06-0.18,0.09-0.3,0.17l-0.63,0.36c-0.46,0.27-0.87,0.56-1.27,0.89c-0.06,0.05-0.06,0.06-0.13,0.11
		c-0.11,0.08-0.14,0.14-0.25,0.23l-0.77,0.69l-0.64,0.81c-0.18,0.27-0.41,0.58-0.54,0.87c-0.62,1.34-0.84,2.82-1.02,4.28
		c-0.04,0.3-0.08,0.56-0.08,0.9l0.16,0.08c0.23-0.12,0.26-0.37,0.39-0.75c0.26-0.78,0.64-1.43,1.1-2.08
		c0.02-0.02,0.03-0.06,0.07-0.09c0.07-0.06,0.02-0.03,0.09-0.03c-0.31,0.69-0.59,2.16-0.66,2.87l-0.16,1.65
		c-0.05,0.42,0,4.73,0,5.38c0,0.95-0.39,1.91-0.96,2.65c-0.13,0.18-0.25,0.3-0.39,0.48l-1.28,1.44c-0.28,0.33-0.6,0.63-0.76,1.05
		c-0.28,0.73,0.05,1.54,0.64,1.92c0.37,0.24,0.78,0.41,1.15,0.66c0.17,0.11,0.43,0.23,0.54,0.36c0.32,0.4,0.2,0.93,0.12,1.47
		c-0.06,0.4,0,0.65,0.19,0.9c0.03,0.04,0.06,0.08,0.1,0.13c0.37,0.42-0.05,0.5-0.16,0.92c-0.13,0.51,0.34,0.7,0.37,1.03
		c0.09,1.05-0.64,3.36,0.62,4.49l0.52,0.42c1.08,0.81,2.52,0.97,3.89,0.86l1.89-0.08c0.49,0,2.03,0.4,2.25,0.62
		c0.11,0.11,0.16,0.12,0.26,0.22c0.61,0.57,0.9,1.41,1.27,2.15l0.3,0.68c0.06,0.14,0.09,0.2,0.14,0.33
		c0.04,0.11,0.08,0.21,0.13,0.34c0.37,0.95,0.8,2.83,0.93,3.9c0.05,0.4,0.11,0.87,0.19,1.3c1.15,0.21,2.37,0.35,3.64,0.39h1.8
		c4.1-0.14,7.72-1.23,10.13-2.88c-0.15-0.29-0.29-0.59-0.42-0.91c-0.38-0.94-0.67-1.97-0.92-2.97c-0.06-0.26-0.13-0.55-0.19-0.79
		c-0.07-0.27-0.15-0.51-0.2-0.78c-0.17-0.85-0.39-1.66-0.39-2.55c0-0.24-0.05-0.24-0.06-0.4c-0.01-0.14,0.03-0.3,0.14-0.38
		c-0.04,0.17,0.07,0.42,0.12,0.59c0.07,0.21,0.06,0.38,0.31,0.44l0.15-0.12c0.02-0.33,0.12-0.77,0.12-1.05
		c0.21,0.13,0.09,0.56,0.35,0.63c0.32,0.08,0.36-0.69,0.4-0.89c0.22-1.05,0.59-2.15,1.34-2.95l0.29-0.34
		c0.08-0.11,0.08-0.1,0.16-0.19c0.26-0.27,0.33-0.54,0.47-0.87c0.23-0.55,0.48-0.74,0.81-1.19c0.09-0.12,0.23-0.26,0.34-0.33
		c-0.01,0.14-0.06,0.23-0.09,0.38c-0.04,0.14-0.06,0.24-0.09,0.39c-0.05,0.23-0.13,0.62-0.13,0.85h0.04c0-0.18,0.34-0.79,0.43-0.98
		c0.28-0.57,1.04-1.36,1.5-1.84c0.1-0.1,0.11-0.15,0.22-0.26l1.59-1.75c0.27-0.36,0.54-0.75,0.74-1.14l0.34-0.64
		c0.23-0.46,0.4-0.9,0.52-1.4l0.31-1.65c0.09,0.58,0.45,1.08,0.71,1.57c0.42,0,0.33-0.18,0.26-0.53c-0.11-0.56-0.05-1.15,0.03-1.69
		l0.35-2.08c0.08-0.42,0.26-1.42,0.26-1.86c0-0.14,0-0.16,0.02-0.29c0.05-0.31,0.08-2.15,0.05-2.38c-0.01-0.12-0.03-0.08-0.04-0.24
		l-0.08-0.87c-0.06-0.67-0.21-1.37-0.45-1.99c-0.12-0.3-0.21-0.6-0.34-0.88c-0.43-0.96-0.81-1.97-1.41-2.83
		c-0.05-0.06-0.08-0.11-0.13-0.18c-0.06-0.08-0.09-0.09-0.14-0.17c0.25-0.12,0.18-0.04,0.38-0.24c0.08-0.08,0.07-0.08,0.14-0.17
		c0.06-0.08,0.09-0.09,0.14-0.17c0.12-0.19,0.3-0.61,0.15-0.86c-0.05-0.08-0.11-0.14-0.26-0.13c-0.18,0.01-0.39,0.12-0.59,0.12
		c-0.61,0-1.19-0.34-1.62-0.7c-0.11-0.09-0.19-0.1-0.27-0.21c0.63-0.3,1.57,0.45,1.85,0.47l0.08-0.08c0.17-0.27-0.18-0.63-0.34-0.8
		l-0.53-0.49c-0.66-0.5-1.51-0.79-2.35-0.6c0-1.06-0.38-1.87-0.97-2.65c-0.1-0.13-0.53-0.63-0.69-0.65
		c-0.37-0.04,0.13,0.68,0.19,0.88c0.05,0.19,0.13,0.57,0.13,0.77c-0.2-0.23-0.51-0.99-0.91-1.44c-0.37-0.42-0.76-0.83-1.26-1.1
		c-0.36-0.19-0.33-0.32-0.61-0.17c0,0.27,0.25,0.35,0.39,0.55c0.12,0.18,0.24,0.43,0.31,0.68c0.27,1.17-0.98,0.28-1.39-0.02
		l-0.35-0.24c-0.52-0.26-1.84-0.86-2.39-0.99c-0.81-0.2-1.59-0.32-2.44-0.46c-0.91-0.16-2.16-0.18-3.09,0.05
		c-0.2,0.05-0.25,0.02-0.27,0.24c0.19,0.12,1.01,0.2,1.55,0.38c0.46,0.15,0.93,0.31,1.35,0.54c0.01,0,0.02,0.01,0.02,0.01
		C424.54,276.32,424.55,276.32,424.56,276.33L424.56,276.33z"/>
	<path class="st3" d="M423.14,281.59c-0.66,0-1.24,0.12-1.87,0.27c-0.08-0.14-0.16-0.26-0.24-0.41l-0.79-1.27
		c-0.21,0.05-1.88,1.07-2.18,1.25c-0.13,0.08-0.22,0.13-0.36,0.21c-0.52,0.32-0.44,0.2,0.1,1.13l0.5,0.88
		c-0.18,0.12-0.31,0.3-0.44,0.47c-0.05,0.07-0.08,0.12-0.13,0.18c-0.18,0.23-0.36,0.46-0.5,0.72c-0.34-0.03-1.01-0.28-1.38-0.37
		l-0.49-0.12c-0.17,0.26-0.42,1.35-0.52,1.69c-0.09,0.3-0.16,0.56-0.25,0.86c-0.08,0.26-0.22,0.59-0.22,0.88
		c0.33,0.08,0.65,0.19,0.98,0.27c0.15,0.04,0.31,0.08,0.48,0.13c0.16,0.05,0.36,0.11,0.52,0.13c0,0.33,0.03,0.6,0.07,0.88
		c0.03,0.24,0.06,0.58,0.16,0.8l-1.71,0.99c0,0.28,0.29,0.62,0.44,0.86c0.12,0.2,0.31,0.59,0.48,0.74
		c-0.19-0.01-0.38-0.08-0.56-0.12c-0.17-0.04-0.36-0.09-0.56-0.13l-0.8-0.19c-0.16-0.04-0.13-0.04-0.25-0.01
		c0,0.21-0.08,0.43-0.13,0.63c-0.05,0.21-0.13,0.39-0.14,0.63c-0.24,0-0.48,0.02-0.7,0.06c-0.24,0.04-0.46,0.11-0.67,0.13
		c-0.04-0.18-0.65-1.18-0.72-1.18c-0.05,0-0.19,0.09-0.25,0.13l-0.79,0.47c-0.11,0.06-1.02,0.56-1.02,0.62
		c0,0.16,0.56,1.02,0.69,1.26c-0.13,0.09-0.78,0.95-0.8,0.95c-0.21,0-0.73-0.18-0.97-0.25c-0.13-0.04-0.21-0.07-0.33-0.09
		c-0.09,0.17-0.13,0.39-0.19,0.58c-0.07,0.21-0.11,0.39-0.18,0.62c-0.07,0.22-0.12,0.39-0.18,0.62c-0.06,0.23-0.13,0.42-0.18,0.63
		c0.31,0.16,1.06,0.34,1.41,0.42c0.03,0.35,0.05,0.88,0.19,1.18c-0.11,0.06-0.17,0.1-0.29,0.17c-0.25,0.13-0.69,0.46-0.93,0.52
		c0,0.26,0.44,0.87,0.58,1.1l0.32,0.52c0.1,0.17,0.27,0.36,0.32,0.56c0.24-0.01,0.4-0.2,0.6-0.32l0.58-0.37l0.37,0.32
		c0.06,0.05,0.07,0.07,0.14,0.13l0.59,0.4c-0.1,0.21-0.34,1.13-0.34,1.33c0.18,0.09,0.35,0.11,0.56,0.16
		c0.18,0.05,0.38,0.11,0.58,0.15c0.42,0.09,0.79,0.26,1.22,0.26c0.02-0.19,0.11-0.45,0.16-0.64c0.05-0.18,0.1-0.45,0.18-0.62
		c0.7,0,0.93-0.15,1.45-0.19c0.04,0.15,0.17,0.37,0.24,0.52c0.09,0.18,0.21,0.32,0.25,0.51c0.32,0,0.98-0.45,1.3-0.61
		c0.24-0.12,0.5-0.32,0.76-0.38c-0.01-0.35-0.57-0.95-0.57-1.18l0.49-0.54c0.1-0.12,0.35-0.48,0.39-0.64
		c0.11,0.01,0.17,0.04,0.28,0.06c0.28,0.05,0.57,0.08,0.82,0.21l-0.04,2.4c0.27,0.13,1.26-0.06,1.46,0.07
		c0.04,0.02,0.31,0.81,0.49,1.08l-0.14,0.13c-0.19,0.19,0.17-0.15-0.04,0.04l-0.21,0.21c-0.01,0.01-0.01,0.01-0.02,0.02l-0.1,0.09
		c-0.51,0.46-0.65,0.47-0.24,0.83c0.01,0.01,0.01,0.01,0.02,0.02l0.6,0.58c0.08,0.08,0.12,0.13,0.21,0.21
		c0.01,0.01,0.01,0.01,0.02,0.02c0.7,0.58,0.57,0.82,0.93,0.39c0.07-0.09,0.15-0.14,0.23-0.23c0.12-0.14,0.37-0.36,0.41-0.5
		c0.26,0.02,0.83,0.49,1.3,0.5v1.3c0,0.2,0.47,0.11,0.61,0.11c0.25,0,1.63,0.04,1.87-0.08v-1.3c0.12-0.03,0.23-0.05,0.35-0.1
		l0.94-0.43c0.14,0.1,0.78,0.84,0.84,0.84c0.19,0,0.42-0.32,0.55-0.44c0.01-0.01,0.03-0.03,0.04-0.04c0.01-0.01,0.01-0.01,0.02-0.02
		c1.23-1.17,1.27-0.92,0.65-1.54c-0.15-0.15-0.32-0.28-0.43-0.45c0.44-0.84,0.42-1.05,0.57-1.37c0.29,0,0.42-0.04,0.69-0.04
		c0.88,0.01,0.57-0.05,0.57-0.95l-0.04-0.99c0-0.61,0.02-0.42-1.22-0.42c-0.1-0.21-0.14-0.48-0.23-0.69
		c-0.33-0.72-0.5-0.49,0.09-1.02l0.41-0.39c-0.19-0.28-1.57-1.47-1.64-1.72c-0.13,0.03-0.22,0.15-0.33,0.24
		c-0.49,0.46-0.42,0.64-0.87,0.38c-0.34-0.19-0.82-0.27-1.09-0.4v-0.95l2.39-1.27c0.13-0.07,0.21-0.14,0.36-0.18
		c0-0.21-0.09-0.28-0.09-0.29l-0.75-1.31l0.7-0.79c0.07-0.09,0.08-0.09,0.15-0.19l0.45-0.69c0.53,0.01,1.17,0.34,1.79,0.34
		c0.12-0.52,0.24-1.02,0.35-1.55c0.05-0.23,0.12-0.53,0.18-0.77c0.03-0.12,0.05-0.24,0.08-0.37c0.03-0.12,0.07-0.27,0.07-0.43
		l-1.17-0.31c-0.12-0.03-0.3-0.1-0.43-0.11c0-1.01-0.26-1.78-0.27-2.06c1.63-0.86,1.5-0.57,1.09-1.27c-0.24-0.4-1.26-2.1-1.32-2.35
		c-0.3,0.03-0.82,0.41-1.12,0.56c-0.15,0.07-0.24,0.13-0.37,0.2c-0.13-0.19-0.36-0.37-0.54-0.52c-0.34-0.29-0.74-0.52-1.13-0.73
		c0.01-0.16,0.07-0.3,0.11-0.43c0.11-0.41,0.35-0.98,0.35-1.4c-0.13-0.06-0.25-0.07-0.39-0.11c-0.15-0.04-0.24-0.06-0.4-0.1
		c-0.47-0.11-2.14-0.56-2.49-0.56c-0.02,0.27-0.14,0.63-0.21,0.9C423.28,281,423.17,281.28,423.14,281.59L423.14,281.59z
		 M418.8,288.65c0-0.91,0.03-1.39,0.46-2.25c0.11-0.23,0.25-0.45,0.41-0.66c0.64-0.85,1.58-1.4,2.61-1.66
		c0.12-0.03,0.33-0.07,0.45-0.08c0.09-0.01,0.18,0.01,0.26,0c0.43-0.05,0.04-0.05,0.46,0c0.3,0.03,0.14-0.04,0.72,0.08
		c0.39,0.08,0.84,0.25,1.17,0.43c0.09,0.05,0.1,0.06,0.17,0.1c0.24,0.15,0.74,0.52,0.89,0.71c0.35,0.43,0.46,0.46,0.78,1.08
		c0.81,1.57,0.55,3.61-0.62,4.91c-0.07,0.08-0.05,0.08-0.11,0.15l-0.28,0.25c-0.07,0.05-0.08,0.07-0.14,0.13
		c-1.4,1.19-3.61,1.34-5.24,0.27c-0.64-0.42-1.33-1.2-1.62-1.92c-0.03-0.08-0.05-0.11-0.08-0.18
		C418.93,289.64,418.8,289.06,418.8,288.65L418.8,288.65z M423.33,289.83c-0.45,0-0.84-0.18-1.08-0.41c-1-0.97-0.31-2.56,1.04-2.56
		c0.81,0,1.46,0.69,1.48,1.45c0.01,0.42-0.21,0.83-0.42,1.06C424.16,289.57,423.72,289.83,423.33,289.83L423.33,289.83z
		 M419.6,288.38c0,1.98,1.64,3.54,3.51,3.54c3.52,0,4.95-3.95,2.79-6.11c-1.42-1.42-3.77-1.43-5.24,0.04
		C420,286.5,419.6,287.37,419.6,288.38L419.6,288.38z M410.22,298.48c0-0.51,0.14-1.16,0.39-1.56c0.25-0.4,0.14-0.29,0.54-0.68
		c0.3-0.3,0.51-0.46,0.9-0.66c2.05-1.02,4.5,0.62,4.5,2.71c0,1.16-0.42,2.13-1.36,2.75c-0.09,0.06-0.14,0.1-0.24,0.15
		c-0.08,0.04-0.16,0.09-0.25,0.13l-0.57,0.19c-1.06,0.27-2.19-0.07-2.95-0.83C410.61,300.11,410.22,299.33,410.22,298.48
		L410.22,298.48z M413.42,297.34c0.95,0,1.4,1.11,0.78,1.77c-0.65,0.71-1.92,0.18-1.84-0.77
		C412.41,297.76,412.89,297.34,413.42,297.34L413.42,297.34z M410.79,298.44c0,2.02,2.39,3.24,4.08,2.06
		c0.05-0.04,0.12-0.09,0.17-0.13c2-1.63,0.73-4.56-1.59-4.56c-1.05,0-1.95,0.6-2.43,1.54C410.91,297.58,410.79,298.11,410.79,298.44
		L410.79,298.44z M421.73,302.33c0-0.52,0.01-0.79,0.21-1.28c0.05-0.13,0.09-0.16,0.15-0.27c0.21-0.39,0.12-0.25,0.37-0.58
		c0.31-0.39,0.23-0.24,0.5-0.49c0.07-0.07,0.14-0.12,0.22-0.16c0.18-0.1,0.33-0.19,0.53-0.27c0.38-0.15,0.79-0.24,1.34-0.23
		c0.58,0.01,1.26,0.29,1.71,0.61c0.09,0.06,0.11,0.11,0.21,0.18c0.56,0.42,0.85,1.1,1.01,1.77c0.14,0.57,0.04,1.37-0.23,1.91
		c-0.55,1.1-1.6,1.87-2.83,1.85c-0.11,0-0.47-0.01-0.64-0.06c-0.51-0.13-0.92-0.27-1.34-0.6c-0.08-0.06-0.14-0.13-0.22-0.2
		C422.17,304.04,421.73,303.07,421.73,302.33L421.73,302.33z M424.93,303.2c-0.95,0-1.41-1.09-0.78-1.77
		c0.62-0.67,1.81-0.25,1.81,0.71c0,0.43-0.27,0.82-0.6,0.96C425.29,303.12,425.03,303.2,424.93,303.2L424.93,303.2z M422.3,301.95
		v0.38c0,2.48,3.66,3.45,4.94,0.9c0.41-0.82,0.33-1.82-0.19-2.57c-0.66-0.97-1.99-1.35-3.07-0.91c-0.41,0.17-0.57,0.29-0.89,0.56
		c-0.07,0.06-0.16,0.18-0.24,0.26C422.64,300.81,422.3,301.49,422.3,301.95L422.3,301.95z M415.98,293.1l0.5,0.83
		c0.24,0.38,0.16,0.3,1.18-0.37c0.08-0.05,0.13-0.08,0.21-0.13c0.14-0.09,0.26-0.17,0.39-0.26c0.05,0.07,0.07,0.1,0.14,0.16
		l0.45,0.39c0.06,0.04,0.05,0.05,0.1,0.09c0.24,0.2,0.56,0.4,0.83,0.54c-0.07,0.3-0.15,0.6-0.24,0.9c-0.09,0.3-0.21,0.69-0.21,1
		c0.14,0.07,0.58,0.16,0.79,0.21c0.29,0.07,0.56,0.14,0.82,0.21c0.28,0.07,1.45,0.38,1.63,0.39l0.5-1.79c0.74,0,1.12-0.04,1.81-0.22
		c0.33-0.08,0.26,0.06,0.64,0.77c0.06,0.11,0.11,0.15,0.14,0.28l-2.13,0.08l0.04,1.33c-0.21,0.02-0.71,0.24-0.92,0.34
		c-0.4,0.2-0.19,0.29-0.79-0.31l-0.37-0.35c-0.23-0.22-0.28-0.04-0.62,0.29c-0.16,0.16-0.28,0.28-0.44,0.44l-0.62,0.63
		c-0.08,0.09-0.14,0.16-0.21,0.25l0.49,0.51c0.16,0.16,0.39,0.36,0.5,0.52l-0.46,1.11c-0.13,0.01-0.15,0.04-0.3,0.01l-0.66,0
		c-0.08-0.01-0.14-0.01-0.22-0.01c0.04-0.16,0.07-0.33,0.12-0.49l0.23-1.03c0.1-0.64,0.34-0.54-0.42-0.73
		c-0.18-0.05-0.43-0.14-0.61-0.15c0-0.94-0.16-1.11-0.19-1.49l0.99-0.5c-0.03-0.15-0.19-0.33-0.28-0.52l-0.9-1.58
		c-0.21,0.11-0.87,0.5-1.03,0.53c-0.19-0.13-0.81-0.75-1.18-0.84c0-0.17,0.01-0.16,0.05-0.29c0.03-0.1,0.04-0.17,0.07-0.27
		C415.83,293.46,415.88,293.23,415.98,293.1L415.98,293.1z"/>
	<polygon class="st4" points="420.31,298.59 420.31,298.63 420.36,298.59 420.31,298.59 	"/>
	<polygon class="st5" points="420.36,298.63 420.36,298.59 420.31,298.62 420.36,298.63 	"/>
	<path class="st6" d="M420.32,298.62c0,0,0.01-0.02,0.01-0.01c0,0,0.01-0.01,0,0L420.32,298.62L420.32,298.62z"/>
	<polygon class="st7" points="420.35,298.63 420.31,298.59 420.35,298.63 	"/>
</g>
</svg>
