<?xml version="1.0" encoding="utf-8"?>
<!-- Generator: Adobe Illustrator 25.4.1, SVG Export Plug-In . SVG Version: 6.00 Build 0)  -->
<svg version="1.1" id="Слой_1" xmlns="http://www.w3.org/2000/svg" xmlns:xlink="http://www.w3.org/1999/xlink" x="0px" y="0px"
	 viewBox="0 0 841.89 595.28" style="enable-background:new 0 0 841.89 595.28;" xml:space="preserve">
<style type="text/css">
	.st0{fill:#FCDF6B;}
	.st1{fill-rule:evenodd;clip-rule:evenodd;fill:#F16154;}
	.st2{fill-rule:evenodd;clip-rule:evenodd;fill:#1C75BC;}
	.st3{fill:#FFFFFF;}
</style>
<g>
	<path class="st0" d="M448.66,298.61c0,15.65-12.68,28.33-28.33,28.33c-15.65,0-28.33-12.68-28.33-28.33
		c0-15.65,12.68-28.33,28.33-28.33C435.98,270.28,448.66,282.96,448.66,298.61L448.66,298.61z"/>
	<path class="st1" d="M399.15,287.94h18.66c0.74,0,1.34,0.6,1.34,1.34v5.69c0.46,1.16,0.74,1.99,2.07,1.99l0.04,0h0.11v0
		c0.85,0,1.54,0.69,1.54,1.54c0,0.85-0.69,1.54-1.54,1.54h-0.11l-0.04,0c-1.32,0-1.61,0.82-2.07,1.99v5.61
		c0,0.74-0.6,1.34-1.34,1.34h-18.66c-0.74,0-1.34-0.6-1.34-1.34v-18.34C397.8,288.54,398.41,287.94,399.15,287.94L399.15,287.94z"/>
	<path class="st2" d="M442.86,289.28v18.66c0,0.74-0.6,1.34-1.34,1.34h-5.69h-7.05h-4.57h-1.04c-0.74,0-1.34-0.6-1.34-1.34v-5.2h0.1
		c4.72,0,4.72-8.57,0-8.57l-0.04,0h-0.06v-4.89c0-0.74,0.6-1.34,1.34-1.34h18.34C442.26,287.94,442.86,288.54,442.86,289.28
		L442.86,289.28z"/>
	<path class="st3" d="M406.46,299.96l1.03-6.08l1.06,6.08H406.46L406.46,299.96z M409.76,306.84h5.86l-4.76-16.77h-6.58l-4.78,16.77
		h5.82l0.5-3.03h3.41L409.76,306.84L409.76,306.84z"/>
	<path class="st3" d="M433.93,303.5c-1.24,0-2.02-0.77-2.02-3.14h3.87C435.78,302.75,435.14,303.5,433.93,303.5L433.93,303.5z
		 M433.81,289.92c-2.58,0-4.48,0.73-6.14,2.16l2.3,2.77c0.84-0.59,1.71-1.15,3.26-1.15c1.59,0,2.48,1.03,2.55,3.16h-8.84
		c-0.09,0.52-0.19,1.17-0.19,1.92c0,4.92,1.97,8.51,7.15,8.51c4.64,0,7.31-3.09,7.31-8.7C441.22,292.95,438.57,289.92,433.81,289.92
		L433.81,289.92z"/>
</g>
</svg>
