<?xml version="1.0" encoding="utf-8"?>
<!-- Generator: Adobe Illustrator 25.4.1, SVG Export Plug-In . SVG Version: 6.00 Build 0)  -->
<svg version="1.1" id="Слой_1" xmlns="http://www.w3.org/2000/svg" xmlns:xlink="http://www.w3.org/1999/xlink" x="0px" y="0px"
	 viewBox="0 0 56.69 56.69" style="enable-background:new 0 0 56.69 56.69;" xml:space="preserve">
<style type="text/css">
	.st0{fill:#FCDF6B;}
	.st1{fill:#1C75BC;}
	.st2{fill:#F3F3F3;}
	.st3{fill:#D9D8D7;}
	.st4{fill:#CFD8EE;}
	.st5{fill:#A5BAE0;}
	.st6{fill:#5688C7;}
	.st7{fill:#FFFFFF;}
	.st8{fill:#E6E5E5;}
</style>
<circle id="XMLID_5_" class="st0" cx="28.35" cy="28.35" r="28.33"/>
<path class="st1" d="M31.12,50.76c-11.08,0-20.09-9.01-20.09-20.08c0-11.08,9.01-20.09,20.09-20.09S51.2,19.6,51.2,30.68
	C51.2,41.75,42.19,50.76,31.12,50.76z M31.12,12.57c-9.99,0-18.11,8.12-18.11,18.11c0,9.98,8.12,18.11,18.11,18.11
	s18.11-8.12,18.11-18.11C49.23,20.69,41.1,12.57,31.12,12.57z"/>
<g>
	<path class="st2" d="M28.03,39.57l4.31-7.73l7.46-4.77c0.11,0.18,0.2,0.37,0.27,0.57c0.02,0.07,0.04,0.13,0.06,0.2l4.75,15.79
		l-16.05-3.78c-0.07-0.02-0.13-0.03-0.2-0.05C28.42,39.74,28.22,39.67,28.03,39.57"/>
	<polyline class="st3" points="44.87,43.62 31.73,35.19 31.37,34.89 28.81,39.84 44.87,43.62 	"/>
	<polyline class="st1" points="44.87,43.62 43.16,37.95 39.1,42.27 44.87,43.62 	"/>
	
		<rect x="27.27" y="12.03" transform="matrix(0.6853 -0.7282 0.7282 0.6853 -6.4133 28.8429)" class="st4" width="5.79" height="19.63"/>
	
		<rect x="23.31" y="16.24" transform="matrix(0.6853 -0.7283 0.7283 0.6853 -10.7317 27.2823)" class="st5" width="5.79" height="19.63"/>
	
		<rect x="19.34" y="20.46" transform="matrix(0.6853 -0.7283 0.7283 0.6853 -15.0521 25.7194)" class="st6" width="5.79" height="19.63"/>
	<path class="st4" d="M35.33,30.68c-1.16-1.1-1.22-2.93-0.12-4.09c1.1-1.16,2.93-1.22,4.09-0.12c1.16,1.1,1.22,2.93,0.12,4.09
		C38.33,31.72,36.5,31.77,35.33,30.68"/>
	<path class="st5" d="M31.36,34.9c-1.16-1.1-1.22-2.93-0.12-4.09c1.09-1.16,2.93-1.22,4.09-0.12c1.16,1.1,1.22,2.93,0.12,4.09
		C34.36,35.93,32.53,35.99,31.36,34.9"/>
	<path class="st6" d="M27.4,39.11c-1.16-1.1-1.22-2.93-0.12-4.09c1.1-1.16,2.93-1.22,4.09-0.12c1.16,1.1,1.22,2.93,0.12,4.09
		C30.39,40.15,28.56,40.21,27.4,39.11"/>
	
		<rect x="7.54" y="14.14" transform="matrix(0.6853 -0.7283 0.7283 0.6853 -7.2886 17.6255)" class="st7" width="18.41" height="6.21"/>
	
		<rect x="9.44" y="18.52" transform="matrix(0.6853 -0.7283 0.7283 0.6853 -11.78 16.0004)" class="st8" width="6.37" height="6.21"/>
	<path class="st4" d="M6.58,19.53c-0.65-0.61-1.06-1.47-1.09-2.42c-0.03-0.96,0.33-1.84,0.94-2.49l7.14-7.59
		c0.61-0.65,1.47-1.06,2.42-1.09c0.96-0.03,1.84,0.33,2.49,0.94l1.99,1.88L8.57,21.4L6.58,19.53"/>
	<path class="st6" d="M12.54,17.18l-1.99-1.88c-0.65-0.61-1.06-1.47-1.09-2.42c-0.03-0.96,0.33-1.84,0.94-2.49l-3.97,4.22
		c-0.61,0.65-0.97,1.53-0.94,2.49c0.03,0.96,0.44,1.82,1.09,2.42l1.99,1.88L12.54,17.18"/>
</g>
</svg>
