<?xml version="1.0" encoding="utf-8"?>
<!-- Generator: Adobe Illustrator 25.4.1, SVG Export Plug-In . SVG Version: 6.00 Build 0)  -->
<svg version="1.1" id="Слой_1" xmlns="http://www.w3.org/2000/svg" xmlns:xlink="http://www.w3.org/1999/xlink" x="0px" y="0px"
	 viewBox="0 0 841.89 595.28" style="enable-background:new 0 0 841.89 595.28;" xml:space="preserve">
<style type="text/css">
	.st0{fill:#FCDF6B;}
	.st1{fill-rule:evenodd;clip-rule:evenodd;fill:#F61C0D;}
	.st2{fill-rule:evenodd;clip-rule:evenodd;fill:#FFFEFE;}
</style>
<g>
	<path class="st0" d="M448.66,298.61c0,15.65-12.68,28.33-28.33,28.33S392,314.26,392,298.61c0-15.65,12.68-28.33,28.33-28.33
		S448.66,282.96,448.66,298.61L448.66,298.61z"/>
	<path class="st1" d="M409.38,285.25h21.91c4.37,0,7.95,3.58,7.95,7.95v10.81c0,4.37-3.58,7.95-7.95,7.95h-21.91
		c-4.37,0-7.95-3.58-7.95-7.95v-10.81C401.42,288.83,405,285.25,409.38,285.25L409.38,285.25z"/>
	<path class="st2" d="M414.77,293.53v10.16c0,0.92,0.62,0.55,1.05,0.34c0.82-0.4,9.96-4.9,10.06-5.25c0.02-0.06,0.02-0.11,0.01-0.17
		c0.01-0.05,0.01-0.11-0.01-0.17c-0.1-0.35-9.24-4.85-10.06-5.25C415.39,292.98,414.77,292.61,414.77,293.53L414.77,293.53z"/>
</g>
</svg>
