<?xml version="1.0" encoding="utf-8"?>
<!-- Generator: Adobe Illustrator 25.4.1, SVG Export Plug-In . SVG Version: 6.00 Build 0)  -->
<svg version="1.1" id="Слой_1" xmlns="http://www.w3.org/2000/svg" xmlns:xlink="http://www.w3.org/1999/xlink" x="0px" y="0px"
	 viewBox="0 0 56.69 56.69" style="enable-background:new 0 0 56.69 56.69;" xml:space="preserve">
<style type="text/css">
	.st0{fill:#FCDF6B;}
	.st1{fill:#ED1C24;}
	.st2{fill:#C02026;}
	.st3{clip-path:url(#SVGID_00000127003194479920852940000003140614328099306142_);}
	.st4{fill:#FBAD32;}
	.st5{fill:#FFFFFF;}
</style>
<circle id="XMLID_5_" class="st0" cx="28.35" cy="28.35" r="28.33"/>
<circle class="st1" cx="28.35" cy="28.35" r="22.16"/>
<path class="st2" d="M26.55,41.75c-10.26-3.34-15.88-14.36-12.54-24.63c0.46-1.41,1.07-2.72,1.8-3.94c-2.51,2.23-4.49,5.12-5.6,8.54
	c-3.34,10.26,2.28,21.29,12.54,24.63c8.85,2.88,18.26-0.91,22.83-8.6C40.56,42.21,33.39,43.98,26.55,41.75z"/>
<g>
	<defs>
		<circle id="SVGID_1_" cx="28.35" cy="28.35" r="22.16"/>
	</defs>
	<clipPath id="SVGID_00000124855748671005652980000011933730305389023928_">
		<use xlink:href="#SVGID_1_"  style="overflow:visible;"/>
	</clipPath>
	<g style="clip-path:url(#SVGID_00000124855748671005652980000011933730305389023928_);">
		<path class="st4" d="M33.1,38.34c-3.92,0-7.89-0.85-11.78-2.56C12.21,31.76,5.34,23.66,5.34,16.92h3.95
			c0,4.44,5.21,11.53,13.63,15.25c5.59,2.47,16.62,5.08,27.79-5.11l2.66,2.92C47.31,35.51,40.28,38.34,33.1,38.34z"/>
	</g>
	<g style="clip-path:url(#SVGID_00000124855748671005652980000011933730305389023928_);">
		<path class="st4" d="M31.56,43.53c-3.79,0-7.62-0.81-11.36-2.47C11.56,37.25,4.8,29.37,4.8,23.11h1.98
			c0,4.75,5.43,12.27,14.22,16.15c5.81,2.56,17.27,5.28,28.85-5.28l1.33,1.46C45.31,40.79,38.5,43.53,31.56,43.53z"/>
	</g>
</g>
<circle class="st5" cx="35.92" cy="19.16" r="4.88"/>
<circle class="st5" cx="42.07" cy="27.81" r="1.51"/>
</svg>
