<?xml version="1.0" encoding="utf-8"?>
<!-- Generator: Adobe Illustrator 25.4.1, SVG Export Plug-In . SVG Version: 6.00 Build 0)  -->
<svg version="1.1" id="Слой_1" xmlns="http://www.w3.org/2000/svg" xmlns:xlink="http://www.w3.org/1999/xlink" x="0px" y="0px"
	 viewBox="0 0 56.69 56.69" style="enable-background:new 0 0 56.69 56.69;" xml:space="preserve">
<style type="text/css">
	.st0{fill:#FCDF6B;}
	.st1{fill:#1C75BC;}
	.st2{fill:#FFFFFF;}
	.st3{fill:#D0D0CF;}
	.st4{fill:#F47920;}
</style>
<circle id="XMLID_5_" class="st0" cx="28.35" cy="28.35" r="28.33"/>
<g>
	<g>
		<g>
			<rect x="3.43" y="15.33" class="st1" width="49.84" height="26.71"/>
		</g>
		<g>
			<g>
				<path class="st2" d="M28.35,40.85H6.98V14.15h19c0.6,0,1.21,0.23,1.67,0.69c0.46,0.46,0.69,1.07,0.69,1.67V40.85z"/>
				<path class="st2" d="M49.72,40.85H28.35V16.51c0-0.6,0.23-1.21,0.69-1.67c0.46-0.46,1.07-0.69,1.67-0.69h19.01V40.85z"/>
			</g>
			<path class="st3" d="M27.66,39.18c-0.46-0.46-1.07-0.69-1.67-0.69h-19l-2.37,2.36h23.74C28.35,40.25,28.12,39.64,27.66,39.18z"/>
			<path class="st3" d="M29.04,39.18c0.46-0.46,1.07-0.69,1.67-0.69h19.01l2.36,2.36H28.35C28.35,40.25,28.58,39.64,29.04,39.18z"/>
			<polygon class="st3" points="6.98,14.15 6.98,38.49 4.61,40.85 4.61,16.51 			"/>
			<polygon class="st3" points="49.72,14.15 49.72,38.49 52.08,40.85 52.08,16.51 			"/>
			<g>
				<rect x="9.34" y="16.88" class="st3" width="14.27" height="0.68"/>
				<rect x="9.34" y="18.69" class="st3" width="14.27" height="0.68"/>
				<rect x="9.34" y="20.51" class="st3" width="14.27" height="0.69"/>
				<rect x="9.34" y="22.33" class="st3" width="14.27" height="0.68"/>
				<rect x="9.34" y="24.15" class="st3" width="14.27" height="0.68"/>
				<rect x="9.34" y="25.97" class="st3" width="14.27" height="0.68"/>
				<rect x="9.34" y="27.79" class="st3" width="14.27" height="0.68"/>
				<rect x="9.34" y="29.61" class="st3" width="14.27" height="0.68"/>
				<rect x="9.34" y="31.43" class="st3" width="14.27" height="0.68"/>
				<rect x="9.34" y="33.25" class="st3" width="14.27" height="0.68"/>
				<rect x="9.34" y="35.07" class="st3" width="14.27" height="0.68"/>
			</g>
			<g>
				<rect x="33.08" y="16.88" class="st3" width="14.27" height="0.68"/>
				<rect x="33.08" y="18.69" class="st3" width="14.27" height="0.68"/>
				<rect x="33.08" y="20.51" class="st3" width="14.27" height="0.69"/>
				<rect x="33.08" y="22.33" class="st3" width="14.27" height="0.68"/>
				<rect x="33.08" y="24.15" class="st3" width="14.27" height="0.68"/>
				<rect x="33.08" y="25.97" class="st3" width="14.27" height="0.68"/>
				<rect x="33.08" y="27.79" class="st3" width="14.27" height="0.68"/>
				<rect x="33.08" y="29.61" class="st3" width="14.27" height="0.68"/>
				<rect x="33.08" y="31.43" class="st3" width="14.27" height="0.68"/>
				<rect x="33.08" y="33.25" class="st3" width="14.27" height="0.68"/>
				<rect x="33.08" y="35.07" class="st3" width="14.27" height="0.68"/>
			</g>
		</g>
	</g>
	<g>
		<g>
			
				<rect x="19.9" y="32.82" transform="matrix(0.7071 -0.7071 0.7071 0.7071 -18.1315 25.7002)" class="st4" width="4.12" height="3.83"/>
			<path class="st4" d="M45.72,10.97c-6.23-6.22-16.32-6.22-22.55,0c-6.23,6.23-6.23,16.32,0,22.55c6.23,6.23,16.32,6.23,22.55,0
				C51.94,27.3,51.95,17.2,45.72,10.97z M43.47,31.27c-4.99,4.99-13.06,4.99-18.04,0c-4.99-4.99-4.99-13.06,0-18.05
				c4.98-4.98,13.06-4.99,18.05,0C48.45,18.21,48.45,26.29,43.47,31.27z"/>
			
				<rect x="6.41" y="40.33" transform="matrix(0.7071 -0.7071 0.7071 0.7071 -26.748 22.1312)" class="st4" width="13.87" height="6.04"/>
			
				<rect x="17.77" y="33.8" transform="matrix(0.7071 -0.7071 0.7071 0.7071 -20.7164 24.6282)" class="st4" width="3.19" height="7.05"/>
		</g>
		<path class="st4" d="M39.85,12.8c1.97,1.96,3.2,4.67,3.2,7.67c0,5.97-4.84,10.81-10.81,10.81c-1.92,0-3.71-0.5-5.27-1.38
			c1.95,1.94,4.65,3.14,7.62,3.14c5.97,0,10.81-4.84,10.81-10.81C45.39,18.18,43.15,14.65,39.85,12.8z"/>
	</g>
</g>
</svg>
