<?xml version="1.0" encoding="utf-8"?>
<!-- Generator: Adobe Illustrator 25.4.1, SVG Export Plug-In . SVG Version: 6.00 Build 0)  -->
<svg version="1.1" id="Слой_1" xmlns="http://www.w3.org/2000/svg" xmlns:xlink="http://www.w3.org/1999/xlink" x="0px" y="0px"
	 viewBox="0 0 841.89 595.28" style="enable-background:new 0 0 841.89 595.28;" xml:space="preserve">
<style type="text/css">
	.st0{fill:#FCDF6B;}
	.st1{fill-rule:evenodd;clip-rule:evenodd;fill:#FA581C;}
	.st2{fill-rule:evenodd;clip-rule:evenodd;fill:#A2B2D0;}
	.st3{fill-rule:evenodd;clip-rule:evenodd;fill:#FC7231;}
	.st4{fill-rule:evenodd;clip-rule:evenodd;fill:#FF8944;}
	.st5{fill-rule:evenodd;clip-rule:evenodd;fill:#EC4A11;}
	.st6{fill-rule:evenodd;clip-rule:evenodd;fill:#89BAF1;}
	.st7{fill-rule:evenodd;clip-rule:evenodd;fill:#B3D7FF;}
</style>
<g>
	<path class="st0" d="M448.66,298.61c0,15.65-12.68,28.33-28.33,28.33S392,314.26,392,298.61c0-15.65,12.68-28.33,28.33-28.33
		S448.66,282.96,448.66,298.61L448.66,298.61z"/>
	<path class="st1" d="M402.91,295.48c6.96,3.57,13.9,7.18,20.86,10.76l0.11-0.13c-3.63-5.76-7.25-11.53-10.82-17.32l7.01-4.46
		l-11.66-2.85c1.51,2.44,3.08,4.88,4.55,7.35l-10.05,6.44l-0.03,0.16L402.91,295.48L402.91,295.48z"/>
	<path class="st2" d="M427.49,316.36c0.14,1.07-1.2,2.66-1.66,3.05c-2.87,2.49-8.28,1.76-9.16-1.84c-0.69-2.82,1.91-4.88,4.7-4.38
		C423.21,313.5,425.96,315.36,427.49,316.36L427.49,316.36z M425.72,307.82c-0.28,0.05-0.32,0.13-0.54,0.18
		c-0.17,0.13-0.26,0.15-0.42,0.28l-0.41,0.36c0.26-0.04,0.23,0.02,0.35,0.25c0.08,0.15,0.12,0.21,0.23,0.39
		c0.78,1.32,2.7,4.21,2.67,5.54l-3.46-2.01c-1.24-0.63-2.79-1.25-4.48-0.97c-2.84,0.46-5.29,3.01-4.18,6.41
		c1.4,4.29,7.56,5.15,11.06,2.29c1.72-1.4,1.82-2.64,2.15-3.24c0.05-0.09,0.05-0.08,0.1-0.12c0.32,0.12,1.26,0.69,2,1.01
		c0.69,0.29,1.53,0.56,2.37,0.63c1.81,0.14,3.39-0.88,4.06-2.01c1.62-2.72-0.69-7.02-1.77-9.15c-1.36-2.69-2.87-5.34-3.98-8.11
		c-0.59-1.47-1.12-2.97-1.42-4.66c-0.15-0.85-0.24-1.96-0.17-2.85c0.04-0.54,0.2-0.78-0.08-1.16c-0.18-0.25-0.54-0.58-1.04-0.44
		c-1.26,5.59,2.83,12.62,4.95,16.7c0.84,1.62,3.24,5.99,2.68,8.27c-0.33,1.35-1.77,2.26-3.51,2.04c-1.28-0.16-2.96-1.13-3.88-1.7
		c-0.12-0.61,0.08-1.16-0.36-2.45c-0.25-0.73-0.58-1.23-0.94-1.87C427.49,311.03,425.7,308.19,425.72,307.82L425.72,307.82z"/>
	<path class="st3" d="M420.06,284.32l-0.44,0.28l0.65,15.82l3.59,5.68l-0.11,0.13l0.39-0.15l0.11-0.17
		c-0.19-7.78-0.8-15.84-0.75-23.53l-0.25-0.21l-0.08,0.2L420.06,284.32L420.06,284.32z"/>
	<path class="st4" d="M402.91,295.48l-0.03-0.07l-0.01,0.04L402.91,295.48L402.91,295.48z M402.91,295.25l10.05-6.44
		c-1.47-2.47-3.04-4.9-4.55-7.35l-2.69-0.69L402.91,295.25L402.91,295.25z"/>
	<path class="st4" d="M420.28,300.42l-0.65-15.82l-6.58,4.19C415.26,292.59,417.94,296.68,420.28,300.42L420.28,300.42z"/>
	<polygon class="st5" points="408.24,281.19 408.41,281.47 420.06,284.32 423.19,282.38 423.26,282.17 414.72,279.98 406.29,277.85 
		406.41,278.07 407.27,279.52 408.24,281.19 	"/>
	<path class="st6" d="M423.77,306.24c0,0.34-1.05,0.32-1.39,0.33c-0.64,0.01-1.02,0.04-1.49,0.37c-1.91,1.34-0.42,4.38,1.8,3.64
		c0.5-0.16,0.82-0.45,1.06-0.79c0.15-0.2,0.63-0.99,0.62-1.14l0.41-0.36c0.16-0.13,0.26-0.15,0.42-0.28
		c-0.05-0.17-0.43-0.68-0.58-0.92c-0.19-0.31-0.39-0.61-0.45-0.99L423.77,306.24L423.77,306.24z"/>
	<path class="st7" d="M424.27,305.92l-0.11,0.17c0.07,0.38,0.27,0.69,0.45,0.99c0.15,0.25,0.53,0.75,0.58,0.92
		c0.22-0.05,0.26-0.13,0.54-0.18c1.35-0.05,2.05,0.09,2.74-0.76c1.83-2.23-1.79-5-3.43-2.2c-0.14,0.24-0.21,0.39-0.32,0.57
		c-0.06,0.1-0.08,0.14-0.16,0.25C424.41,305.9,424.45,305.83,424.27,305.92L424.27,305.92z"/>
	<polygon class="st3" points="405.72,280.78 408.41,281.47 406.29,277.85 405.72,280.78 	"/>
</g>
</svg>
