<?xml version="1.0" encoding="utf-8"?>
<!-- Generator: Adobe Illustrator 25.4.1, SVG Export Plug-In . SVG Version: 6.00 Build 0)  -->
<svg version="1.1" id="Слой_1" xmlns="http://www.w3.org/2000/svg" xmlns:xlink="http://www.w3.org/1999/xlink" x="0px" y="0px"
	 viewBox="0 0 56.69 56.69" style="enable-background:new 0 0 56.69 56.69;" xml:space="preserve">
<style type="text/css">
	.st0{fill:#FCDF6B;}
	.st1{fill:#1C75BC;}
	.st2{fill:#F47920;}
</style>
<circle id="XMLID_5_" class="st0" cx="28.35" cy="28.35" r="28.33"/>
<g>
	<g>
		<path class="st1" d="M29.06,11.31c-4.17-3.38-3.62-8.06-3.61-8.09l0.04,0.17h-1.36l-6.69,25.48c-0.88-1.12-2.43-1.96-4.35-1.96
			c-3.55,0-7.06,2.33-7.84,5.29c-0.78,2.96,1.52,5.07,5.06,5.07c6.35,0,8.35-5.54,8.35-5.54L24.58,8.1c0.48,1.3,1.41,2.84,3.53,4.81
			c4.2,3.91-0.75,7.98-0.75,7.98C31.1,19.29,33.08,14.58,29.06,11.31z"/>
		<path class="st2" d="M44.36,45.72c0.55-2.09,7.01-26.43,7.01-26.43h0.07l0.18-0.44L30.5,21.41l-0.78,3.15l-5.31,20.46
			c-0.8-1.02-2.19-1.66-3.94-1.66c-3.22,0-6.4,2.17-7.11,4.86c-0.71,2.68,1.35,5.25,4.57,5.25c3.18,0,5.14-1.56,5.96-2.76
			s1.08-2.24,1.09-2.24c0-0.01,0.02-0.14,0.02-0.14l5.43-20.85l18.18-2.42l-4.59,17.65c-0.8-1.02-2.19-1.67-3.94-1.67
			c-3.22,0-6.4,2.17-7.11,4.86c-0.71,2.68,1.34,4.45,4.56,4.45C40.71,50.35,43.8,47.81,44.36,45.72z M30.85,25.85l0.37-1.41
			l18.14-2.28l-0.34,1.3L30.85,25.85z"/>
	</g>
</g>
</svg>
