<?xml version="1.0" encoding="utf-8"?>
<!-- Generator: Adobe Illustrator 25.4.1, SVG Export Plug-In . SVG Version: 6.00 Build 0)  -->
<svg version="1.1" id="Слой_1" xmlns="http://www.w3.org/2000/svg" xmlns:xlink="http://www.w3.org/1999/xlink" x="0px" y="0px"
	 viewBox="0 0 841.89 595.28" style="enable-background:new 0 0 841.89 595.28;" xml:space="preserve">
<style type="text/css">
	.st0{fill:#FCDF6B;}
	.st1{fill-rule:evenodd;clip-rule:evenodd;fill:#CD624C;}
	.st2{fill-rule:evenodd;clip-rule:evenodd;fill:#5EB9CA;}
	.st3{fill-rule:evenodd;clip-rule:evenodd;fill:#4E9FAF;}
	.st4{fill-rule:evenodd;clip-rule:evenodd;fill:#8DC667;}
	.st5{fill-rule:evenodd;clip-rule:evenodd;fill:#A0D383;}
</style>
<g>
	<path class="st0" d="M448.66,298.61c0,15.65-12.68,28.33-28.33,28.33S392,314.26,392,298.61c0-15.65,12.68-28.33,28.33-28.33
		S448.66,282.96,448.66,298.61L448.66,298.61z"/>
	<path class="st1" d="M431.96,276.77c4.45,3.96,7.25,9.72,7.25,16.14c0,10.45-7.42,19.17-17.28,21.17v3.81h7.3v2.56h-7.3h-2.56h-7.3
		v-2.56h7.3v-3.44c-0.59,0.05-1.18,0.07-1.77,0.07c-6.42,0-12.18-2.8-16.14-7.24l0.15-0.15l5.9-5.9l1.81,1.81l-4.22,4.22
		c3.34,2.92,7.72,4.69,12.51,4.69c10.51,0,19.03-8.52,19.03-19.03c0-4.79-1.77-9.17-4.69-12.51l-4.08,4.08l-1.81-1.81L431.96,276.77
		L431.96,276.77L431.96,276.77z"/>
	<path class="st2" d="M405.2,284.41c-0.69,0.7-1.66,3.16-1.97,4.29c-0.49,1.73-0.65,3.72-0.45,5.65c1.23,0.38,2.35,0.82,3.56,1.23
		c0.26,0.09,3.34,1.11,3.49,1.28c0.33,0.48,0.44,2.55,0.72,3.21c0.4-0.27,0.8-0.78,1.13-1.09c2.62-2.5,5.28-5.32,7.94-7.94l6.8-6.8
		c0.4-0.4,2.12-2.02,2.22-2.31l-0.02-0.04c-0.4-0.4-0.82-0.77-1.27-1.12l-0.02-0.01l-0.05-0.04l-0.02-0.01
		c-0.52-0.41-1.07-0.78-1.64-1.11c-0.71-0.41-1.49-0.79-2.3-1.11c-1.15-0.44-2.37-0.74-3.64-0.89c-0.15-0.01-0.3-0.01-0.44-0.01
		c-0.04,0.44-3.55,10.92-3.63,11c-0.15,0.14-0.19,0.11-0.43,0.15c-1.35,0.26-6.16,1.2-6.75,1.21c-0.28-0.36-2.03-3.53-2.42-4.21
		C405.84,285.44,405.43,284.59,405.2,284.41L405.2,284.41z"/>
	<path class="st3" d="M410.54,300.07l0.01,0.12l1.28,6.52c1.74,0.92,5.53,1.59,7.83,1.18l1.48-8.48l-3.53-3
		c0.13-0.25,3.99-4.56,4.28-4.79c0.86,0.02,2.4,0.37,3.29,0.54c1.89,0.35,1.51,0.35,2.82-0.53l4.58-3.02l0-0.01
		c-0.5-1.78-1.32-3.43-2.39-4.88c-0.1-0.13-0.21-0.27-0.31-0.41c-0.37-0.47-0.77-0.92-1.2-1.35l-0.05-0.03
		c-0.09,0.28-1.82,1.91-2.22,2.31l-6.8,6.8c-2.66,2.62-5.32,5.44-7.94,7.94C411.34,299.29,410.94,299.8,410.54,300.07L410.54,300.07
		z"/>
	<path class="st4" d="M419.66,307.89c0.47-0.04,0.94-0.1,1.4-0.19c1.2-0.25,2.34-0.65,3.42-1.16c1.81-0.89,3.36-2.1,4.54-3.33
		c2.56-2.73,4.13-6.4,4.13-10.44c0-1.44-0.2-2.83-0.57-4.15l0-0.01l-4.58,3.02c-1.31,0.88-0.93,0.88-2.82,0.53
		c-0.89-0.16-2.42-0.51-3.29-0.54c-0.29,0.23-4.15,4.54-4.28,4.79l3.53,3L419.66,307.89L419.66,307.89z"/>
	<path class="st5" d="M405.2,284.41c0.22,0.18,0.64,1.03,0.81,1.32c0.39,0.68,2.14,3.84,2.42,4.21c0.59-0.01,5.4-0.95,6.75-1.21
		c0.24-0.05,0.28-0.01,0.43-0.15c0.08-0.08,3.6-10.55,3.63-11c-0.07-0.02-0.15-0.04-0.24-0.05c-0.37-0.03-0.74-0.04-1.12-0.04
		c-0.09,0-0.17,0-0.26,0c-1.18,0.06-2.56,0.27-3.22,0.42c-2.7,0.6-4.91,1.96-6.84,3.66C407.08,282,405.49,283.71,405.2,284.41
		L405.2,284.41z"/>
	<path class="st5" d="M406.28,302.68c0.06,0-0.03-0.03,0.15,0.15c0.08,0.08,0.15,0.14,0.23,0.22c0.2,0.2,0.2,0.3,0.43,0.43
		c0.34-0.13,0.64-0.53,0.88-0.78c0.3-0.3,0.54-0.55,0.84-0.85c0.35-0.34,1.38-1.5,1.75-1.66l-0.01-0.12
		c-0.28-0.66-0.39-2.73-0.72-3.21c-0.15-0.17-3.23-1.19-3.49-1.28c-1.21-0.41-2.32-0.85-3.56-1.23c0.2,2.65,1.36,5.39,2.9,7.46
		c0.15,0.21,0.45,0.49,0.49,0.73L406.28,302.68L406.28,302.68z"/>
	<path class="st4" d="M407.07,303.47c0.06,0.08,0.03,0.05,0.11,0.13c0.03,0.03,0.08,0.08,0.11,0.11c0.1,0.09,0.14,0.12,0.24,0.2
		c0.29,0.24,0.38,0.25,0.45,0.46l0.05,0.04c0.33,0.1,0.6,0.41,0.84,0.59c0.28,0.21,0.6,0.43,0.92,0.63
		c0.67,0.41,1.33,0.81,2.04,1.07l-1.28-6.52c-0.37,0.16-1.4,1.32-1.75,1.66c-0.3,0.3-0.54,0.55-0.84,0.85
		C407.71,302.94,407.42,303.34,407.07,303.47L407.07,303.47z"/>
</g>
</svg>
