<?xml version="1.0" encoding="utf-8"?>
<!-- Generator: Adobe Illustrator 25.4.1, SVG Export Plug-In . SVG Version: 6.00 Build 0)  -->
<svg version="1.1" id="Слой_1" xmlns="http://www.w3.org/2000/svg" xmlns:xlink="http://www.w3.org/1999/xlink" x="0px" y="0px"
	 viewBox="0 0 56.69 56.69" style="enable-background:new 0 0 56.69 56.69;" xml:space="preserve">
<style type="text/css">
	.st0{fill:#FCDF6B;}
	.st1{fill:#005473;}
	.st2{fill:#F47920;}
	.st3{fill:#1C75BC;}
</style>
<circle id="XMLID_5_" class="st0" cx="28.35" cy="28.35" r="28.33"/>
<g>
	<path id="XMLID_68_" class="st1" d="M9.9,47.89c-0.21,0.21-0.56,0.21-0.78,0c-0.21-0.21-0.21-0.56,0-0.77l1.96-1.96
		c0.21-0.21,0.56-0.21,0.77,0c0.21,0.21,0.21,0.56,0,0.77L9.9,47.89z"/>
	
		<rect id="XMLID_66_" x="12.02" y="23.41" transform="matrix(0.7072 -0.707 0.707 0.7072 -12.0495 28.415)" class="st2" width="32.51" height="10.69"/>
	<path id="XMLID_65_" class="st2" d="M46,17.9c0.56-0.56,0.16-1.88-0.9-2.95l-3.72-3.72c-1.06-1.06-2.38-1.46-2.95-0.9l-0.7,0.7
		l7.56,7.56L46,17.9z"/>
	<path id="XMLID_64_" class="st3" d="M45.98,13.39c0.98-0.98,1.43-2.12,1.01-2.55l-1.5-1.5c-0.43-0.43-1.57,0.03-2.55,1.01
		l-1.22,1.22l3.04,3.04L45.98,13.39z"/>
	<path id="XMLID_42_" class="st3" d="M44.86,20.81c-0.73,0.73-1.85,0.8-2.48,0.17l-6.94-6.94c-0.64-0.64-0.57-1.75,0.17-2.48
		c0.73-0.73,1.84-0.81,2.48-0.17l6.94,6.94C45.67,18.97,45.59,20.08,44.86,20.81"/>
	<path id="XMLID_41_" class="st3" d="M32.14,38.77l-1.1-1.1l14.8-14.8l-1.8-1.8l1.1-1.11l2.35,2.35c0.15,0.15,0.23,0.35,0.23,0.55
		c0,0.21-0.08,0.41-0.23,0.55L32.14,38.77z"/>
	<polygon id="XMLID_38_" class="st3" points="12.97,36.47 10.2,45.86 11.14,46.8 20.52,44.03 	"/>
</g>
</svg>
