<?xml version="1.0" encoding="utf-8"?>
<!-- Generator: Adobe Illustrator 25.4.1, SVG Export Plug-In . SVG Version: 6.00 Build 0)  -->
<svg version="1.1" id="Слой_1" xmlns="http://www.w3.org/2000/svg" xmlns:xlink="http://www.w3.org/1999/xlink" x="0px" y="0px"
	 viewBox="0 0 56.69 56.69" style="enable-background:new 0 0 56.69 56.69;" xml:space="preserve">
<style type="text/css">
	.st0{fill:#FCDF6B;}
	.st1{fill:#1C75BC;}
	.st2{fill:#556683;}
	.st3{fill:#7D9FD3;}
	.st4{fill:#FFFFFF;}
	.st5{fill:#F47920;}
</style>
<circle id="XMLID_5_" class="st0" cx="28.35" cy="28.35" r="28.33"/>
<g>
	<polygon class="st1" points="34.69,48.33 22.01,48.33 23.16,41.86 33.53,41.86 	"/>
	<path class="st2" d="M38.08,49.27H18.61v-0.35c0-0.15,0.06-0.3,0.17-0.42c0.12-0.12,0.27-0.17,0.42-0.17h18.28
		c0.15,0,0.31,0.06,0.42,0.17c0.12,0.12,0.18,0.27,0.18,0.42V49.27z"/>
	<path class="st3" d="M51.17,37.68v3.07c0,0.61-0.5,1.11-1.11,1.11H6.63c-0.61,0-1.11-0.5-1.11-1.11v-3.07H51.17z"/>
	<path class="st1" d="M51.17,37.68V8.53c0-0.61-0.5-1.11-1.11-1.11H6.63c-0.61,0-1.11,0.5-1.11,1.11v29.15H51.17z"/>
	<path class="st4" d="M10.1,9.72h36.49c1.26,0,2.27,1.02,2.27,2.27v21.1c0,1.26-1.02,2.27-2.27,2.27H10.1
		c-1.26,0-2.27-1.02-2.27-2.27V12C7.83,10.74,8.84,9.72,10.1,9.72z"/>
</g>
<path class="st5" d="M22.98,23.23c0.08,4.93,3.23,6.96,6.87,6.96c2.61,0,4.18-0.46,5.55-1.03l0.62,2.61
	c-1.28,0.58-3.48,1.24-6.67,1.24c-6.17,0-9.86-4.06-9.86-10.1c0-6.04,3.56-10.81,9.4-10.81c6.54,0,8.28,5.76,8.28,9.44
	c0,0.75-0.08,1.33-0.12,1.7H22.98z M33.67,20.62c0.04-2.32-0.95-5.92-5.05-5.92c-3.69,0-5.3,3.39-5.59,5.92H33.67z"/>
</svg>
