<?xml version="1.0" encoding="utf-8"?>
<!-- Generator: Adobe Illustrator 25.4.1, SVG Export Plug-In . SVG Version: 6.00 Build 0)  -->
<svg version="1.1" id="Слой_1" xmlns="http://www.w3.org/2000/svg" xmlns:xlink="http://www.w3.org/1999/xlink" x="0px" y="0px"
	 viewBox="0 0 841.89 595.28" style="enable-background:new 0 0 841.89 595.28;" xml:space="preserve">
<style type="text/css">
	.st0{fill:#FCDF6B;}
	.st1{fill-rule:evenodd;clip-rule:evenodd;}
	.st2{fill-rule:evenodd;clip-rule:evenodd;fill:#FAA21B;}
	.st3{fill-rule:evenodd;clip-rule:evenodd;fill:#00A651;}
	.st4{fill-rule:evenodd;clip-rule:evenodd;fill:#FFFFFF;}
	.st5{fill-rule:evenodd;clip-rule:evenodd;fill:#F16154;}
	.st6{fill-rule:evenodd;clip-rule:evenodd;fill:#FCDF6B;}
	.st7{fill-rule:evenodd;clip-rule:evenodd;fill:#00AEEF;}
</style>
<g>
	<path class="st0" d="M448.66,298.61c0,15.65-12.68,28.33-28.33,28.33c-15.65,0-28.33-12.68-28.33-28.33
		c0-15.65,12.68-28.33,28.33-28.33C435.98,270.28,448.66,282.96,448.66,298.61L448.66,298.61z"/>
	<path class="st1" d="M440.63,288.41c0,0.04,0,0.09,0,0.14v20.46c0,0.86-0.53,1.86-1.19,2.23l-17.93,10.07
		c-0.04,0.02-0.09,0.05-0.13,0.06c-0.26,0.16-0.64,0.25-1.07,0.25c-0.46,0-0.87-0.11-1.13-0.29c-0.02-0.01-0.03-0.02-0.05-0.02
		l-17.93-10.07c-0.65-0.37-1.19-1.37-1.19-2.23v-20.46c0-0.11,0.01-0.22,0.03-0.32c0.02-0.84,0.34-1.57,0.8-1.91
		c0.11-0.11,0.25-0.22,0.41-0.31l17.75-10.07c0.74-0.42,1.88-0.47,2.52-0.11l18.13,10.29c0.08,0.05,0.16,0.1,0.22,0.16
		c0.45,0.37,0.76,1.1,0.76,1.95C440.64,288.29,440.64,288.35,440.63,288.41L440.63,288.41z"/>
	<path class="st2" d="M421.29,277.12l6.69,3.79c0.53,0.3,0.46,0.83-0.16,1.18l-6.37,3.61c-0.62,0.35-1.55,0.39-2.08,0.09l-6.69-3.79
		c-0.53-0.3-0.46-0.83,0.16-1.18l6.37-3.61C419.83,276.86,420.77,276.82,421.29,277.12L421.29,277.12z"/>
	<path class="st3" d="M431.11,282.85l6.69,3.79c0.53,0.3,0.46,0.83-0.16,1.18l-6.37,3.61c-0.62,0.35-1.55,0.39-2.08,0.09l-6.69-3.79
		c-0.53-0.3-0.46-0.83,0.16-1.18l6.37-3.61C429.64,282.59,430.58,282.55,431.11,282.85L431.11,282.85z"/>
	<path class="st4" d="M411.48,282.72l6.69,3.79c0.53,0.3,0.46,0.83-0.16,1.18l-6.37,3.61c-0.62,0.35-1.55,0.39-2.08,0.09l-6.69-3.79
		c-0.53-0.3-0.46-0.83,0.16-1.18l6.37-3.61C410.01,282.46,410.95,282.42,411.48,282.72L411.48,282.72z"/>
	<path class="st4" d="M421.29,288.45l6.69,3.79c0.53,0.3,0.46,0.83-0.16,1.18l-6.37,3.61c-0.62,0.35-1.55,0.39-2.08,0.09l-6.69-3.79
		c-0.53-0.3-0.46-0.83,0.16-1.18l6.37-3.61C419.83,288.19,420.77,288.15,421.29,288.45L421.29,288.45z"/>
	<path class="st5" d="M402.14,289.02l6.68,3.75c0.52,0.29,0.95,1.1,0.95,1.79v7.47c0,0.69-0.43,1.01-0.95,0.72l-6.68-3.75
		c-0.52-0.29-0.95-1.1-0.95-1.79v-7.47C401.19,289.05,401.62,288.72,402.14,289.02L402.14,289.02z"/>
	<path class="st6" d="M412.01,294.59l6.68,3.75c0.52,0.29,0.95,1.1,0.95,1.79v7.47c0,0.69-0.43,1.01-0.95,0.72l-6.68-3.75
		c-0.52-0.29-0.95-1.1-0.95-1.79v-7.47C411.05,294.61,411.48,294.29,412.01,294.59L412.01,294.59z"/>
	<path class="st3" d="M402.14,300.34l6.68,3.75c0.52,0.29,0.95,1.1,0.95,1.79v7.47c0,0.69-0.43,1.01-0.95,0.72l-6.68-3.75
		c-0.52-0.29-0.95-1.1-0.95-1.79v-7.47C401.19,300.37,401.62,300.05,402.14,300.34L402.14,300.34z"/>
	<path class="st5" d="M412.01,305.91l6.68,3.75c0.52,0.29,0.95,1.1,0.95,1.79v7.47c0,0.69-0.43,1.01-0.95,0.72l-6.68-3.75
		c-0.52-0.29-0.95-1.1-0.95-1.79v-7.47C411.05,305.94,411.48,305.62,412.01,305.91L412.01,305.91z"/>
	<path class="st4" d="M438.44,289.02l-6.68,3.75c-0.52,0.29-0.95,1.1-0.95,1.79v7.47c0,0.69,0.43,1.01,0.95,0.72l6.68-3.75
		c0.52-0.29,0.95-1.1,0.95-1.79v-7.47C439.39,289.05,438.96,288.72,438.44,289.02L438.44,289.02z"/>
	<path class="st7" d="M428.58,294.59l-6.68,3.75c-0.52,0.29-0.95,1.1-0.95,1.79v7.47c0,0.69,0.43,1.01,0.95,0.72l6.68-3.75
		c0.52-0.29,0.95-1.1,0.95-1.79v-7.47C429.53,294.61,429.1,294.29,428.58,294.59L428.58,294.59z"/>
	<path class="st3" d="M438.44,300.34l-6.68,3.75c-0.52,0.29-0.95,1.1-0.95,1.79v7.47c0,0.69,0.43,1.01,0.95,0.72l6.68-3.75
		c0.52-0.29,0.95-1.1,0.95-1.79v-7.47C439.39,300.37,438.96,300.05,438.44,300.34L438.44,300.34z"/>
	<path class="st6" d="M428.58,305.91l-6.68,3.75c-0.52,0.29-0.95,1.1-0.95,1.79v7.47c0,0.69,0.43,1.01,0.95,0.72l6.68-3.75
		c0.52-0.29,0.95-1.1,0.95-1.79v-7.47C429.53,305.94,429.1,305.62,428.58,305.91L428.58,305.91z"/>
</g>
</svg>
