<?xml version="1.0" encoding="utf-8"?>
<!-- Generator: Adobe Illustrator 25.4.1, SVG Export Plug-In . SVG Version: 6.00 Build 0)  -->
<svg version="1.1" id="Слой_1" xmlns="http://www.w3.org/2000/svg" xmlns:xlink="http://www.w3.org/1999/xlink" x="0px" y="0px"
	 viewBox="0 0 841.89 595.28" style="enable-background:new 0 0 841.89 595.28;" xml:space="preserve">
<style type="text/css">
	.st0{fill:#FCDF6B;}
	.st1{fill-rule:evenodd;clip-rule:evenodd;fill:#556571;}
	.st2{fill-rule:evenodd;clip-rule:evenodd;fill:#3B505B;}
	.st3{fill-rule:evenodd;clip-rule:evenodd;fill:#BFD2D8;}
	.st4{fill-rule:evenodd;clip-rule:evenodd;fill:#D0E5D9;}
	.st5{fill-rule:evenodd;clip-rule:evenodd;fill:#818EDA;}
	.st6{fill-rule:evenodd;clip-rule:evenodd;fill:#9FB1D1;}
	.st7{fill-rule:evenodd;clip-rule:evenodd;fill:#FED458;}
	.st8{fill-rule:evenodd;clip-rule:evenodd;fill:#FFF8BA;}
	.st9{fill-rule:evenodd;clip-rule:evenodd;fill:#6972D4;}
	.st10{fill-rule:evenodd;clip-rule:evenodd;fill:#FF7C49;}
	.st11{fill-rule:evenodd;clip-rule:evenodd;fill:#ECF7E5;}
</style>
<g>
	<path class="st0" d="M448.66,298.61c0,15.65-12.68,28.33-28.33,28.33S392,314.26,392,298.61c0-15.65,12.68-28.33,28.33-28.33
		S448.66,282.96,448.66,298.61L448.66,298.61z"/>
	<path class="st1" d="M402.06,282.54h34.02c1.4,0,2.55,1.15,2.55,2.55v9.67v11.63v2.7h-2.55h-6.23h-23.61h-4.19h-2.55v-2.7v-6.43
		v-14.86C399.51,283.69,400.66,282.54,402.06,282.54L402.06,282.54z"/>
	<path class="st2" d="M438.63,285.08l-0.02,24.02l0.03,0h2.5l0-21.34c0-0.83,0.09-2.78-0.12-3.44c-0.24-0.75-0.96-1.78-1.82-1.79
		l-3.06,0.02C437.46,282.58,438.56,283.68,438.63,285.08L438.63,285.08z"/>
	<path class="st3" d="M428.58,318.49c-2.16-0.18-3.74-0.99-3.76-4.21h-8.99c-0.02,3.22-1.6,4.02-3.76,4.21h-3.78h0
		c-0.35,0-0.63,0.28-0.63,0.63c0,0.35,0.28,0.63,0.63,0.63h0h24h0c0.35,0,0.63-0.28,0.63-0.63c0-0.35-0.28-0.63-0.63-0.63h0H428.58
		L428.58,318.49z"/>
	<path class="st4" d="M420.49,318.49l4.17,0c-1.29-0.49-1.35-0.97-1.5-1.89h-0.31l-3.21,0v0h-2.35v0l-0.78,0h-1.12
		c-0.48,1.03-1.29,1.64-3.12,1.89l4.69,0l0.04,0h3.45L420.49,318.49L420.49,318.49z"/>
	<polygon class="st5" points="436.09,285.07 438.61,285.07 438.61,306.62 436.09,306.62 436.09,285.07 	"/>
	<polygon class="st6" points="402.02,285.07 436.09,285.07 436.09,306.62 402.02,306.62 402.02,285.07 	"/>
	<polygon class="st7" points="415.28,300.32 419.06,300.32 419.06,304.1 415.28,304.1 415.28,300.32 	"/>
	<polygon class="st8" points="408.98,300.32 412.76,300.32 412.76,304.1 408.98,304.1 408.98,300.32 	"/>
	<polygon class="st9" points="427.8,300.32 431.58,300.32 431.58,304.1 427.8,304.1 427.8,300.32 	"/>
	<polygon class="st10" points="421.5,300.32 425.28,300.32 425.28,304.1 421.5,304.1 421.5,300.32 	"/>
	<path class="st3" d="M402.22,314.29h36.2c1.49,0,2.71-1.22,2.71-2.71c0-8.51,0,5.85,0-2.66h-2.71h-6.63h-25.12h-4.46h-2.71
		c0,8.51,0-5.85,0,2.66C399.51,313.06,400.73,314.29,402.22,314.29L402.22,314.29z"/>
	<path class="st11" d="M402.06,314.29h34.02c1.4,0,2.55-1.15,2.55-2.55c0-8,0,5.5,0-2.5h-2.55h-6.23h-23.61h-4.19h-2.55
		c0,8,0-5.5,0,2.5C399.51,313.14,400.66,314.29,402.06,314.29L402.06,314.29z"/>
</g>
</svg>
