<?xml version="1.0" encoding="utf-8"?>
<!-- Generator: Adobe Illustrator 25.4.1, SVG Export Plug-In . SVG Version: 6.00 Build 0)  -->
<svg version="1.1" id="Слой_1" xmlns="http://www.w3.org/2000/svg" xmlns:xlink="http://www.w3.org/1999/xlink" x="0px" y="0px"
	 viewBox="0 0 56.69 56.69" style="enable-background:new 0 0 56.69 56.69;" xml:space="preserve">
<style type="text/css">
	.st0{fill:#FCDF6B;}
	.st1{fill:#FFFFFF;}
	.st2{fill:#F47920;}
	.st3{fill:#364851;}
	.st4{fill:#1C75BC;}
</style>
<circle id="XMLID_8_" class="st0" cx="28.35" cy="28.35" r="28.33"/>
<g>
	<path class="st1" d="M44.12,46.99H12.58V29.65l13.06-12.86c0.24-0.28,1.32-1.4,2.91-1.4c1.03,0,2,0.47,2.9,1.38l12.67,12.9V46.99"
		/>
	<path class="st2" d="M49.36,28.11L32.07,10.97c0,0-3.37-3.24-7.58,0.62L7.28,28.05c0,0-0.21,2.61,2.54,1.51L25.46,14.1
		c0,0,2.61-2.78,5.35-0.44l16.41,16.17C47.22,29.83,49.83,30.8,49.36,28.11"/>
	<polyline class="st2" points="20.37,11.72 13.55,11.72 13.55,22.06 20.59,15.33 20.37,11.72 	"/>
	<rect x="29.52" y="30.78" class="st3" width="2.2" height="1.8"/>
	<rect x="29.52" y="27.28" class="st3" width="2.2" height="1.8"/>
	<rect x="24.97" y="30.78" class="st3" width="2.2" height="1.8"/>
	<rect x="24.97" y="27.28" class="st3" width="2.2" height="1.8"/>
	<g>
		<path class="st4" d="M44.12,46.99H12.58V29.65l13.06-12.86c0.24-0.28,1.32-1.4,2.91-1.4c1.03,0,2,0.47,2.9,1.38l12.67,12.9V46.99
			 M14.59,44.98H42.1v-14.5L30,18.18l-1.46-0.76l-1.4,0.7l-0.08,0.07L14.59,30.5V44.98z"/>
		<rect x="29.52" y="30.78" class="st4" width="2.2" height="1.8"/>
		<rect x="29.52" y="27.28" class="st4" width="2.2" height="1.8"/>
		<rect x="24.97" y="30.78" class="st4" width="2.2" height="1.8"/>
		<rect x="24.97" y="27.28" class="st4" width="2.2" height="1.8"/>
	</g>
</g>
</svg>
