<?xml version="1.0" encoding="utf-8"?>
<!-- Generator: Adobe Illustrator 25.4.1, SVG Export Plug-In . SVG Version: 6.00 Build 0)  -->
<svg version="1.1" id="Слой_1" xmlns="http://www.w3.org/2000/svg" xmlns:xlink="http://www.w3.org/1999/xlink" x="0px" y="0px"
	 viewBox="0 0 56.69 56.69" style="enable-background:new 0 0 56.69 56.69;" xml:space="preserve">
<style type="text/css">
	.st0{fill:#FCDF6B;}
	.st1{fill:#FFFFFF;}
	.st2{fill:#1C75BC;}
	.st3{fill:#F47920;}
</style>
<circle id="XMLID_5_" class="st0" cx="28.35" cy="28.35" r="28.33"/>
<path class="st1" d="M44.51,46.85H12.18c-1.29,0-2.33-1.04-2.33-2.33V12.18c0-1.29,1.04-2.33,2.33-2.33h32.33
	c1.29,0,2.33,1.04,2.33,2.33v32.33C46.85,45.8,45.8,46.85,44.51,46.85z"/>
<path class="st2" d="M44.48,8.22H12.15c-2.11,0-3.83,1.72-3.83,3.83v32.33c0,2.11,1.72,3.83,3.83,3.83h32.33
	c2.11,0,3.83-1.72,3.83-3.83V12.05C48.31,9.94,46.59,8.22,44.48,8.22z M44.97,42.35c0,1.4-1.13,2.53-2.53,2.53H14.19
	c-1.4,0-2.53-1.13-2.53-2.53V14.1c0-1.4,1.13-2.53,2.53-2.53h28.25c1.4,0,2.53,1.13,2.53,2.53V42.35z"/>
<g>
	<path class="st3" d="M5.75,29.37c3.03,2.66,4.14,3.73,6.27,5.61c2.18,1.92,3.91,3.87,7.29,6.2c1.46,1.01,3.67,1.57,5.25,1.31
		c1.98-0.33,4.27-1.94,6.19-4.38c8.56-10.88,11.96-17.25,20.24-28.36c1.92-2.58-1.84-4.88-3.74-2.32
		c-0.88,1.19-20.56,25.83-21.76,26.74c-0.74,0.56-1.43,0.61-2.36,0.64c-1,0.03-2.82-0.93-4.97-2.38c-1.33-0.9-10.64-8.17-11.05-8.53
		c-0.44-0.38-0.97-0.58-1.5-0.62c-1.05-0.08-2.13,0.42-2.65,1.15C1.51,26.43,4.32,28.12,5.75,29.37z"/>
</g>
</svg>
