<?xml version="1.0" encoding="utf-8"?>
<!-- Generator: Adobe Illustrator 25.4.1, SVG Export Plug-In . SVG Version: 6.00 Build 0)  -->
<svg version="1.1" id="Слой_1" xmlns="http://www.w3.org/2000/svg" xmlns:xlink="http://www.w3.org/1999/xlink" x="0px" y="0px"
	 viewBox="0 0 841.89 595.28" style="enable-background:new 0 0 841.89 595.28;" xml:space="preserve">
<style type="text/css">
	.st0{fill:#FCDF6B;}
	.st1{fill-rule:evenodd;clip-rule:evenodd;fill:#E34555;}
	.st2{fill-rule:evenodd;clip-rule:evenodd;fill:#FFFEFE;}
	.st3{fill-rule:evenodd;clip-rule:evenodd;fill:#ED5F71;}
	.st4{fill-rule:evenodd;clip-rule:evenodd;fill:#F491AA;}
	.st5{fill-rule:evenodd;clip-rule:evenodd;fill:#384052;}
	.st6{fill-rule:evenodd;clip-rule:evenodd;fill:#4D5671;}
	.st7{fill-rule:evenodd;clip-rule:evenodd;fill:#678BC6;}
	.st8{fill-rule:evenodd;clip-rule:evenodd;fill:#4B5DA7;}
	.st9{fill-rule:evenodd;clip-rule:evenodd;fill:#282D3A;}
	.st10{fill-rule:evenodd;clip-rule:evenodd;fill:#89AED7;}
	.st11{fill-rule:evenodd;clip-rule:evenodd;fill:#5C76A8;}
</style>
<g>
	<path class="st0" d="M448.66,298.61c0,15.65-12.68,28.33-28.33,28.33S392,314.26,392,298.61c0-15.65,12.68-28.33,28.33-28.33
		S448.66,282.96,448.66,298.61L448.66,298.61z"/>
	<path class="st1" d="M408.15,283.34l-0.57,0.63c-0.96,0.99-2.74,3.54-3.42,4.71c-1.16,1.98-2.19,4.13-2.89,6.38
		c-0.37,1.19-0.69,2.5-0.9,3.75c-0.16,0.95-0.33,3.55-0.15,4.45c0.04,0.22,0.03,0.31,0.04,0.52c0.01,0.22,0.06,0.3,0.09,0.54
		c0.05,0.33,0.12,0.62,0.19,0.95c0.33,1.44,1.02,2.75,2.01,3.81l0.42,0.4c0.2,0.2,0.04-0.05,0.17,0.24c0.42,0.47,1.85,1.01,2.55,1.2
		c2.89,0.8,6.49-0.85,8.75-2.39c2.8-1.9,5.14-4.57,7-7.35l0.32-0.49c0.01-0.01,0.01-0.03,0.02-0.04c0-0.01,0.01-0.03,0.02-0.04
		l-1.87-1.1c-0.05,0.53-2.22,3.05-2.45,3.32c-2.5,2.82-7.76,6.57-11.73,4.23c-2.52-1.49-3.32-4.8-2.95-8.45
		c0.31-3.05,1.62-6.25,2.98-8.56c1.58-2.71,3.33-4.72,5.29-6.32c1.85-1.51,5.3-3.57,8.41-2.62c2.86,0.87,4.18,3.8,4.15,7.39
		c-0.03,2.82-0.89,5.62-2.02,8.08c-0.14,0.3-0.37,0.7-0.47,0.99l1.92,1.17c-0.16-0.06-0.02,0.01-0.08-0.14
		c0.93-2.11,1.25-2.38,2.09-4.97c1.37-4.22,2.05-10.85-1.28-14.12c-0.71-0.7-1.08-0.95-2.07-1.46c-0.64-0.13-1.13-0.43-2.06-0.48
		c-0.74-0.03-1.65-0.03-2.32,0.12c-1.42,0.33-2.54,0.68-3.67,1.32C411.48,280.25,409.62,281.72,408.15,283.34L408.15,283.34z"/>
	<path class="st2" d="M419.93,299.5l-1.58-0.9c-0.23,0.05-0.4,0.43-0.53,0.61l-1.47,1.8c-5.28,5.8-12.02,4.67-11.16-3.37
		c0.47-4.39,3.17-8.83,6.24-11.38c1.4-1.16,3.97-2.8,6.42-2.17c2.21,0.57,3.33,2.73,3.35,5.49c0.01,2.02-0.42,3.69-1.11,5.47
		c-0.17,0.43-0.61,1.28-0.64,1.57c0.21,0.18,1.47,0.93,1.69,0.94c0.09-0.29,0.33-0.69,0.47-0.99c1.13-2.47,1.99-5.26,2.02-8.08
		c0.03-3.59-1.29-6.52-4.15-7.39c-3.11-0.95-6.56,1.11-8.41,2.62c-1.96,1.6-3.71,3.61-5.29,6.32c-1.35,2.32-2.67,5.51-2.98,8.56
		c-0.37,3.66,0.42,6.97,2.95,8.45c3.96,2.34,9.22-1.41,11.73-4.23C417.71,302.55,419.87,300.03,419.93,299.5L419.93,299.5z"/>
	<path class="st1" d="M418.35,298.59l-1.89-1.1c-0.25,0.63-2,2.38-2.53,2.76c-3.32,2.4-6.84,1.34-6.27-3.78
		c0.48-4.26,4.8-9.97,8.54-9.3c3.16,0.56,2.82,4.83,1.88,7.37l-0.31,0.79c-0.12,0.24,0.02,0.1-0.19,0.2l1.88,1.08
		c0.04-0.29,0.48-1.14,0.64-1.57c0.69-1.78,1.12-3.45,1.11-5.47c-0.02-2.76-1.13-4.92-3.35-5.49c-2.46-0.63-5.02,1.01-6.42,2.17
		c-3.08,2.55-5.77,6.98-6.24,11.38c-0.81,7.56,5.1,9.01,10.2,4.33C416.29,301.15,417.75,299.52,418.35,298.59L418.35,298.59z"/>
	<path class="st3" d="M403.14,309.71c-0.13-0.29,0.03-0.04-0.17-0.24l-0.42-0.4c-0.99-1.06-1.68-2.37-2.01-3.81
		c-0.08-0.33-0.14-0.62-0.19-0.95c-0.04-0.24-0.08-0.32-0.09-0.54c-0.01-0.21,0-0.3-0.04-0.52c-0.18-0.9-0.01-3.5,0.15-4.45
		c0.21-1.26,0.53-2.56,0.9-3.75c0.7-2.26,1.72-4.4,2.89-6.38c0.68-1.17,2.46-3.72,3.42-4.71l0.57-0.63
		c-0.32-0.02-1.57-0.83-1.95-1.05c-0.35-0.2-0.58-0.34-0.95-0.56c-0.29-0.17-0.65-0.48-1.01-0.44c-3.29,3.2-6.39,9.17-7.42,14.03
		c-0.9,4.25-0.77,9.71,2.87,12.39C400.08,308.02,402.79,309.61,403.14,309.71L403.14,309.71z"/>
	<path class="st2" d="M416.46,297.49l-1.58-0.94c-0.23,0.06-0.65,0.6-0.84,0.77c-0.85,0.79-2.38,1.59-3.39,0.65
		c-1.28-1.19-0.43-3.71,0.23-4.9c2.13-3.8,6.07-3.87,5.39,0.26c-0.07,0.45-0.29,0.94-0.31,1.28l1.61,0.91
		c0.21-0.1,0.07,0.04,0.19-0.2l0.31-0.79c0.93-2.54,1.28-6.8-1.88-7.37c-3.74-0.67-8.06,5.04-8.54,9.3c-0.69,6.17,4.5,6.46,8.18,1.9
		C416.02,298.14,416.41,297.83,416.46,297.49L416.46,297.49z"/>
	<path class="st4" d="M404.24,281.29c0.36-0.03,0.73,0.28,1.01,0.44c0.37,0.21,0.6,0.35,0.95,0.56c0.38,0.22,1.63,1.02,1.95,1.05
		c1.47-1.61,3.33-3.09,5.53-4.33c1.13-0.64,2.25-0.99,3.67-1.32c0.67-0.15,1.58-0.16,2.32-0.12c0.92,0.04,1.41,0.34,2.06,0.48
		c-0.16-0.21-1.62-1-2.01-1.22c-0.71-0.42-1.32-0.82-2.17-1.11c-3.94-1.38-8.97,1.37-11.68,3.96
		C405.31,280.21,404.68,280.73,404.24,281.29L404.24,281.29z"/>
	<path class="st5" d="M414.88,296.55l1.58,0.94l1.89,1.1l1.58,0.9l1.87,1.1l6,3.5c0.28,0.1,3.66,2.06,3.78,2.21l0.77,0.43l1.15,0.65
		l3.81,2.27l0.7,0.37l0.87,0.44c-0.33-0.66-0.14-0.82,0.2-1.48l0.02-0.05l-0.85-0.44l-0.41-0.24l-11.89-6.92
		c-0.99-0.58-2.23-1.28-3.28-1.91c-1-0.6-2.25-1.28-3.28-1.91c-0.62-0.37-6.33-3.72-6.6-3.78c-0.24,0.19-0.42,0.57-0.3,1.05
		c0.09,0.34,0.31,0.55,0.63,0.73C413.73,295.89,414.31,296.2,414.88,296.55L414.88,296.55z"/>
	<path class="st1" d="M414.88,296.55c-0.57-0.35-1.15-0.66-1.77-1.03c-0.31-0.18-0.54-0.39-0.63-0.73c-0.13-0.48,0.06-0.86,0.3-1.05
		c0.45-0.64,1.16-0.32,1.7-0.01c0.49,0.28,1.08,0.59,1.49,0.88c0.01-0.34,0.23-0.84,0.31-1.28c0.68-4.13-3.26-4.06-5.39-0.26
		c-0.67,1.19-1.52,3.71-0.23,4.9c1.01,0.94,2.54,0.13,3.39-0.65C414.23,297.15,414.65,296.61,414.88,296.55L414.88,296.55z"/>
	<path class="st6" d="M412.78,293.75c0.27,0.06,5.98,3.41,6.6,3.78c1.03,0.63,2.28,1.31,3.28,1.91c1.05,0.63,2.29,1.33,3.28,1.91
		l12.3,7.16l0.85,0.44c0.26-0.22,0.4-0.32,0.88-0.32c-0.39-0.25-1.21-0.75-1.47-0.86c-0.26-0.05-0.24,0.03-0.46,0.13l-0.2-0.13
		c-0.45-0.26-3.44-1.93-3.6-2.14c0.14-0.16,0.12-0.07,0.18-0.26l-1.63-0.98c-0.35,0-0.18,0.05-0.48,0.16
		c-0.64-0.29-1.29-0.72-1.93-1.09c-0.33-0.19-0.59-0.34-0.95-0.55c-0.19-0.11-0.3-0.17-0.47-0.27c-0.1-0.06-0.14-0.08-0.22-0.12
		c-0.13-0.08-0.12-0.08-0.22-0.18l0.24-0.18c-0.05-0.1,0.04-0.06-0.08-0.12l-5.61-3.3l-1.92-1.17c-0.22-0.02-1.48-0.77-1.69-0.94
		l-1.88-1.08l-1.61-0.91c-0.41-0.29-1-0.59-1.49-0.88C413.94,293.43,413.23,293.11,412.78,293.75L412.78,293.75z"/>
	<path class="st7" d="M428.69,302.02c0.12,0.06,0.03,0.02,0.08,0.12l-0.24,0.18c0.1,0.11,0.08,0.1,0.22,0.18
		c0.08,0.05,0.12,0.07,0.22,0.12c0.18,0.1,0.28,0.16,0.47,0.27c0.36,0.21,0.62,0.36,0.95,0.55c0.64,0.37,1.29,0.8,1.93,1.09
		c0.3-0.11,0.13-0.16,0.48-0.16c0.15-0.32,0.93-1.23,1.17-1.55c0.25-0.33,1.05-1.24,1.17-1.55c-0.26,0.03-0.13,0.02-0.36,0.11
		c-0.49-0.25-0.98-0.56-1.53-0.87c-0.33-0.19-1.19-0.8-1.52-0.74c-0.31,0.12-1.09,0.82-1.42,1.09c-0.31,0.26-1.14,0.84-1.37,1.15
		L428.69,302.02L428.69,302.02z"/>
	<path class="st7" d="M434.42,305.36c-0.06,0.19-0.04,0.1-0.18,0.26c0.16,0.21,3.16,1.88,3.6,2.14c0.39,0,0.9-0.72,1.14-1.06
		c0.32-0.45,1.25-1.71,1.64-2.01c-0.52-0.03-2.35-1.32-3.07-1.64l-0.21,0.08c-0.17,0.06-1.21,0.93-1.43,1.12
		C435.62,304.49,434.77,305.28,434.42,305.36L434.42,305.36z"/>
	<path class="st7" d="M433.81,311.36l-0.19,0l-2.05-5.06c-0.12-0.15-3.5-2.11-3.78-2.21l2.8,5.56c0.14,0.19,2.19,1.31,2.61,1.55
		C433.43,311.35,433.61,311.53,433.81,311.36L433.81,311.36z"/>
	<path class="st7" d="M439.56,314.64l-0.24,0.03l-2.03-5.03l-3.81-2.27l2.24,4.45c0.79,1.57,0.44,1.12,2.67,2.38
		c0.16,0.09,0.34,0.19,0.52,0.3c0.07,0.04,0.17,0.12,0.26,0.16C439.39,314.76,439.38,314.8,439.56,314.64L439.56,314.64z"/>
	<path class="st8" d="M433.81,311.36l0.21-0.07c-0.01-0.47-1.5-3.79-1.77-4.5c0.07-0.12-0.04-0.03,0.09-0.05l-0.77-0.43l2.05,5.06
		L433.81,311.36L433.81,311.36z"/>
	<path class="st8" d="M439.56,314.64l0.19-0.08c-0.03-0.35-0.73-1.91-0.89-2.31l-0.86-2.23l-0.7-0.37c0.26,0.72,1.92,4.58,2.03,5.03
		L439.56,314.64L439.56,314.64z"/>
	<path class="st9" d="M439.08,308.94c-0.35,0.7-0.55,0.85-0.22,1.52h0c1.32,0.04,1.67-1.81,1.01-1.87
		C439.39,308.59,439.34,308.72,439.08,308.94L439.08,308.94z"/>
	<path class="st10" d="M437.35,303.13l0.21-0.08c0.71,0.32,2.55,1.61,3.07,1.64l0.21-0.09l0.07-0.13l-2.99-1.74
		C437.67,302.85,437.5,302.96,437.35,303.13L437.35,303.13z"/>
	<path class="st10" d="M431.72,299.79c0.33-0.06,1.2,0.55,1.52,0.74c0.55,0.31,1.04,0.62,1.53,0.87c0.23-0.09,0.1-0.09,0.36-0.11
		l0.06-0.17c-0.53-0.23-2.81-1.68-3.02-1.66C432.01,299.48,431.79,299.68,431.72,299.79L431.72,299.79z"/>
	<path class="st11" d="M440.63,304.69c-0.73,0.42-2.15,3.08-2.79,3.07l0.2,0.13c0.22-0.1,0.2-0.18,0.46-0.13
		c0.08-0.34,0.92-1.28,1.17-1.61c0.21-0.28,0.39-0.49,0.6-0.76c0.18-0.23,0.44-0.53,0.58-0.79L440.63,304.69L440.63,304.69z"/>
</g>
</svg>
