<?xml version="1.0" encoding="utf-8"?>
<!-- Generator: Adobe Illustrator 25.4.1, SVG Export Plug-In . SVG Version: 6.00 Build 0)  -->
<svg version="1.1" xmlns="http://www.w3.org/2000/svg" xmlns:xlink="http://www.w3.org/1999/xlink" x="0px" y="0px"
	 viewBox="0 0 56.69 56.69" style="enable-background:new 0 0 56.69 56.69;" xml:space="preserve">
<style type="text/css">
	.st0{fill:#FCDF6B;}
	.st1{fill:#138B9A;}
	.st2{fill:#FEF0C2;}
	.st3{fill:#FFFFFF;}
	.st4{fill:#ED1C24;}
	.st5{fill:#F15B40;}
</style>
<g id="Слой_2">
</g>
<g id="Слой_1">
	<circle id="XMLID_5_" class="st0" cx="28.35" cy="28.35" r="28.33"/>
	<path class="st1" d="M29.48,51.98l2.34-1.93l0.47-4.46l-0.41,0.13c0,0-1.62,0.56-3.69,0.56l-3.4-0.56l-0.38-0.13l0.31,4.54
		l2.18,1.85H29.48"/>
	<path class="st2" d="M28.34,10.79c-7.15,0-12.94,6.08-12.94,13.57c0,3.65,1.37,7.09,3.85,9.65c2.05,3.89,2.2,5.78,2.23,6.08
		c-0.83,3.37,1.51,5.11,1.74,5.29c0.11,0.07,1.57,1.13,4.5,1.13c1.67,0,3.56-0.34,5.47-1.06l0.11-0.04h0.03
		c0.04-0.04,2.61-1.78,1.75-5.33c0.05-0.31,0.22-2.14,2.2-5.92c2.52-2.54,4.01-6.1,4.01-9.81C41.3,16.87,35.52,10.79,28.34,10.79"/>
	<circle class="st3" cx="28.35" cy="24.1" r="10.33"/>
	<path class="st4" d="M27.04,26.79h2.63l0.51-8.64h-0.03c0-0.02,0.01-0.03,0.01-0.05c0-1-0.81-1.81-1.81-1.81
		c-1,0-1.81,0.81-1.81,1.81c0,0.02,0,0.03,0.01,0.05h-0.01L27.04,26.79z M28.34,27.52c-1.18,0-2,0.82-2,2.04
		c0,1.16,0.82,2.02,2,2.02h0.02c1.19,0,2-0.86,2-2.02C30.34,28.34,29.53,27.52,28.34,27.52z"/>
	<g>
		<path class="st5" d="M28.35,8.59c-0.83,0-1.5-0.67-1.5-1.5V4.25c0-0.83,0.67-1.5,1.5-1.5c0.83,0,1.5,0.67,1.5,1.5v2.83
			C29.85,7.92,29.17,8.59,28.35,8.59z"/>
		<path class="st5" d="M19.36,12c-0.63,0.53-1.58,0.45-2.11-0.18l-1.82-2.17c-0.53-0.63-0.45-1.58,0.18-2.11
			c0.63-0.53,1.58-0.45,2.11,0.18l1.82,2.17C20.07,10.52,19.99,11.47,19.36,12z"/>
		<path class="st5" d="M14.4,20.15c-0.14,0.82-0.92,1.36-1.74,1.22l-2.79-0.49c-0.82-0.14-1.36-0.92-1.22-1.74
			c0.14-0.82,0.92-1.36,1.74-1.22l2.79,0.49C14,18.56,14.55,19.34,14.4,20.15z"/>
		<path class="st5" d="M16.08,29.65c0.41,0.72,0.17,1.63-0.55,2.05l-2.45,1.42c-0.72,0.41-1.63,0.17-2.05-0.55
			c-0.41-0.72-0.17-1.63,0.55-2.05l2.45-1.42C14.75,28.69,15.66,28.94,16.08,29.65z"/>
		<path class="st5" d="M37.17,12.11c-0.63-0.53-0.72-1.48-0.18-2.11l1.82-2.17c0.53-0.63,1.48-0.72,2.11-0.18
			c0.63,0.53,0.72,1.48,0.18,2.11l-1.82,2.17C38.75,12.56,37.81,12.64,37.17,12.11z"/>
		<path class="st5" d="M42.02,20.15c-0.14-0.82,0.4-1.59,1.22-1.74l2.79-0.49c0.82-0.14,1.59,0.4,1.74,1.22
			c0.14,0.82-0.4,1.59-1.22,1.74l-2.79,0.49C42.94,21.51,42.16,20.97,42.02,20.15z"/>
		<path class="st5" d="M40.74,29.78c0.41-0.72,1.33-0.96,2.05-0.55l2.45,1.42c0.72,0.41,0.96,1.33,0.55,2.05
			c-0.41,0.72-1.33,0.96-2.05,0.55l-2.45-1.42C40.57,31.41,40.33,30.5,40.74,29.78z"/>
	</g>
</g>
</svg>
