<?xml version="1.0" encoding="utf-8"?>
<!-- Generator: Adobe Illustrator 25.4.1, SVG Export Plug-In . SVG Version: 6.00 Build 0)  -->
<svg version="1.1" id="Слой_1" xmlns="http://www.w3.org/2000/svg" xmlns:xlink="http://www.w3.org/1999/xlink" x="0px" y="0px"
	 viewBox="0 0 56.69 56.69" style="enable-background:new 0 0 56.69 56.69;" xml:space="preserve">
<style type="text/css">
	.st0{fill:#FCDF6B;}
	.st1{clip-path:url(#XMLID_00000074438093846871700750000016843310056307597195_);fill:#556683;}
	.st2{clip-path:url(#XMLID_00000074438093846871700750000016843310056307597195_);fill:#DAD9D9;}
	.st3{clip-path:url(#XMLID_00000074438093846871700750000016843310056307597195_);fill:#1C75BC;}
	.st4{clip-path:url(#XMLID_00000074438093846871700750000016843310056307597195_);fill:#A5BAE0;}
	.st5{clip-path:url(#XMLID_00000074438093846871700750000016843310056307597195_);fill:#F47920;}
</style>
<circle id="XMLID_14_" class="st0" cx="28.35" cy="28.35" r="28.33"/>
<g>
	<g id="XMLID_8_">
		<defs>
			<rect id="XMLID_1_" x="10.79" y="8.08" width="35.12" height="41.34"/>
		</defs>
		<clipPath id="XMLID_00000126321559458181704210000014186659824695768988_">
			<use xlink:href="#XMLID_1_"  style="overflow:visible;"/>
		</clipPath>
		<path id="XMLID_6_" style="clip-path:url(#XMLID_00000126321559458181704210000014186659824695768988_);fill:#556683;" d="
			M45.9,37.02H15.75c-2.74,0-4.97,2.22-4.97,4.97c0,2.74,2.22,4.97,4.97,4.97H45.9V37.02z"/>
		<path id="XMLID_5_" style="clip-path:url(#XMLID_00000126321559458181704210000014186659824695768988_);fill:#DAD9D9;" d="
			M15.75,45.95c-2.18,0-3.96-1.78-3.96-3.96c0-2.18,1.78-3.97,3.96-3.97H45.9v7.93H15.75z"/>
		<path id="XMLID_4_" style="clip-path:url(#XMLID_00000126321559458181704210000014186659824695768988_);fill:#1C75BC;" d="
			M15.75,8.08c-2.55,0-4.65,1.92-4.93,4.4h-0.03v29.51c0-2.75,2.22-4.97,4.97-4.97h0.06V8.08H15.75z"/>
		
			<polygon id="XMLID_3_" style="clip-path:url(#XMLID_00000126321559458181704210000014186659824695768988_);fill:#A5BAE0;" points="
			40.93,8.08 28.34,8.08 15.82,8.08 15.82,37.02 39.72,37.02 40.93,37.02 45.9,37.02 45.9,25.57 45.9,12.49 45.9,8.08 		"/>
		
			<polygon id="XMLID_2_" style="clip-path:url(#XMLID_00000126321559458181704210000014186659824695768988_);fill:#F47920;" points="
			25.33,49.43 22.16,46.8 18.99,49.43 18.99,42.48 25.33,42.48 		"/>
	</g>
</g>
</svg>
