<?xml version="1.0" encoding="utf-8"?>
<!-- Generator: Adobe Illustrator 25.4.1, SVG Export Plug-In . SVG Version: 6.00 Build 0)  -->
<svg version="1.1" id="Слой_1" xmlns="http://www.w3.org/2000/svg" xmlns:xlink="http://www.w3.org/1999/xlink" x="0px" y="0px"
	 viewBox="0 0 841.89 595.28" style="enable-background:new 0 0 841.89 595.28;" xml:space="preserve">
<style type="text/css">
	.st0{fill:#FCDF6B;}
	.st1{fill-rule:evenodd;clip-rule:evenodd;fill:#D866D3;}
	.st2{fill-rule:evenodd;clip-rule:evenodd;fill:#F086E7;}
	.st3{fill-rule:evenodd;clip-rule:evenodd;fill:#E94141;}
	.st4{fill-rule:evenodd;clip-rule:evenodd;fill:#F96058;}
	.st5{fill-rule:evenodd;clip-rule:evenodd;fill:#F48500;}
	.st6{fill-rule:evenodd;clip-rule:evenodd;fill:#FFA411;}
	.st7{fill-rule:evenodd;clip-rule:evenodd;fill:#FFDB13;}
	.st8{fill-rule:evenodd;clip-rule:evenodd;fill:#0B9AFE;}
	.st9{fill-rule:evenodd;clip-rule:evenodd;fill:#0050C4;}
	.st10{fill-rule:evenodd;clip-rule:evenodd;fill:#0064DB;}
</style>
<g>
	<path class="st0" d="M448.66,298.61c0,15.65-12.68,28.33-28.33,28.33c-15.65,0-28.33-12.68-28.33-28.33
		c0-15.65,12.68-28.33,28.33-28.33C435.98,270.28,448.66,282.96,448.66,298.61L448.66,298.61z"/>
	<path class="st1" d="M435.76,279.92v23.32c0,0.31-0.26,0.57-0.57,0.57h-7.47c-0.31,0-0.57-0.26-0.57-0.57v-23.32
		c0-0.31,0.26-0.57,0.57-0.57h7.47C435.5,279.36,435.76,279.61,435.76,279.92L435.76,279.92z"/>
	<path class="st2" d="M433.55,279.92v22c0,0.31-0.26,0.57-0.57,0.57h-5.26c-0.31,0-0.57-0.26-0.57-0.57v-22
		c0-0.31,0.26-0.57,0.57-0.57h5.26C433.3,279.36,433.55,279.61,433.55,279.92L433.55,279.92z"/>
	<path class="st1" d="M439.1,282.82v3.36c0,0.31-0.26,0.57-0.57,0.57h-2.78v-4.49h2.78C438.85,282.25,439.1,282.51,439.1,282.82
		L439.1,282.82z"/>
	<path class="st2" d="M437.45,282.82v0.32v1.83c0,0.31-0.26,0.57-0.57,0.57h-1.12v-3.29h0.56h0.56h0.56h0.01v0.56V282.82
		L437.45,282.82L437.45,282.82L437.45,282.82z"/>
	<path class="st1" d="M439.1,289.98v3.36c0,0.31-0.26,0.57-0.57,0.57h-2.78v-4.49h2.78C438.85,289.41,439.1,289.67,439.1,289.98
		L439.1,289.98z"/>
	<path class="st2" d="M437.45,289.98v0.32v1.83c0,0.31-0.26,0.57-0.57,0.57h-1.12v-3.29h0.56h0.56h0.56h0.01v0.56V289.98
		L437.45,289.98L437.45,289.98L437.45,289.98z"/>
	<path class="st1" d="M439.1,297.14v3.36c0,0.31-0.26,0.57-0.57,0.57h-2.78v-4.49h2.78C438.85,296.57,439.1,296.82,439.1,297.14
		L439.1,297.14z"/>
	<path class="st2" d="M437.45,297.14v0.32v1.83c0,0.31-0.26,0.57-0.57,0.57h-1.12v-3.29h0.56h0.56h0.56h0.01v0.56V297.14
		L437.45,297.14L437.45,297.14L437.45,297.14z"/>
	<path class="st3" d="M405.52,282.68h16.43c0.31,0,0.57,0.26,0.57,0.57v7.47c0,0.31-0.26,0.57-0.57,0.57h-16.43
		c-0.31,0-0.57-0.26-0.57-0.57v-7.47C404.95,282.93,405.21,282.68,405.52,282.68L405.52,282.68z"/>
	<path class="st4" d="M405.52,282.68h14.13c0.31,0,0.57,0.26,0.57,0.57v6.13c0,0.31-0.26,0.57-0.57,0.57h-14.13
		c-0.31,0-0.57-0.26-0.57-0.57v-6.13C404.95,282.93,405.21,282.68,405.52,282.68L405.52,282.68z"/>
	<path class="st3" d="M410.18,279.33h1.63c0.31,0,0.57,0.26,0.57,0.57v2.78h-2.77v-2.78C409.61,279.59,409.87,279.33,410.18,279.33
		L410.18,279.33z"/>
	<path class="st4" d="M408.45,279.33h1.63c0.31,0,0.57,0.26,0.57,0.57v2.78h-2.77v-2.78C407.89,279.59,408.14,279.33,408.45,279.33
		L408.45,279.33z"/>
	<path class="st3" d="M417.38,279.33h1.63c0.31,0,0.57,0.26,0.57,0.57v2.78h-2.77v-2.78C416.81,279.59,417.06,279.33,417.38,279.33
		L417.38,279.33z"/>
	<path class="st4" d="M415.65,279.33h1.63c0.31,0,0.57,0.26,0.57,0.57v2.78h-2.77v-2.78C415.08,279.59,415.34,279.33,415.65,279.33
		L415.65,279.33z"/>
	<path class="st5" d="M400,293.43h30.45c0.35,0,0.64,0.29,0.64,0.64v14.08c0,0.35-0.29,0.64-0.64,0.64H400
		c-0.35,0-0.86-0.29-0.86-0.64v-14.08C399.14,293.71,399.65,293.43,400,293.43L400,293.43z"/>
	<path class="st6" d="M399.7,293.43h28.45c0.31,0,0.57,0.26,0.57,0.57v12.53c0,0.31-0.26,0.57-0.57,0.57H399.7
		c-0.31,0-0.57-0.26-0.57-0.57v-12.53C399.14,293.68,399.39,293.43,399.7,293.43L399.7,293.43z"/>
	<path class="st7" d="M404.21,295.52c1.24,0,2.25,1.01,2.25,2.25s-1.01,2.25-2.25,2.25c-1.24,0-2.25-1.01-2.25-2.25
		S402.97,295.52,404.21,295.52L404.21,295.52z"/>
	<path class="st7" d="M411.41,295.52c1.24,0,2.25,1.01,2.25,2.25s-1.01,2.25-2.25,2.25c-1.24,0-2.25-1.01-2.25-2.25
		S410.17,295.52,411.41,295.52L411.41,295.52z"/>
	<path class="st7" d="M418.63,295.52c1.24,0,2.25,1.01,2.25,2.25s-1.01,2.25-2.25,2.25c-1.24,0-2.25-1.01-2.25-2.25
		S417.39,295.52,418.63,295.52L418.63,295.52z"/>
	<path class="st7" d="M425.82,295.52c1.24,0,2.25,1.01,2.25,2.25s-1.01,2.25-2.25,2.25c-1.24,0-2.25-1.01-2.25-2.25
		S424.57,295.52,425.82,295.52L425.82,295.52z"/>
	<path class="st7" d="M404.21,302.25c1.24,0,2.25,1.01,2.25,2.25c0,1.24-1.01,2.25-2.25,2.25c-1.24,0-2.25-1.01-2.25-2.25
		C401.96,303.25,402.97,302.25,404.21,302.25L404.21,302.25z"/>
	<path class="st7" d="M411.41,302.25c1.24,0,2.25,1.01,2.25,2.25c0,1.24-1.01,2.25-2.25,2.25c-1.24,0-2.25-1.01-2.25-2.25
		C409.16,303.25,410.17,302.25,411.41,302.25L411.41,302.25z"/>
	<path class="st7" d="M418.63,302.25c1.24,0,2.25,1.01,2.25,2.25c0,1.24-1.01,2.25-2.25,2.25c-1.24,0-2.25-1.01-2.25-2.25
		C416.38,303.25,417.39,302.25,418.63,302.25L418.63,302.25z"/>
	<path class="st7" d="M425.82,302.25c1.24,0,2.25,1.01,2.25,2.25c0,1.24-1.01,2.25-2.25,2.25c-1.24,0-2.25-1.01-2.25-2.25
		C423.56,303.25,424.57,302.25,425.82,302.25L425.82,302.25z"/>
	<path class="st8" d="M424.7,312.56c1.24,0,2.25,1.01,2.25,2.25c0,1.24-1.01,2.25-2.25,2.25c-1.24,0-2.25-1.01-2.25-2.25
		C422.45,313.57,423.46,312.56,424.7,312.56L424.7,312.56z"/>
	<path class="st8" d="M431.89,312.56c1.24,0,2.25,1.01,2.25,2.25c0,1.24-1.01,2.25-2.25,2.25s-2.25-1.01-2.25-2.25
		C429.63,313.57,430.64,312.56,431.89,312.56L431.89,312.56z"/>
	<path class="st8" d="M426.91,308.65c0.78-2.85-3.63-4.06-4.41-1.16C421.72,310.39,426.09,311.62,426.91,308.65L426.91,308.65z"/>
	<path class="st8" d="M429.65,308.58c0.23,0.99,1.31,2.04,2.66,1.75c1.1-0.23,2.09-1.25,1.83-2.67c-0.21-1.14-1.33-2.08-2.7-1.82
		C430.38,306.05,429.33,307.21,429.65,308.58L429.65,308.58z"/>
	<path class="st9" d="M420.41,303.81h16.02c0.35,0,0.64,0.29,0.64,0.64v14.08c0,0.35-0.29,0.64-0.64,0.64h-16.02
		c-0.35,0-0.86-0.29-0.86-0.64v-14.08C419.55,304.1,420.06,303.81,420.41,303.81L420.41,303.81z"/>
	<path class="st10" d="M420.11,303.81h14.25c0.31,0,0.57,0.25,0.57,0.57v12.52c0,0.31-0.25,0.57-0.57,0.57h-14.25
		c-0.31,0-0.57-0.25-0.57-0.57v-12.52C419.55,304.07,419.8,303.81,420.11,303.81L420.11,303.81z"/>
	<path class="st8" d="M426.93,315.31c0.66-2.82-3.66-3.98-4.45-1.02c-0.36,1.34,0.62,2.5,1.71,2.75
		C425.58,317.37,426.66,316.44,426.93,315.31L426.93,315.31z"/>
	<path class="st8" d="M434.09,315.38c0.35-1.33-0.54-2.47-1.59-2.75c-1.43-0.38-2.49,0.56-2.8,1.56
		C428.82,317.01,433.27,318.46,434.09,315.38L434.09,315.38z"/>
	<path class="st8" d="M424.7,305.83c1.24,0,2.25,1.01,2.25,2.25c0,1.24-1.01,2.25-2.25,2.25c-1.24,0-2.25-1.01-2.25-2.25
		C422.45,306.84,423.46,305.83,424.7,305.83L424.7,305.83z"/>
	<path class="st8" d="M431.89,305.83c1.24,0,2.25,1.01,2.25,2.25c0,1.24-1.01,2.25-2.25,2.25s-2.25-1.01-2.25-2.25
		C429.63,306.84,430.64,305.83,431.89,305.83L431.89,305.83z"/>
</g>
</svg>
