<?xml version="1.0" encoding="utf-8"?>
<!-- Generator: Adobe Illustrator 25.4.1, SVG Export Plug-In . SVG Version: 6.00 Build 0)  -->
<svg version="1.1" id="Слой_1" xmlns="http://www.w3.org/2000/svg" xmlns:xlink="http://www.w3.org/1999/xlink" x="0px" y="0px"
	 viewBox="0 0 841.89 595.28" style="enable-background:new 0 0 841.89 595.28;" xml:space="preserve">
<style type="text/css">
	.st0{fill:#FCDF6B;}
	.st1{fill-rule:evenodd;clip-rule:evenodd;fill:#234C5B;}
	.st2{fill-rule:evenodd;clip-rule:evenodd;fill:#72AEE2;}
</style>
<g>
	<path class="st0" d="M448.66,298.61c0,15.65-12.68,28.33-28.33,28.33S392,314.26,392,298.61c0-15.65,12.68-28.33,28.33-28.33
		S448.66,282.96,448.66,298.61L448.66,298.61z"/>
	<path class="st1" d="M427.33,291.42c0.01-2.73,1.58-5.12,3.66-5.94c2.73-1.08,5.27-0.65,5.84-3.77c1.39-7.58-12.74-5.35-16.42,3.77
		c-2.41,5.97,0.06,5.98-3.52,5.95c-2.76-0.02-7.62-0.77-6.9,2.94c0.51,2.68,5.1,1.73,7.77,1.83c-0.16,2.13-1.22,5.85-1.76,8.14
		c-0.34,1.43-0.6,2.67-1.02,4c-1.59,5.08-7.06,3.09-8.82,6.31c-1.6,2.92,1.4,5.6,3.96,5.34c15.06-1.53,12.7-13.03,16.17-23.81
		c4.3,0.02,9.28,0.82,9.62-2C436.36,290.28,430.33,291.49,427.33,291.42L427.33,291.42z"/>
	<path class="st2" d="M426.35,290.48c0.01-2.73,1.58-5.12,3.66-5.94c2.73-1.08,5.27-0.65,5.84-3.77c1.39-7.58-12.74-5.35-16.42,3.77
		c-2.41,5.97,0.06,5.98-3.52,5.95c-2.76-0.02-7.62-0.77-6.9,2.94c0.51,2.68,5.1,1.73,7.77,1.83c-0.16,2.13-1.22,5.85-1.76,8.14
		c-0.34,1.43-0.6,2.67-1.02,4c-1.59,5.08-7.06,3.09-8.82,6.31c-1.6,2.92,1.4,5.6,3.96,5.34c15.06-1.53,12.7-13.03,16.17-23.81
		c4.3,0.02,9.28,0.82,9.62-2C435.38,289.33,429.34,290.54,426.35,290.48L426.35,290.48z"/>
</g>
</svg>
