<?xml version="1.0" encoding="utf-8"?>
<!-- Generator: Adobe Illustrator 25.4.1, SVG Export Plug-In . SVG Version: 6.00 Build 0)  -->
<svg version="1.1" id="Слой_1" xmlns="http://www.w3.org/2000/svg" xmlns:xlink="http://www.w3.org/1999/xlink" x="0px" y="0px"
	 viewBox="0 0 841.89 595.28" style="enable-background:new 0 0 841.89 595.28;" xml:space="preserve">
<style type="text/css">
	.st0{fill:#FCDF6B;}
	.st1{fill:#1C75BC;}
	.st2{fill:#EB5B51;}
	.st3{fill:#F6A30A;}
	.st4{fill:#FFFFFF;}
</style>
<g>
	<path class="st0" d="M448.66,298.61c0,15.65-12.68,28.33-28.33,28.33c-15.65,0-28.33-12.68-28.33-28.33
		c0-15.65,12.68-28.33,28.33-28.33C435.98,270.28,448.66,282.96,448.66,298.61L448.66,298.61z"/>
	<path class="st1" d="M440.08,318.92c-5.1,4.96-12.07,8.02-19.75,8.02c-7.68,0-14.64-3.06-19.75-8.02
		c4.07-1.18,8.81-1.56,11.77-4.04l1.41-1.54c0-1.88,0.75-4.76-0.96-5.91c-1.83-1.23-2.51-3.61-3.87-5.27
		c-0.95-1.14-2.45-1.8-2.96-3.26c-0.76-2.2-0.54-4.68,1.31-6.29c0.11-0.1,0.23-0.19,0.28-0.33c0.04-0.13,0.02-0.27-0.01-0.4
		c-0.27-1.3-0.6-2.56-0.6-3.9c0-7.39,5.99-13.38,13.37-13.38c7.39,0.01,13.37,5.99,13.37,13.38c0,1.33-0.33,2.6-0.59,3.9
		c-0.03,0.13-0.05,0.27-0.01,0.4c0.05,0.14,0.17,0.24,0.28,0.33c1.85,1.61,2.07,4.09,1.31,6.29c-0.51,1.47-2.01,2.12-2.96,3.26
		c-1.36,1.66-2.03,4.05-3.87,5.27c-1.71,1.15-0.96,4.03-0.96,5.91l1.41,1.54C431.27,317.37,436.01,317.74,440.08,318.92
		L440.08,318.92z"/>
	<path class="st2" d="M413.06,288.35c-1.57,0-2.85-1.28-2.85-2.85c0-1.57,1.28-2.85,2.85-2.85s2.85,1.28,2.85,2.85
		C415.91,287.08,414.63,288.35,413.06,288.35L413.06,288.35z"/>
	<path class="st2" d="M421.86,283.89c-0.22-1.22-0.7-2.36-1.36-3.35l0.2-0.2c0.34-0.34,1.29-1.85,0.95-2.19l-1.09-1.09
		c-0.34-0.34-1.85,0.61-2.19,0.95l-0.18,0.18c-1.03-0.72-2.21-1.23-3.49-1.47v0c0-0.48-0.4-2.18-0.88-2.18h-1.54
		c-0.41,0-0.75,1.44-0.85,2.18c-1.22,0.22-2.35,0.69-3.34,1.36l-0.06-0.06c-0.34-0.34-1.85-1.29-2.19-0.95l-1.09,1.09
		c-0.34,0.34,0.61,1.85,0.95,2.19l0.03,0.03c-0.72,1.03-1.24,2.21-1.47,3.5c-0.53,0.02-2.18,0.41-2.18,0.88v1.54
		c0,0.47,1.65,0.86,2.18,0.88c0.24,1.31,0.77,2.52,1.52,3.56c-0.44,0.64-0.99,1.62-0.74,1.87l1.09,1.09
		c0.29,0.29,1.4-0.33,1.94-0.73c0.99,0.67,2.13,1.14,3.35,1.37c0.02,0.53,0.41,2.18,0.88,2.18h1.54c0.47,0,0.86-1.65,0.88-2.18
		c1.29-0.24,2.47-0.75,3.5-1.48c0.46,0.39,1.76,1.16,2.08,0.84l1.09-1.09c0.28-0.28-0.43-1.46-0.89-2.08
		c0.67-0.99,1.15-2.13,1.37-3.35h0c0.48,0,2.18-0.4,2.18-0.88v-1.54C424.04,284.33,422.59,283.98,421.86,283.89L421.86,283.89z
		 M413.06,290.15c-2.57,0-4.65-2.08-4.65-4.65c0-2.57,2.08-4.65,4.65-4.65c2.57,0,4.65,2.08,4.65,4.65
		C417.71,288.07,415.62,290.15,413.06,290.15L413.06,290.15z"/>
	<path class="st3" d="M430.66,284.24c-1.15,0-2.08-0.93-2.08-2.08c0-1.15,0.93-2.08,2.08-2.08c1.15,0,2.08,0.93,2.08,2.08
		C432.73,283.31,431.81,284.24,430.66,284.24L430.66,284.24z"/>
	<path class="st3" d="M437.07,280.98c-0.16-0.89-0.51-1.72-0.99-2.44l0.15-0.15c0.25-0.25,0.94-1.35,0.69-1.6l-0.79-0.79
		c-0.25-0.25-1.35,0.44-1.6,0.69l-0.13,0.13c-0.75-0.52-1.61-0.9-2.54-1.07v0c0-0.35-0.29-1.59-0.64-1.59h-1.12
		c-0.3,0-0.55,1.05-0.62,1.59c-0.89,0.16-1.71,0.51-2.44,0.99L427,276.7c-0.25-0.25-1.35-0.94-1.6-0.69l-0.79,0.79
		c-0.25,0.25,0.44,1.35,0.69,1.6l0.02,0.02c-0.53,0.75-0.9,1.61-1.07,2.55c-0.39,0.01-1.59,0.3-1.59,0.64v1.12
		c0,0.34,1.2,0.62,1.59,0.64c0.18,0.95,0.56,1.83,1.1,2.59c-0.32,0.47-0.72,1.18-0.54,1.36l0.79,0.79c0.21,0.21,1.02-0.24,1.41-0.53
		c0.72,0.49,1.55,0.83,2.44,1c0.01,0.39,0.3,1.59,0.64,1.59h1.12c0.34,0,0.62-1.2,0.64-1.59c0.94-0.17,1.8-0.55,2.55-1.08
		c0.33,0.28,1.28,0.84,1.51,0.61l0.79-0.79c0.2-0.2-0.31-1.07-0.65-1.51c0.49-0.72,0.83-1.55,1-2.44h0c0.35,0,1.59-0.29,1.59-0.64
		v-1.12C438.66,281.3,437.61,281.05,437.07,280.98L437.07,280.98z M430.66,285.55c-1.87,0-3.39-1.52-3.39-3.39s1.52-3.39,3.39-3.39
		c1.87,0,3.39,1.52,3.39,3.39S432.53,285.55,430.66,285.55L430.66,285.55z"/>
	<path class="st4" d="M425.59,294.35c-0.57-0.28-0.81-0.97-0.53-1.55c0.28-0.57,0.97-0.81,1.55-0.53c0.57,0.28,0.81,0.97,0.53,1.55
		C426.86,294.39,426.17,294.63,425.59,294.35L425.59,294.35z"/>
	<path class="st4" d="M429.6,294.28c0.14-0.49,0.16-0.98,0.1-1.46l0.11-0.04c0.19-0.06,0.8-0.45,0.74-0.63l-0.2-0.59
		c-0.06-0.19-0.78-0.11-0.97-0.04l-0.1,0.03c-0.25-0.45-0.59-0.84-1.01-1.16l0,0c0.09-0.18,0.24-0.87,0.07-0.95l-0.56-0.27
		c-0.15-0.07-0.53,0.39-0.7,0.64c-0.48-0.13-0.98-0.16-1.46-0.1l-0.01-0.03c-0.06-0.19-0.45-0.8-0.63-0.74l-0.59,0.2
		c-0.19,0.06-0.11,0.78-0.04,0.97l0.01,0.02c-0.45,0.25-0.84,0.59-1.16,1.02c-0.2-0.09-0.87-0.24-0.95-0.07l-0.27,0.56
		c-0.08,0.17,0.45,0.61,0.64,0.71c-0.14,0.52-0.16,1.06-0.08,1.57c-0.28,0.16-0.65,0.42-0.6,0.55l0.2,0.59
		c0.05,0.16,0.57,0.13,0.84,0.08c0.24,0.42,0.57,0.79,0.98,1.09c-0.09,0.2-0.24,0.87-0.07,0.95l0.56,0.27
		c0.17,0.08,0.61-0.45,0.71-0.64c0.51,0.14,1.04,0.16,1.54,0.08c0.1,0.22,0.44,0.73,0.61,0.68l0.59-0.2
		c0.15-0.05,0.1-0.61,0.04-0.92c0.42-0.24,0.8-0.57,1.1-0.98l0,0c0.18,0.09,0.87,0.24,0.95,0.07l0.27-0.56
		C430.31,294.83,429.85,294.44,429.6,294.28L429.6,294.28z M425.27,295.01c-0.94-0.46-1.33-1.58-0.87-2.52
		c0.46-0.94,1.58-1.33,2.52-0.87c0.94,0.46,1.33,1.58,0.87,2.52C427.34,295.07,426.21,295.46,425.27,295.01L425.27,295.01z"/>
</g>
</svg>
