<?xml version="1.0" encoding="utf-8"?>
<!-- Generator: Adobe Illustrator 25.4.1, SVG Export Plug-In . SVG Version: 6.00 Build 0)  -->
<svg version="1.1" id="Слой_1" xmlns="http://www.w3.org/2000/svg" xmlns:xlink="http://www.w3.org/1999/xlink" x="0px" y="0px"
	 viewBox="0 0 56.69 56.69" style="enable-background:new 0 0 56.69 56.69;" xml:space="preserve">
<style type="text/css">
	.st0{fill:#FCDF6B;}
	.st1{fill:#5688C7;}
	.st2{fill:#F3F3F3;}
	.st3{fill:#D9D8D7;}
	.st4{fill:#1C75BC;}
	.st5{fill:#CFD8EE;}
	.st6{fill:#A5BAE0;}
	.st7{fill:#FFFFFF;}
	.st8{fill:#E6E5E5;}
</style>
<circle id="XMLID_5_" class="st0" cx="28.35" cy="28.35" r="28.33"/>
<g>
	<path class="st1" d="M47.99,32.99c0.38-0.74,0.74-1.46,1.06-2.13c1.82-3.82,4.14-6.3,2.89-10.5c-0.73-2.45-3.94-2.64-5.69-1.44
		c-0.69,0.47-1.32,0.99-1.95,1.51c1.23-2.41,2.3-4.87,2.78-7.42c0.47-2.47-1.99-4.35-4.23-4.11c-6.14,0.66-12.09,9.17-16.02,13.58
		c-3.3,3.7-11.46,10.91-11.44,16.29c0.02,4.71,7.37,5.65,7.36,0.89c-0.01-1.55,6.33-8.46,8.29-10.75c0.39-0.45,0.79-0.89,1.19-1.34
		c-2.18,4.51-4.51,9.06-6.21,13.78c-1.13,3.14,2.91,7.14,5.71,4.32c1.84-1.85,3.52-3.88,5.16-5.95c-1.15,2.66-2.11,5.41-2.16,8.1
		c-0.05,2.82,3.41,5.83,5.96,3.36c0.27-0.26,0.51-0.53,0.76-0.8c1.76,1.2,4.53,1.09,5.65-1.44c1.65-3.74,3.55-7.69,3.92-11.8
		C51.21,35.28,49.72,33.46,47.99,32.99z"/>
	<g>
		<path class="st2" d="M23.7,35.71l4.31-7.73l7.46-4.77c0.11,0.18,0.2,0.37,0.27,0.57c0.02,0.07,0.04,0.13,0.06,0.2l4.75,15.79
			l-16.05-3.78c-0.07-0.02-0.13-0.03-0.2-0.05C24.08,35.88,23.89,35.81,23.7,35.71"/>
		<polyline class="st3" points="40.54,39.77 27.4,31.33 27.03,31.04 24.48,35.99 40.54,39.77 		"/>
		<polyline class="st4" points="40.54,39.77 38.83,34.09 34.76,38.41 40.54,39.77 		"/>
		
			<rect x="22.94" y="8.17" transform="matrix(0.6853 -0.7282 0.7282 0.6853 -4.9672 24.475)" class="st5" width="5.79" height="19.63"/>
		
			<rect x="18.98" y="12.39" transform="matrix(0.6853 -0.7283 0.7283 0.6853 -9.2856 22.9141)" class="st6" width="5.79" height="19.63"/>
		
			<rect x="15" y="16.6" transform="matrix(0.6853 -0.7283 0.7283 0.6853 -13.606 21.3512)" class="st4" width="5.79" height="19.63"/>
		<path class="st5" d="M31,26.82c-1.16-1.1-1.22-2.93-0.12-4.09c1.1-1.16,2.93-1.22,4.09-0.12c1.16,1.1,1.22,2.93,0.12,4.09
			C34,27.86,32.16,27.92,31,26.82"/>
		<path class="st6" d="M27.03,31.04c-1.16-1.1-1.22-2.93-0.12-4.09c1.09-1.16,2.93-1.22,4.09-0.12c1.16,1.1,1.22,2.93,0.12,4.09
			C30.03,32.08,28.2,32.13,27.03,31.04"/>
		<path class="st4" d="M23.06,35.25c-1.16-1.1-1.22-2.93-0.12-4.09c1.1-1.16,2.93-1.22,4.09-0.12c1.16,1.1,1.22,2.93,0.12,4.09
			C26.06,36.29,24.23,36.35,23.06,35.25"/>
		
			<rect x="3.21" y="10.28" transform="matrix(0.6853 -0.7283 0.7283 0.6853 -5.8426 13.2575)" class="st7" width="18.41" height="6.21"/>
		
			<rect x="5.11" y="14.67" transform="matrix(0.6853 -0.7283 0.7283 0.6853 -10.3339 11.6324)" class="st8" width="6.37" height="6.21"/>
		<path class="st5" d="M2.25,15.67c-0.65-0.61-1.06-1.47-1.09-2.42c-0.03-0.96,0.33-1.84,0.94-2.49l7.14-7.59
			c0.61-0.65,1.47-1.06,2.42-1.09c0.96-0.03,1.84,0.33,2.49,0.94l1.99,1.88L4.24,17.54L2.25,15.67"/>
		<path class="st4" d="M8.21,13.32l-1.99-1.88c-0.65-0.61-1.06-1.47-1.09-2.42C5.1,8.07,5.46,7.19,6.07,6.54L2.1,10.76
			c-0.61,0.65-0.97,1.53-0.94,2.49c0.03,0.96,0.44,1.82,1.09,2.42l1.99,1.88L8.21,13.32"/>
	</g>
</g>
</svg>
