<?xml version="1.0" encoding="utf-8"?>
<!-- Generator: Adobe Illustrator 25.4.1, SVG Export Plug-In . SVG Version: 6.00 Build 0)  -->
<svg version="1.1" id="Слой_1" xmlns="http://www.w3.org/2000/svg" xmlns:xlink="http://www.w3.org/1999/xlink" x="0px" y="0px"
	 viewBox="0 0 56.69 56.69" style="enable-background:new 0 0 56.69 56.69;" xml:space="preserve">
<style type="text/css">
	.st0{fill:#FCDF6B;}
	.st1{fill:#1C75BC;}
</style>
<circle id="XMLID_5_" class="st0" cx="28.35" cy="28.35" r="28.33"/>
<path class="st1" d="M44.82,39.63c-0.07-0.76-0.13-1.51-0.49-2.2c-1.97-3.8-8.12-2.69-11.16-5.23l-0.86-0.93
	c0-1.14-0.45-2.88,0.58-3.58c1.11-0.74,1.52-2.19,2.34-3.19c0.57-0.69,1.49-1.09,1.79-1.98c0.46-1.33,0.33-2.83-0.79-3.81
	c-0.07-0.06-0.14-0.12-0.17-0.2c-0.03-0.08-0.01-0.16,0.01-0.24c0.16-0.79,0.36-1.55,0.36-2.36c0-4.47-3.62-8.1-8.1-8.1
	c-4.47,0-8.1,3.63-8.1,8.1c0,0.81,0.2,1.57,0.36,2.36c0.02,0.08,0.03,0.16,0.01,0.24c-0.03,0.08-0.1,0.14-0.17,0.2
	c-1.12,0.97-1.25,2.48-0.79,3.81c0.31,0.89,1.22,1.28,1.79,1.98c0.82,1.01,1.23,2.45,2.34,3.19c1.04,0.69,0.58,2.44,0.58,3.58
	l-0.86,0.93c-3.04,2.54-9.19,1.43-11.16,5.23c-0.36,0.69-0.42,1.45-0.49,2.2c-0.09,0.94-0.4,1.91-0.31,2.86
	c0.35,3.58,6.5,4.76,9.23,5.28c2.49,0.47,5.02,0.61,7.55,0.58c2.53,0.04,5.06-0.11,7.55-0.58c2.73-0.52,8.88-1.69,9.23-5.28
	C45.22,41.54,44.91,40.57,44.82,39.63z"/>
</svg>
