<?xml version="1.0" encoding="utf-8"?>
<!-- Generator: Adobe Illustrator 25.4.1, SVG Export Plug-In . SVG Version: 6.00 Build 0)  -->
<svg version="1.1" id="Слой_1" xmlns="http://www.w3.org/2000/svg" xmlns:xlink="http://www.w3.org/1999/xlink" x="0px" y="0px"
	 viewBox="0 0 841.89 595.28" style="enable-background:new 0 0 841.89 595.28;" xml:space="preserve">
<style type="text/css">
	.st0{fill:#FCDF6B;}
	.st1{fill:#808285;}
	.st2{fill:#BCBDC0;}
	.st3{fill:#FFFFFF;}
	.st4{fill:#249372;}
	.st5{fill:#4FABE0;}
	.st6{fill:#E54B42;}
	.st7{fill:#585959;}
	.st8{fill:#1C1C1B;}
	.st9{fill:#CBCBCB;}
</style>
<g>
	<path class="st0" d="M448.66,298.61c0,15.65-12.68,28.33-28.33,28.33c-15.65,0-28.33-12.68-28.33-28.33
		c0-15.65,12.68-28.33,28.33-28.33C435.98,270.28,448.66,282.96,448.66,298.61L448.66,298.61z"/>
	<path class="st1" d="M420.59,277.63c-0.41,0-0.81,0.02-1.22,0.05v18.53c0.57-0.27,1.19-0.42,1.84-0.42c2.71,0,4.91,2.56,4.91,5.71
		c0,1.39-0.43,2.66-1.13,3.65c-0.29,0.41-0.63,0.76-1,1.06c-0.33,0.26-0.68,0.47-1.06,0.64c-0.53,0.23-1.11,0.36-1.71,0.36
		c-0.65,0-1.27-0.15-1.84-0.42v15.25c0.4,0.03,0.81,0.05,1.22,0.05c4.98,0,6.01-2.33,4.62-8.72c-0.27-1.23-0.08-2.57,0.56-3.64
		c0.18-0.3,0.39-0.58,0.64-0.82c0.31-0.31,0.67-0.57,1.09-0.77c0.78-0.39,1.75-0.57,2.9-0.42c4.28,0.54,9.88-1.04,9.88-7.86
		C440.27,287.58,431.45,277.63,420.59,277.63L420.59,277.63z"/>
	<path class="st2" d="M416.3,301.5c0-2.4,1.27-4.44,3.07-5.29v-18.53c-10.3,0.71-18.46,10.37-18.46,22.18
		c0,11.82,8.16,21.47,18.46,22.18v-15.25C417.57,305.94,416.3,303.89,416.3,301.5L416.3,301.5z"/>
	<path class="st3" d="M415.66,309.23c1.5,2.03,1.3,4.71-0.43,6c-1.74,1.28-4.36,0.68-5.86-1.35c-1.5-2.03-1.3-4.71,0.43-6
		C411.54,306.6,414.16,307.2,415.66,309.23L415.66,309.23z"/>
	<path class="st4" d="M436.09,293.89c0.9,2.35,0,4.89-2.02,5.67c-2.02,0.77-4.39-0.51-5.29-2.86c-0.9-2.35,0-4.89,2.02-5.67
		C432.82,290.26,435.19,291.54,436.09,293.89L436.09,293.89z"/>
	<path class="st5" d="M411.48,299.37c0.03,2.52-1.7,4.58-3.86,4.61c-2.16,0.02-3.94-2-3.96-4.52c-0.03-2.52,1.7-4.59,3.86-4.61
		C409.68,294.82,411.45,296.85,411.48,299.37L411.48,299.37z"/>
	<path class="st6" d="M415.55,290.37c-1.84,1.73-4.53,1.85-6.01,0.28c-1.48-1.58-1.19-4.25,0.65-5.98c1.84-1.73,4.53-1.85,6.01-0.28
		C417.68,285.97,417.39,288.65,415.55,290.37L415.55,290.37z"/>
	<path class="st7" d="M424.21,289.3c-2.41-0.73-3.87-2.99-3.24-5.06c0.62-2.07,3.09-3.16,5.5-2.43c2.41,0.73,3.87,2.99,3.24,5.07
		C429.08,288.94,426.62,290.03,424.21,289.3L424.21,289.3z"/>
	<path class="st7" d="M407.36,287.69l-6.97-7.77c0,0,0.76,4.59,3.07,7.16c1.33,1.49,2.06,1.72,2.76,1.63L407.36,287.69
		L407.36,287.69z"/>
	<polygon class="st3" points="406.22,288.71 406.36,288.89 411.26,295.01 412.74,293.68 407.72,288.09 407.36,287.69 406.22,288.71 
			"/>
	<path class="st7" d="M412.74,293.68l-1.48,1.32l11.65,11.84c0.38-0.16,0.73-0.37,1.06-0.64L412.74,293.68L412.74,293.68z"/>
	<path class="st7" d="M425.76,309.73l6.96,7.07l0.42-0.37l-6.74-7.52C426.15,309.15,425.94,309.43,425.76,309.73L425.76,309.73z"/>
	<path class="st8" d="M424.98,305.15l-10.76-12.79l-1.48,1.32l11.24,12.52C424.35,305.91,424.69,305.55,424.98,305.15L424.98,305.15
		z"/>
	<path class="st8" d="M426.4,308.91l6.74,7.52l0.75-0.67l-6.41-7.62C427.07,308.34,426.71,308.6,426.4,308.91L426.4,308.91z"/>
	<path class="st8" d="M408.48,286.69c0.19-0.69,0.06-1.43-1.29-2.94c-2.31-2.57-6.77-3.82-6.79-3.82l6.97,7.77L408.48,286.69
		L408.48,286.69z"/>
	<polygon class="st9" points="408.48,286.69 407.36,287.69 407.72,288.09 412.74,293.68 414.22,292.36 408.48,286.69 	"/>
</g>
</svg>
