<?xml version="1.0" encoding="utf-8"?>
<!-- Generator: Adobe Illustrator 25.4.1, SVG Export Plug-In . SVG Version: 6.00 Build 0)  -->
<svg version="1.1" id="Слой_1" xmlns="http://www.w3.org/2000/svg" xmlns:xlink="http://www.w3.org/1999/xlink" x="0px" y="0px"
	 viewBox="0 0 56.69 56.69" style="enable-background:new 0 0 56.69 56.69;" xml:space="preserve">
<style type="text/css">
	.st0{fill:#FCDF6B;}
	.st1{fill:#1C75BC;}
	.st2{fill:#A5BAE0;}
</style>
<circle id="XMLID_5_" class="st0" cx="28.35" cy="28.35" r="28.33"/>
<g>
	<path class="st1" d="M33.68,34.45c-0.06-0.64-0.11-1.28-0.41-1.86c-1.66-3.21-6.87-2.27-9.44-4.43l-0.72-0.79
		c0-0.96-0.38-2.44,0.49-3.03c0.94-0.63,1.28-1.85,1.98-2.7c0.48-0.59,1.26-0.92,1.52-1.67c0.39-1.12,0.28-2.4-0.67-3.22
		c-0.06-0.05-0.12-0.1-0.14-0.17c-0.02-0.07-0.01-0.14,0.01-0.2c0.14-0.67,0.3-1.31,0.3-2c0-3.78-3.07-6.85-6.85-6.85
		c-3.78,0-6.85,3.07-6.85,6.85c0,0.68,0.17,1.33,0.3,2c0.01,0.07,0.03,0.14,0.01,0.2c-0.02,0.07-0.09,0.12-0.14,0.17
		c-0.95,0.82-1.06,2.09-0.67,3.22c0.26,0.75,1.03,1.09,1.52,1.67c0.7,0.85,1.04,2.07,1.98,2.7c0.88,0.59,0.49,2.06,0.49,3.03
		l-0.72,0.79c-2.57,2.15-7.78,1.21-9.44,4.43c-0.3,0.58-0.35,1.22-0.41,1.86c-0.07,0.8-0.34,1.62-0.26,2.42
		c0.3,3.03,5.5,4.03,7.81,4.46c2.11,0.4,4.25,0.52,6.39,0.49c2.14,0.03,4.28-0.09,6.39-0.49c2.31-0.44,7.51-1.43,7.81-4.46
		C34.02,36.07,33.76,35.25,33.68,34.45z"/>
	<path class="st2" d="M49.72,43.45c-0.06-0.64-0.11-1.28-0.41-1.86c-1.66-3.21-6.87-2.27-9.44-4.43l-0.72-0.79
		c0-0.96-0.38-2.44,0.49-3.03c0.94-0.63,1.28-1.85,1.98-2.7c0.48-0.59,1.26-0.92,1.52-1.67c0.39-1.12,0.28-2.4-0.67-3.22
		c-0.06-0.05-0.12-0.1-0.14-0.17c-0.02-0.07-0.01-0.14,0.01-0.2c0.14-0.67,0.3-1.31,0.3-2c0-3.78-3.07-6.85-6.85-6.85
		c-3.78,0-6.85,3.07-6.85,6.85c0,0.68,0.17,1.33,0.3,2c0.01,0.07,0.03,0.14,0.01,0.2c-0.02,0.07-0.09,0.12-0.14,0.17
		c-0.95,0.82-1.06,2.09-0.67,3.22c0.26,0.75,1.03,1.09,1.52,1.67c0.7,0.85,1.04,2.07,1.98,2.7c0.88,0.59,0.49,2.06,0.49,3.03
		l-0.72,0.79c-2.57,2.15-7.78,1.21-9.44,4.43c-0.3,0.58-0.35,1.22-0.41,1.86c-0.07,0.8-0.34,1.62-0.26,2.42
		c0.3,3.03,5.5,4.03,7.81,4.46c2.11,0.4,4.25,0.52,6.39,0.49c2.14,0.03,4.28-0.09,6.39-0.49c2.31-0.44,7.51-1.43,7.81-4.46
		C50.06,45.06,49.79,44.24,49.72,43.45z"/>
</g>
</svg>
