<?xml version="1.0" encoding="utf-8"?>
<!-- Generator: Adobe Illustrator 25.4.1, SVG Export Plug-In . SVG Version: 6.00 Build 0)  -->
<svg version="1.1" id="Слой_1" xmlns="http://www.w3.org/2000/svg" xmlns:xlink="http://www.w3.org/1999/xlink" x="0px" y="0px"
	 viewBox="0 0 56.69 56.69" style="enable-background:new 0 0 56.69 56.69;" xml:space="preserve">
<style type="text/css">
	.st0{fill:#FCDF6B;}
	.st1{fill:#1C75BC;}
	.st2{fill:#7D9FD3;}
	.st3{fill:#F47920;}
</style>
<circle id="XMLID_5_" class="st0" cx="28.35" cy="28.35" r="28.33"/>
<path class="st1" d="M40.3,27.78c-0.05-0.55-0.09-1.1-0.35-1.6c-1.43-2.76-5.89-1.95-8.1-3.8l-0.62-0.68c0-0.82-0.33-2.09,0.42-2.59
	c0.8-0.54,1.1-1.59,1.7-2.32c0.42-0.5,1.08-0.79,1.3-1.43c0.33-0.96,0.24-2.06-0.57-2.76c-0.05-0.04-0.1-0.09-0.12-0.15
	c-0.02-0.06-0.01-0.12,0-0.18c0.12-0.57,0.26-1.13,0.26-1.71c0-3.25-2.63-5.88-5.87-5.88c-3.24,0-5.87,2.63-5.87,5.88
	c0,0.58,0.14,1.14,0.26,1.71c0.01,0.06,0.02,0.12,0,0.18c-0.02,0.06-0.07,0.1-0.12,0.15c-0.81,0.71-0.91,1.8-0.57,2.76
	c0.22,0.64,0.89,0.93,1.3,1.43c0.6,0.73,0.89,1.78,1.7,2.32c0.75,0.5,0.42,1.77,0.42,2.59l-0.62,0.68c-2.2,1.85-6.67,1.04-8.1,3.8
	c-0.26,0.5-0.3,1.05-0.35,1.6c-0.06,0.68-0.29,1.39-0.22,2.07c0.26,2.6,4.72,3.46,6.7,3.83c1.81,0.34,3.64,0.45,5.48,0.42
	c1.84,0.03,3.67-0.08,5.48-0.42c1.98-0.37,6.44-1.23,6.7-3.83C40.59,29.16,40.36,28.46,40.3,27.78z"/>
<path class="st2" d="M54.51,43.57c-0.05-0.55-0.09-1.1-0.35-1.6c-1.43-2.76-5.89-1.95-8.1-3.8l-0.62-0.68
	c0-0.82-0.33-2.09,0.42-2.59c0.8-0.54,1.1-1.59,1.7-2.32c0.42-0.5,1.08-0.79,1.3-1.43c0.33-0.96,0.24-2.06-0.57-2.76
	c-0.05-0.04-0.1-0.09-0.12-0.15c-0.02-0.06-0.01-0.12,0-0.18c0.12-0.57,0.26-1.13,0.26-1.71c0-3.25-2.63-5.88-5.87-5.88
	c-3.24,0-5.87,2.63-5.87,5.88c0,0.58,0.14,1.14,0.26,1.71c0.01,0.06,0.02,0.12,0,0.18c-0.02,0.06-0.07,0.1-0.12,0.15
	c-0.81,0.71-0.91,1.8-0.57,2.76c0.22,0.64,0.89,0.93,1.3,1.43c0.6,0.73,0.89,1.78,1.7,2.32c0.75,0.5,0.42,1.77,0.42,2.59l-0.62,0.68
	c-2.2,1.85-6.67,1.04-8.1,3.8c-0.26,0.5-0.3,1.05-0.35,1.6c-0.06,0.68-0.29,1.39-0.22,2.07c0.26,2.6,4.72,3.46,6.7,3.83
	c1.81,0.34,3.64,0.45,5.48,0.42c1.84,0.03,3.67-0.08,5.48-0.42c1.98-0.37,6.44-1.23,6.7-3.83C54.8,44.95,54.58,44.25,54.51,43.57z"
	/>
<path class="st3" d="M26.7,43.57c-0.05-0.55-0.09-1.1-0.35-1.6c-1.43-2.76-5.89-1.95-8.1-3.8l-0.62-0.68c0-0.82-0.33-2.09,0.42-2.59
	c0.8-0.54,1.1-1.59,1.7-2.32c0.42-0.5,1.08-0.79,1.3-1.43c0.33-0.96,0.24-2.06-0.57-2.76c-0.05-0.04-0.1-0.09-0.12-0.15
	c-0.02-0.06-0.01-0.12,0-0.18c0.12-0.57,0.26-1.13,0.26-1.71c0-3.25-2.63-5.88-5.87-5.88c-3.24,0-5.87,2.63-5.87,5.88
	c0,0.58,0.14,1.14,0.26,1.71c0.01,0.06,0.02,0.12,0,0.18c-0.02,0.06-0.07,0.1-0.12,0.15c-0.81,0.71-0.91,1.8-0.57,2.76
	c0.22,0.64,0.89,0.93,1.3,1.43c0.6,0.73,0.89,1.78,1.7,2.32c0.75,0.5,0.42,1.77,0.42,2.59l-0.62,0.68c-2.2,1.85-6.67,1.04-8.1,3.8
	c-0.26,0.5-0.3,1.05-0.35,1.6c-0.06,0.68-0.29,1.39-0.22,2.07c0.26,2.6,4.72,3.46,6.7,3.83c1.81,0.34,3.64,0.45,5.48,0.42
	c1.84,0.03,3.67-0.08,5.48-0.42c1.98-0.37,6.44-1.23,6.7-3.83C26.99,44.95,26.76,44.25,26.7,43.57z"/>
</svg>
