<?xml version="1.0" encoding="utf-8"?>
<!-- Generator: Adobe Illustrator 25.4.1, SVG Export Plug-In . SVG Version: 6.00 Build 0)  -->
<svg version="1.1" xmlns="http://www.w3.org/2000/svg" xmlns:xlink="http://www.w3.org/1999/xlink" x="0px" y="0px"
	 viewBox="0 0 56.69 56.69" style="enable-background:new 0 0 56.69 56.69;" xml:space="preserve">
<style type="text/css">
	.st0{fill:#FCDF6B;}
	.st1{display:none;fill:#FFFFFF;}
	.st2{display:none;fill:#1C75BC;}
	.st3{display:none;}
	.st4{display:inline;fill:#F47920;}
	.st5{fill:#1C75BC;}
	.st6{fill:none;}
	.st7{fill:#A5BAE0;}
	.st8{fill:#F78D1E;}
	.st9{fill:#FFFFFF;}
</style>
<g id="Слой_1">
	<circle id="XMLID_15_" class="st0" cx="28.35" cy="28.35" r="28.33"/>
	<circle id="XMLID_1_" class="st1" cx="37.42" cy="19.72" r="16.25"/>
	<path id="XMLID_7_" class="st2" d="M38.99,45.5c-0.07-0.76-0.13-1.51-0.49-2.2c-1.97-3.8-8.12-2.69-11.16-5.23l-0.86-0.93
		c0-1.14-0.45-2.88,0.58-3.58c1.11-0.74,1.52-2.19,2.34-3.19c0.57-0.69,1.49-1.09,1.79-1.98c0.46-1.33,0.33-2.83-0.79-3.81
		c-0.07-0.06-0.14-0.12-0.17-0.2c-0.03-0.08-0.01-0.16,0.01-0.24c0.16-0.79,0.36-1.55,0.36-2.36c0-4.47-3.62-8.1-8.1-8.1
		c-4.47,0-8.1,3.63-8.1,8.1c0,0.81,0.2,1.57,0.36,2.36c0.02,0.08,0.03,0.16,0.01,0.24c-0.03,0.08-0.1,0.14-0.17,0.2
		c-1.12,0.97-1.25,2.48-0.79,3.81c0.31,0.89,1.22,1.28,1.79,1.98c0.82,1.01,1.23,2.45,2.34,3.19c1.04,0.69,0.58,2.44,0.58,3.58
		l-0.86,0.93c-3.04,2.54-9.19,1.43-11.16,5.23c-0.36,0.69-0.42,1.45-0.49,2.2c-0.09,0.94-0.4,1.91-0.31,2.86
		c0.35,3.58,6.5,4.76,9.23,5.28c2.49,0.47,5.02,0.61,7.55,0.58c2.53,0.04,5.06-0.11,7.55-0.58c2.73-0.52,8.88-1.69,9.23-5.28
		C39.39,47.41,39.08,46.44,38.99,45.5z"/>
	<g id="XMLID_2_" class="st3">
		<path id="XMLID_3_" class="st4" d="M35.35,25.61c-0.25-2.15,0.42-4.26,1.97-6.34L38.35,18c1.13-1.44,1.73-2.64,1.76-3.63
			c0.04-1.55-1.02-2.47-2.57-2.47c-1.8,0-2.92,1.48-3.27,3.17l-4.86-1.09c0.32-1.8,1.16-3.35,2.54-4.68
			c1.37-1.37,3.42-2.01,6.16-1.94C40.21,7.4,42.01,8,43.52,9.1s2.32,2.61,2.5,4.47c0.39,3.13-1.3,5.28-3.8,7.5
			c-0.99,0.95-1.62,1.66-1.94,2.15c-0.39,0.74-0.6,1.51-0.6,2.39H35.35z M37.68,27.55c1.83,0,3.1,1.41,3.1,3.1
			c0,1.69-1.27,3.06-3.1,3.06c-1.69,0-3.06-1.27-3.06-3.06C34.61,28.96,35.88,27.55,37.68,27.55z"/>
	</g>
</g>
<g id="Слой_2">
	<g>
		<path class="st5" d="M28.33,30.52l-5.08-2.89l-11.16-6.3l-0.01,16.19l4.44,2.94L28.33,30.52z M44.72,37.45l-0.01-16.13l-0.03-0.02
			l-16.28,9.26l11.76,9.9L44.72,37.45z M44.72,39.69l-3.52,2.33l-1.16,0.77l-1.07-0.9l-10.62-8.94l-10.62,8.94l-1.07,0.9l-1.16-0.77
			l-3.41-2.26l0,4.14l16.31,9.28h0.02l16.31-9.28L44.72,39.69z"/>
		<path class="st6" d="M28.41,53.19l16.31-9.28l-0.01-22.63L28.4,30.57l-16.31-9.28l-0.01,22.63l16.31,9.28H28.41z"/>
		<path class="st7" d="M44.71,21.28L29.09,11.3l-0.68-0.37h-0.02l-0.92,0.5l-15.4,9.83v0.07l16.26,9.18l16.33-9.22l0.04,0.03
			L44.71,21.28L44.71,21.28z"/>
		<g>
			<path id="XMLID_59_" class="st5" d="M54.05,20.2L37.49,9.86l-8.71,1.24l15.94,10.18L54.05,20.2z M28,11.1l-8.71-1.24L2.72,20.2
				l9.34,1.08L28,11.1z M0.89,30.12l15.63,10.34l11.82-9.96l-16.33-9.22L0.89,30.12z M44.68,21.29l-16.33,9.22l11.82,9.96
				L55.8,30.12L44.68,21.29z"/>
		</g>
	</g>
	<g id="XMLID_4_">
		<path id="XMLID_33_" class="st8" d="M28.35,23.07c-0.29,0-0.57-0.08-0.8-0.23l-10.69-7.28c-0.5-0.34-0.71-0.89-0.55-1.42
			c0.19-0.62,0.85-1.04,1.63-1.04h4.25c0.08,0,0.15-0.02,0.19-0.03V4.14c0-0.78,0.74-1.39,1.69-1.39h8.55
			c0.95,0,1.69,0.61,1.69,1.39v8.93c0.04,0.02,0.1,0.03,0.19,0.03h4.25c0.79,0,1.44,0.42,1.64,1.04c0.16,0.53-0.05,1.08-0.55,1.42
			l-10.69,7.28C28.92,22.99,28.64,23.07,28.35,23.07z"/>
		<path id="XMLID_30_" class="st9" d="M32.62,3.5c0.52,0,0.94,0.29,0.94,0.64v9.07c0,0.35,0.42,0.64,0.94,0.64h4.25
			c0.83,0,1.25,0.69,0.66,1.09l-10.69,7.28c-0.1,0.07-0.24,0.11-0.37,0.11c-0.14,0-0.27-0.04-0.37-0.11l-10.69-7.28
			c-0.59-0.4-0.17-1.09,0.66-1.09h4.25c0.52,0,0.94-0.29,0.94-0.64V4.14c0-0.35,0.42-0.64,0.94-0.64H32.62 M32.62,2h-8.55
			c-1.37,0-2.44,0.94-2.44,2.14v8.21h-3.69c-1.12,0-2.06,0.63-2.35,1.57c-0.26,0.85,0.07,1.73,0.85,2.26l10.69,7.28
			c0.35,0.24,0.77,0.37,1.22,0.37c0.45,0,0.87-0.13,1.22-0.37l10.69-7.28c0.77-0.53,1.11-1.41,0.85-2.26
			c-0.29-0.94-1.23-1.57-2.35-1.57h-3.69V4.14C35.06,2.94,33.99,2,32.62,2L32.62,2z"/>
	</g>
</g>
</svg>
